<svg width="482" height="604" viewBox="0 0 482 604" fill="none" xmlns="http://www.w3.org/2000/svg">
<path d="M119.217 454.143L78.9337 528.263L82.2511 348.293C83.0088 336.861 86.8672 325.851 93.4119 316.446C96.1872 312.225 99.4391 308.337 103.103 304.859C107.843 300.854 114.169 295.783 118.506 294.077C123.885 291.945 124.051 284.48 119.051 283.177C114.051 281.874 99.0752 287.371 86.0424 300.736C73.0097 314.1 75.948 285.215 76.8485 274.67C77.7489 264.126 78.9574 231.425 75.9243 228.677C71.4932 224.625 66.209 228.677 65.5692 239.292C64.9295 249.908 60.8301 281.352 55.2142 280.76C49.5983 280.168 55.0246 226.568 55.0246 226.568C55.0246 226.568 58.0103 215.241 51.6361 214.341C40.1199 212.706 38.7219 270.002 38.7219 275.476C38.7219 279.267 32.6794 278.841 32.8927 274.765C33.1059 270.689 39.3853 221.355 27.6796 219.601C18.6989 218.25 26.092 266.732 19.1254 276.471C12.1588 286.21 17.2771 239.032 8.62815 238.084C5.42921 237.728 2.96484 237.918 3.88898 265.263C4.41029 279.978 10.9977 301.968 9.81294 330.355L9.52859 337.701C2.72788 390.804 -27.9108 669.395 77.5593 661.836C77.5593 661.836 157.58 650.723 202.057 505.089L119.217 454.143Z" fill="#FFBE9D"/>
<path d="M28.959 318.152C28.959 318.413 30.7362 318.626 33.3664 320C36.9121 321.829 39.6798 324.874 41.1623 328.578L41.9917 330.687L42.9158 328.626C44.2445 325.684 46.0995 323.01 48.3896 320.735C52.8015 316.247 58.4683 313.199 64.6449 311.991C69.3841 311.02 72.4645 311.565 72.5119 311.185C69.9206 310.23 67.114 310.016 64.408 310.569C57.7604 311.432 51.5986 314.512 46.9204 319.313C44.4858 321.777 42.54 324.679 41.186 327.867H42.9395C42.0899 325.854 40.8507 324.028 39.2932 322.495C37.7358 320.962 35.8907 319.752 33.864 318.934C32.3542 318.157 30.6356 317.883 28.959 318.152Z" fill="#EB996E"/>
<path d="M249.331 651.884C258.146 621.862 252.364 617.122 242.886 587.313L222.507 523.334L177.912 589.209L83.1045 513.003L114.549 442.081C173.291 308.958 268.572 318.413 268.572 318.413L389.989 295.238C389.989 295.238 467.664 288.129 517.947 333.768C534.344 348.649 608.82 482.72 608.82 482.72L517.307 546.841L494.867 508.572L488.659 560.584C483.777 589.019 484.085 625.203 494.867 651.884" fill="#455A64"/>
<path d="M238.762 363.719C238.762 364.051 218.787 368.458 194.025 373.553C169.262 378.648 149.002 382.51 149.002 382.178C149.002 381.847 168.954 377.439 193.74 372.345C218.526 367.25 238.691 363.34 238.762 363.719Z" fill="#FAFAFA"/>
<path d="M505.743 325.379C505.743 325.735 486.146 329.644 461.811 334.123C437.475 338.601 417.713 341.99 417.642 341.634C417.571 341.279 437.262 337.393 461.598 332.914C485.933 328.436 505.696 325.047 505.743 325.379Z" fill="#FAFAFA"/>
<path d="M543.159 368.719C543.159 369.051 512.662 375.828 474.891 384.05C437.12 392.273 406.458 398.505 406.387 398.268C406.316 398.031 436.859 391.159 474.631 382.936C512.402 374.714 542.993 368.458 543.159 368.719Z" fill="#FAFAFA"/>
<path d="M580.575 435.517L579.295 435.778L575.551 436.442L561.073 438.811L507.829 447.531L332.053 475.729C263.335 486.606 201.181 496.297 156.111 503.074C133.6 506.487 115.355 509.14 102.725 510.894C96.4216 511.747 91.5165 512.387 88.1754 512.742C86.5108 513.105 84.7992 513.201 83.1045 513.027C84.7988 513 86.4876 512.825 88.1517 512.505L102.654 510.42L155.993 502.221L331.863 474.497L507.615 446.655L560.931 438.314L575.433 436.11L579.224 435.565L580.575 435.517Z" fill="#FAFAFA"/>
<path d="M491.171 539.258C491.171 539.59 434.727 547.243 365.038 556.319C295.348 565.394 238.81 572.48 238.762 572.148C238.715 571.816 295.182 564.186 364.895 555.087C434.609 545.988 491.028 538.926 491.171 539.258Z" fill="#FAFAFA"/>
<path d="M273.477 418.551C272.945 418.725 272.398 418.844 271.842 418.907L267.103 419.689L249.805 422.437C235.185 424.807 215.019 428.148 192.935 432.295C170.85 436.442 150.709 440.588 136.231 443.693L119.004 447.365L114.265 448.337C113.723 448.485 113.167 448.572 112.606 448.598C113.117 448.379 113.649 448.212 114.194 448.1L119.004 446.892C123.032 445.896 128.861 444.522 136.065 442.84C150.496 439.498 170.495 435.233 192.722 430.992C214.948 426.75 235.137 423.622 249.781 421.513C257.127 420.447 263.051 419.641 267.174 419.144L271.913 418.599C272.432 418.531 272.955 418.515 273.477 418.551Z" fill="#FAFAFA"/>
<path d="M377.714 36.1716C374.8 71.2888 421.86 96.2168 417.666 131.192C416.504 140.907 411.457 151.476 416.599 159.816C422.76 169.84 437.76 167.731 448.707 172.067C462.19 177.399 469.086 193.63 467.048 207.966C465.01 222.302 455.721 234.695 444.797 244.245C427.552 259.322 405.996 268.583 383.188 270.713C372.62 271.661 361.578 270.903 352.147 265.974C342.716 261.045 335.251 251.543 335.204 240.927" fill="#263238"/>
<path d="M382.359 315.38C376.104 285.404 370.061 253.77 370.061 253.77C370.061 253.77 407.287 239.174 404.61 187.161C402.074 137.542 370.677 28.3993 370.677 28.3993C310.371 17.5229 247.791 46.5266 217.602 99.4868L272.411 341.99C278.761 370.141 307.954 387.012 338.119 380.069C368.521 372.818 388.307 343.933 382.359 315.38Z" fill="#FFBE9D"/>
<path d="M374.753 117.993C375.118 119.672 374.816 121.428 373.909 122.888C373.002 124.347 371.562 125.396 369.895 125.813C369.088 126.054 368.24 126.131 367.403 126.038C366.565 125.946 365.755 125.687 365.019 125.276C364.283 124.865 363.638 124.311 363.12 123.646C362.602 122.981 362.223 122.219 362.005 121.406C361.628 119.739 361.911 117.992 362.795 116.53C363.678 115.067 365.093 114.004 366.744 113.562C367.56 113.307 368.42 113.219 369.272 113.306C370.123 113.392 370.948 113.65 371.696 114.064C372.445 114.478 373.102 115.04 373.627 115.715C374.153 116.391 374.536 117.166 374.753 117.993Z" fill="#263238"/>
<path d="M382.027 111.477C381.411 112.496 375.748 109.913 368.805 111.477C361.862 113.041 357.502 117.519 356.578 116.832C356.128 116.524 356.578 114.842 358.497 112.757C361.033 110.046 364.343 108.184 367.976 107.425C371.581 106.645 375.341 107.035 378.71 108.539C381.222 109.652 382.264 111.027 382.027 111.477Z" fill="#263238"/>
<path d="M303.831 134.272C304.208 135.939 303.924 137.686 303.041 139.148C302.157 140.611 300.742 141.674 299.092 142.116C298.283 142.353 297.435 142.426 296.597 142.331C295.759 142.236 294.949 141.974 294.214 141.561C293.479 141.148 292.834 140.593 292.316 139.927C291.799 139.261 291.42 138.499 291.201 137.685C290.825 136.021 291.109 134.277 291.993 132.819C292.877 131.36 294.292 130.301 295.94 129.865C296.748 129.624 297.595 129.547 298.433 129.64C299.271 129.732 300.081 129.991 300.817 130.402C301.552 130.813 302.198 131.367 302.716 132.032C303.234 132.697 303.613 133.459 303.831 134.272Z" fill="#263238"/>
<path d="M310.94 127.685C310.324 128.68 304.66 126.097 297.718 127.685C290.775 129.272 286.438 133.727 285.49 133.04C285.04 132.756 285.49 131.05 287.41 128.964C289.956 126.268 293.261 124.408 296.888 123.633C300.502 122.863 304.267 123.253 307.646 124.747C310.253 125.86 311.319 127.211 310.94 127.685Z" fill="#263238"/>
<path d="M347.858 172.589C347.739 172.186 351.91 170.527 358.711 168.157C360.44 167.589 362.052 166.902 362.099 165.622C361.833 163.754 361.006 162.011 359.729 160.622L351.626 148.229C340.252 130.528 331.626 115.837 332.361 115.387C333.095 114.937 342.858 128.917 354.208 146.594L362.123 159.106C363.674 161.022 364.512 163.417 364.492 165.883C364.367 166.561 364.089 167.202 363.678 167.757C363.267 168.311 362.735 168.764 362.123 169.082C361.2 169.559 360.221 169.917 359.208 170.148C352.336 172.02 347.976 172.968 347.858 172.589Z" fill="#263238"/>
<path d="M370.179 253.77C346.594 259.117 321.989 257.83 299.092 250.05C299.092 250.05 322.787 281.163 372.146 265.784L370.179 253.77Z" fill="#EB996E"/>
<path d="M348.474 189.934C346.799 188.552 344.799 187.621 342.664 187.227C340.529 186.833 338.328 186.99 336.27 187.683C334.765 188.138 333.368 188.896 332.166 189.911C330.964 190.925 329.982 192.175 329.28 193.583C328.591 194.933 328.335 196.463 328.547 197.964C328.759 199.466 329.429 200.865 330.465 201.971C331.832 202.96 333.461 203.523 335.147 203.59C336.833 203.658 338.501 203.227 339.943 202.351C342.976 200.514 345.617 198.099 347.716 195.242C348.366 194.55 348.888 193.748 349.256 192.872C349.434 192.431 349.475 191.946 349.373 191.481C349.272 191.016 349.033 190.593 348.687 190.266" fill="#2BA4A6"/>
<path d="M328.427 181.711C329.564 181.403 331.176 188.939 338.758 192.943C346.341 196.948 354.184 194.389 354.469 195.313C354.682 195.763 353 197.161 349.611 197.967C345.207 198.97 340.59 198.383 336.578 196.308C332.729 194.333 329.804 190.931 328.427 186.83C327.527 183.82 327.906 181.783 328.427 181.711Z" fill="#263238"/>
<path d="M247.861 150.93C242.218 150.918 236.682 152.468 231.866 155.409C227.074 158.402 223.665 163.174 222.388 168.679C221.388 174.27 222.557 180.033 225.658 184.792C228.755 189.505 232.868 193.464 237.695 196.379C241.005 198.712 244.823 200.223 248.832 200.787C250.839 201.055 252.882 200.821 254.776 200.106C256.67 199.39 258.357 198.216 259.685 196.687" fill="#FFBE9D"/>
<path d="M251.7 184.199C252.364 184.199 250.705 188.014 245.516 187.73C242.707 187.379 240.151 185.931 238.407 183.702C236.346 181.242 234.792 178.4 233.834 175.337C232.729 172.095 232.821 168.565 234.094 165.385C234.622 164.03 235.454 162.814 236.526 161.832C237.599 160.85 238.883 160.128 240.279 159.722C245.326 158.537 247.625 161.712 247.08 161.925C246.535 162.139 244.402 161.025 241.274 162.518C238.146 164.011 236.014 168.821 237.862 174.105C239.71 179.389 242.838 184.128 246.061 184.768C249.283 185.408 251.369 183.82 251.7 184.199Z" fill="#EB996E"/>
<path d="M355.961 17.286C359.621 24.4864 360.851 32.6783 359.467 40.6361C358.084 48.5938 354.16 55.8894 348.284 61.4314C336.246 72.2604 318.806 73.8006 303.262 78.3265C287.717 82.8524 271.059 94.2975 271.77 110.482C272.197 120.292 279.163 129.723 276.651 139.201C273.737 150.314 259.543 155.054 255.538 165.812C249.117 183.109 272.623 198.678 271.581 217.089C270.964 228.013 261.723 236.923 260.704 247.894C259.235 263.391 274.448 279.86 265.988 292.916C259.496 302.963 244.378 301.518 233.288 297.158C222.198 292.798 210.066 286.589 198.953 290.949C192.271 293.556 187.555 299.527 181.607 303.555C176.176 307.242 169.773 309.234 163.209 309.28C156.645 309.326 150.215 307.424 144.732 303.813C139.25 300.203 134.962 295.048 132.411 289C129.859 282.951 129.16 276.282 130.401 269.836C132.202 260.358 137.936 252.23 142.557 243.771C147.177 235.311 150.85 225.43 148.078 216.213C145.922 209.104 140.377 203.749 135.969 197.825C131.562 191.901 128.126 184.105 130.969 177.304C135.946 165.338 155.021 166.38 161.94 155.433C171.418 140.386 149.429 121.24 155.068 104.368C161.466 85.2694 195.351 88.6816 201.796 69.5828C204.166 62.6399 201.796 54.9861 202.436 47.6878C204.119 31.1007 221.63 20.3191 238.146 17.4519C254.662 14.5847 271.912 16.7173 288.12 12.4521C296.982 10.0825 305.276 5.88835 313.996 2.97376C322.716 0.0591695 332.384 -1.38629 341.009 1.81265C349.635 5.01159 356.53 14.0397 354.8 23.1389" fill="#263238"/>
<path d="M348.498 52.8771C353.294 61.1761 359.926 68.267 367.886 73.6065C375.846 78.9461 384.922 82.3925 394.42 83.6817C394.112 70.9807 393.449 58.185 390.013 45.9816C386.577 33.7783 380.132 21.9541 370.179 14.2055C360.227 6.45698 346.152 3.23434 334.351 7.85503" fill="#263238"/>
<path d="M409.514 296.447C413.803 297.015 437.783 437.674 345.725 453.289C258.595 468.099 231.653 323.578 231.653 323.578C231.653 323.578 290.348 280.523 409.514 296.447Z" fill="#FFBE9D"/>
<path d="M356.767 103.871C357.312 104.89 362.051 103.373 367.952 102.71C373.852 102.046 378.781 102.378 379.065 101.264C379.349 100.15 374.326 97.8756 367.478 98.6813C360.63 99.487 356.222 103.065 356.767 103.871Z" fill="#263238"/>
<path d="M286.414 114.771C286.627 114.581 286.603 114.178 286.414 113.539V114.605C289.816 112.876 293.412 111.556 297.124 110.671C303.664 109.25 309.209 110.814 309.66 109.747C309.849 109.25 308.664 108.136 306.247 107.378C303.051 106.289 299.618 106.093 296.319 106.809C294.135 107.142 292.042 107.917 290.168 109.087C288.294 110.256 286.678 111.795 285.419 113.61L284.992 114.463L285.348 114.652C285.822 114.913 286.224 114.913 286.414 114.771Z" fill="#263238"/>
<path d="M246.652 110.671C241.279 110.737 235.909 110.396 230.587 109.652C225.228 109.324 219.903 108.571 214.663 107.401C220.036 107.336 225.407 107.677 230.729 108.42C236.086 108.768 241.409 109.52 246.652 110.671Z" fill="#2BA4A6"/>
<path d="M238.833 119.652C234.843 120.522 230.739 120.746 226.677 120.316C222.601 120.306 218.553 119.642 214.687 118.349C214.687 118.017 220.113 118.728 226.748 119.083C233.383 119.439 238.809 119.273 238.833 119.652Z" fill="#2BA4A6"/>
<path d="M356.744 45.9817C356.649 46.4895 356.489 46.9831 356.27 47.4508C355.691 48.8205 354.891 50.0855 353.9 51.1948C349.945 55.0571 344.728 57.3625 339.209 57.6874C335.464 58.1061 331.682 58.0424 327.953 57.4979C323.949 57.0002 319.707 56.2657 315.252 55.9339C310.625 55.4078 305.939 55.9178 301.533 57.4268C296.947 59.4062 292.983 62.5917 290.064 66.6444C286.817 70.6727 284.092 74.9854 280.893 78.8004C279.317 80.6856 277.563 82.4154 275.657 83.9661C273.783 85.4135 271.728 86.6085 269.543 87.5205C265.494 89.0261 261.302 90.1139 257.032 90.7668C253.372 91.327 249.766 92.1909 246.25 93.3497C241.155 94.9488 236.796 98.3086 233.952 102.828C233.074 104.575 232.535 106.472 232.364 108.42C232.297 107.909 232.297 107.391 232.364 106.88C232.515 105.398 232.924 103.955 233.573 102.615C236.315 97.7996 240.736 94.1637 245.99 92.4018C249.539 91.1743 253.185 90.2469 256.89 89.6294C261.076 88.9588 265.182 87.855 269.14 86.3357C273.415 84.4793 277.155 81.5786 280.017 77.9C283.145 74.1797 285.846 69.8434 289.14 65.744C292.225 61.5677 296.374 58.2947 301.153 56.2657C305.723 54.7194 310.58 54.2094 315.371 54.7728C324.446 55.5785 332.385 57.7348 339.067 56.8107C344.45 56.6277 349.596 54.5461 353.592 50.9341C354.894 49.457 355.957 47.7861 356.744 45.9817Z" fill="#455A64"/>
<path d="M159.002 305.712C159.717 305.561 160.422 305.363 161.111 305.119C163.02 304.243 164.527 302.677 165.329 300.736C166.645 297.668 166.713 294.208 165.518 291.091C164.381 287.395 162.177 283.461 160.495 278.77C156.171 267.835 154.997 255.907 157.106 244.34C158.547 237.532 161.512 231.14 165.779 225.644C168.068 222.759 170.748 220.207 173.741 218.061C176.854 215.937 180.211 214.195 183.74 212.871C187.192 211.64 190.4 209.811 193.219 207.469C194.469 206.277 195.444 204.825 196.074 203.217C196.704 201.608 196.975 199.881 196.868 198.156C196.465 191.261 192.697 184.934 192.816 178.11C192.881 174.795 193.743 171.544 195.327 168.631C196.799 165.957 198.615 163.487 200.73 161.286C204.549 157.443 208.618 153.857 212.91 150.551C220.492 144.296 225.208 137.495 226.464 132.14C227.109 129.365 227.109 126.479 226.464 123.704C226.557 123.874 226.621 124.058 226.653 124.249C226.653 124.604 226.914 125.149 227.056 125.86C227.401 127.987 227.329 130.16 226.843 132.258C226.032 135.568 224.574 138.684 222.554 141.429C219.916 145.052 216.845 148.339 213.407 151.215C209.188 154.544 205.183 158.137 201.417 161.973C199.382 164.109 197.63 166.499 196.204 169.082C194.723 171.823 193.911 174.876 193.835 177.991C193.956 181.287 194.571 184.546 195.659 187.659C196.851 190.998 197.646 194.466 198.029 197.99C198.154 199.89 197.86 201.793 197.168 203.566C196.476 205.339 195.403 206.939 194.024 208.251C191.107 210.699 187.777 212.609 184.19 213.89C180.747 215.262 177.478 217.036 174.451 219.175C171.549 221.254 168.949 223.726 166.727 226.52C162.56 231.861 159.652 238.074 158.22 244.695C156.116 256.059 157.182 267.782 161.3 278.58C162.912 283.319 165.068 287.182 166.182 291.02C166.721 292.802 166.977 294.657 166.94 296.518C166.867 298.098 166.472 299.646 165.779 301.067C164.88 303.072 163.242 304.651 161.205 305.475C160.5 305.727 159.745 305.808 159.002 305.712Z" fill="#455A64"/>
</svg>
