<svg width="300" height="136" viewBox="0 0 300 136" fill="none" xmlns="http://www.w3.org/2000/svg">
<path d="M37.2779 129.735C37.3175 130.771 37.29 131.809 37.1953 132.842C37.2398 132.156 37.2461 131.463 37.2588 130.777L37.2779 129.735Z" fill="#EBEBEB"/>
<path d="M45.2029 196.446C45.0568 196.738 45.5523 196.986 45.7111 196.706C50.1866 189.01 53.0603 180.488 54.1595 171.653C57.5397 167.883 60.0547 163.419 61.5281 158.574H61.5662C65.7142 157.983 70.0972 156.891 72.4348 153.098C74.6072 149.56 74.9757 144.542 75.3441 140.534L75.414 140.47C75.4455 140.44 75.4643 140.399 75.4665 140.355C75.4686 140.311 75.454 140.268 75.4256 140.235C75.3972 140.202 75.3572 140.181 75.3137 140.176C75.2702 140.171 75.2265 140.183 75.1917 140.21C71.9583 142.634 68.9787 145.38 66.2986 148.404C63.9864 151.097 63.1225 154.197 61.852 157.38C63.4251 151.606 64.1925 145.642 64.1325 139.657C64.1633 139.63 64.1852 139.595 64.1954 139.555C64.2057 139.515 64.2036 139.473 64.1896 139.435L64.1325 139.251V139.047C64.136 139.033 64.136 139.018 64.1325 139.003C66.8322 136.094 69.0808 133.877 69.3095 129.76C69.589 124.679 67.3403 120.639 65.3267 116.16C65.3085 116.123 65.2801 116.091 65.2447 116.069C65.2093 116.047 65.1684 116.035 65.1266 116.035C65.0848 116.035 65.0439 116.047 65.0085 116.069C64.9731 116.091 64.9447 116.123 64.9265 116.16C63.2686 119.68 61.1978 123.427 60.9119 127.372C60.6007 131.552 62.1824 135.757 63.7005 139.581C63.7242 139.629 63.7618 139.669 63.8085 139.695C62.7032 150.818 60.2259 161.102 54.2802 170.599C56.1859 154.02 52.1268 137.021 45.2601 121.249C55.0044 117.59 52.3809 108.157 51.1041 99.9433C51.0909 99.8003 51.0697 99.6582 51.0406 99.5177C51.0406 99.4732 51.0406 99.4541 50.9771 99.4795C50.9136 99.505 45.8381 106.257 44.8091 110.037C43.9833 113.118 44.3517 116.51 44.5804 119.749C43.2083 116.688 41.7389 113.677 40.172 110.717V110.177C40.184 110.173 40.1949 110.167 40.2039 110.158C40.2128 110.149 40.2194 110.138 40.2232 110.126C40.227 110.115 40.2278 110.102 40.2255 110.09C40.2232 110.077 40.2179 110.066 40.2101 110.056V110.018C40.3308 106.41 40.4451 102.814 38.9397 99.4351C37.2055 95.5412 33.9151 92.3397 30.8406 89.4558C30.8406 89.405 30.631 89.4558 30.6373 89.5002C30.2054 93.5656 29.3669 98.5966 31.1455 102.471C32.778 106.048 36.7418 108.03 39.613 110.443L39.6829 110.482C45.0632 123.427 50.7738 136.322 52.8954 150.227C46.813 146.262 41.4547 141.284 37.0531 135.509C39.4923 133.235 41.1375 130.694 40.9406 127.22C40.6265 122.532 38.849 118.062 35.8589 114.439C35.8464 114.422 35.8301 114.408 35.8114 114.398C35.7927 114.388 35.772 114.383 35.7509 114.382C35.7107 114.37 35.6681 114.37 35.6279 114.382C35.5877 114.394 35.5517 114.416 35.5238 114.447C35.4959 114.479 35.4774 114.517 35.4704 114.558C35.4634 114.599 35.4681 114.642 35.4841 114.68C32.5748 121.033 32.6129 126.489 34.8107 132.466C32.4368 129.036 30.2853 125.456 28.3696 121.75C30.2753 114.623 23.8723 110.875 19.5718 106.207C19.4511 106.073 19.2034 106.207 19.2987 106.384C19.3368 106.448 19.3813 106.505 19.4194 106.562C18.619 113.975 21.5156 119.768 28.3124 123.23C28.3565 123.25 28.404 123.261 28.4522 123.262C31.0694 129.679 34.8974 135.532 39.7273 140.502C38.0947 139.318 36.2515 138.456 34.2962 137.961C30.4341 137.065 27.1055 138.692 23.4975 139.829L23.4022 139.86H23.345C23.284 139.875 23.2292 139.909 23.1885 139.957C23.1478 140.005 23.1233 140.064 23.1183 140.127C23.1134 140.19 23.1284 140.252 23.1611 140.306C23.1938 140.36 23.2426 140.402 23.3006 140.426L23.3323 140.458C28.846 144.059 36.5004 148.893 42.3889 143.233L42.7827 143.468C45.8817 146.344 49.2441 148.921 52.8256 151.167C52.8816 151.201 52.9447 151.22 53.0098 151.225C53.1813 152.444 53.3337 153.676 53.4417 154.909C54.3043 165.04 53.0895 175.24 49.8718 184.885C45.0886 178.196 41.7346 171.717 40.0068 163.535C41.7283 156.884 38.0249 151.815 33.445 147.134C33.4277 147.105 33.4019 147.082 33.3711 147.068C33.3402 147.054 33.3059 147.049 33.2726 147.056C33.2393 147.062 33.2088 147.078 33.1851 147.102C33.1614 147.127 33.1457 147.158 33.1401 147.191C32.5049 150.367 31.5012 154.496 32.6637 157.64C33.8261 160.785 36.8498 162.805 39.5812 164.361C39.6023 164.365 39.6237 164.365 39.6448 164.361C40.2296 168.003 41.2424 171.564 42.6621 174.969C41.1959 172.539 39.1705 170.494 36.7545 169.004C33.6483 167.2 30.5611 167.289 27.0674 167.562C26.7879 167.562 31.3615 179.841 43.0622 176.239L43.4497 176.71C45.0131 180.059 47.0662 183.156 49.5415 185.901C48.3175 189.503 46.8685 193.025 45.2029 196.446ZM42.7573 175.82C39.5304 175.877 36.1066 176.131 33.229 174.359C30.5865 172.714 29.5003 170.548 27.5692 168.083C31.0884 168.28 33.9214 167.842 37.2182 170.071C39.486 171.577 41.0613 173.743 42.7319 175.82H42.7573ZM39.486 163.554C36.6021 161.909 33.8262 159.597 33.2354 156.224C32.7399 153.391 33.3116 150.507 33.4323 147.623C35.014 149.694 36.6084 151.796 37.9741 153.975C39.9687 157.151 39.8798 159.87 39.6257 163.287C39.5776 163.305 39.5372 163.338 39.5116 163.382C39.4861 163.427 39.477 163.478 39.486 163.529V163.554ZM27.7916 121.998C25.3188 120.576 23.2283 118.575 21.6998 116.167C19.9466 113.251 20.2134 110.215 19.6989 107.026C20.9693 108.874 22.6463 110.24 24.247 111.828C27.1754 114.699 28.4395 117.933 27.7916 121.998ZM36.9451 134.506L36.8244 134.652C35.9681 131.552 35.4045 128.379 35.1411 125.174C34.9568 122.081 35.6111 119.082 35.7763 116.027C36.4351 119.097 36.8598 122.212 37.0467 125.346C37.1166 126.718 37.25 128.217 37.3008 129.716C37.3008 128.261 37.3008 126.807 37.25 125.352C37.1248 122.016 36.6457 118.703 35.8207 115.468C35.8239 115.419 35.8239 115.371 35.8207 115.322C36.8625 118.866 38.946 122.011 39.2128 125.778C39.4102 128.785 38.6521 131.777 37.0467 134.328C37.1338 133.83 37.1889 133.327 37.2119 132.822C37.1636 133.389 37.0744 133.952 36.9451 134.506ZM35.6746 115.563C35.6746 115.614 35.6746 115.671 35.6746 115.728C35.0801 118.939 34.8352 122.204 34.9441 125.466C35.2574 128.606 35.8397 131.713 36.6846 134.753L36.6084 134.842C35.338 131.221 33.661 127.626 33.896 123.694C34.0866 120.963 35.0394 118.257 35.6746 115.563ZM37.6438 133.635C38.8647 131.458 39.4748 128.991 39.4097 126.495C39.3399 122.557 37.3008 119.305 36.0304 115.697C37.4533 118.396 38.819 120.931 39.5622 123.993C40.5976 128.242 39.8671 130.783 37.6438 133.635ZM41.8426 142.96C39.0477 144.44 36.3289 145.419 33.0258 144.822C29.7226 144.224 27.0357 142.103 24.3296 140.305C27.5946 139.543 30.5865 138.044 34.0485 138.844C37.0467 139.511 39.3271 141.353 41.8426 142.96ZM39.3017 107.032C37.7871 100.964 35.0864 95.2563 31.3551 90.2371C33.896 93.0003 36.259 95.6809 37.828 99.1683C39.0032 101.766 39.035 104.383 39.289 107.007L39.3017 107.032ZM39.397 109.09C37.1739 102.687 34.4642 96.4625 31.2916 90.4721C35.1024 95.8856 37.8804 101.956 39.486 108.379C39.5304 108.69 39.5812 109.014 39.6384 109.319L39.397 109.09ZM33.1338 100.432C31.8316 97.1483 31.6029 93.445 30.9867 90.0084C34.1446 96.1602 36.9298 102.496 39.3271 108.982C37.0022 106.327 34.4042 103.704 33.1338 100.432ZM39.3208 109.23C36.691 107.109 33.5085 105.171 32.1238 101.995C30.6691 98.6538 30.8533 93.464 30.8533 89.7988C31.3234 93.4323 31.6664 97.4214 33.0893 100.794C34.4042 103.99 36.9768 106.651 39.3081 109.23H39.3208ZM46.1304 113.156C46.702 108.557 49.1985 104.898 50.831 100.693C50.8316 104.043 50.3721 107.377 49.4653 110.602C48.5251 114.02 46.7592 117.094 45.33 120.315C45.4443 118.25 45.6349 116.205 45.9652 114.153C45.9652 114.153 45.9652 114.115 45.9271 114.153C45.5206 116.065 45.2658 118.007 45.1648 119.959C45.0759 116.472 45.0124 112.489 46.0478 109.287C47.1721 105.813 49.262 103.196 50.831 100.096V100.255C48.8427 104.282 46.6068 108.658 46.1176 113.156H46.1304ZM51.0533 102.122C51.2947 105.387 51.5932 108.722 50.8183 111.898C49.9201 115.311 48.0061 118.37 45.33 120.67C47.1267 117.495 48.575 114.134 49.6495 110.647C50.0855 108.948 50.4102 107.223 50.6214 105.482C50.7738 104.39 50.958 103.253 51.0406 102.122H51.0533ZM45.2982 120.956C45.2982 120.886 45.2982 120.817 45.2982 120.747C47.8763 118.636 49.7707 115.809 50.742 112.622C51.409 110.318 51.6628 107.913 51.4916 105.52C51.6941 106.994 51.7896 108.48 51.7775 109.967C51.6568 115.011 49.3763 118.288 45.2855 120.956H45.2982ZM64.0245 138.831C62.8049 135.09 61.3502 130.739 61.852 126.858C62.0553 125.244 64.971 117.329 65.1806 117.215C65.1806 117.215 68.4583 125.028 68.4011 129.011C68.3186 133.349 65.6888 135.338 64.0118 138.831H64.0245ZM61.9092 157.888C63.637 154.82 64.4056 151.536 66.794 148.747C69.3349 145.838 72.2633 143.354 75.09 140.762C74.2896 144.034 73.972 147.47 72.7715 150.621C70.8849 155.55 66.5844 156.935 61.8965 157.907L61.9092 157.888Z" fill="#EBEBEB"/>
<path d="M273.262 196.011C273.408 196.303 272.913 196.551 272.754 196.272C268.278 188.575 265.405 180.054 264.305 171.219C260.925 167.448 258.41 162.984 256.937 158.139H256.899C252.751 157.549 248.368 156.456 246.03 152.664C243.858 149.126 243.489 144.107 243.121 140.099L243.051 140.036C243.019 140.005 243.001 139.964 242.998 139.92C242.996 139.877 243.011 139.834 243.039 139.801C243.068 139.767 243.108 139.746 243.151 139.741C243.195 139.737 243.238 139.749 243.273 139.775C246.507 142.199 249.486 144.945 252.166 147.97C254.478 150.663 255.342 153.763 256.613 156.945C255.04 151.171 254.272 145.207 254.332 139.223C254.302 139.196 254.28 139.16 254.269 139.12C254.259 139.081 254.261 139.039 254.275 139L254.332 138.816V138.613C254.329 138.598 254.329 138.583 254.332 138.568C251.633 135.659 249.384 133.442 249.155 129.326C248.876 124.244 251.125 120.204 253.138 115.726C253.156 115.688 253.185 115.657 253.22 115.634C253.256 115.612 253.296 115.6 253.338 115.6C253.38 115.6 253.421 115.612 253.456 115.634C253.492 115.657 253.52 115.688 253.538 115.726C255.196 119.245 257.267 122.993 257.553 126.937C257.864 131.117 256.282 135.322 254.764 139.146C254.741 139.194 254.703 139.234 254.656 139.261C255.762 150.383 258.239 160.668 264.185 170.164C262.279 153.585 266.338 136.586 273.205 120.814C263.46 117.155 266.084 107.722 267.361 99.5087C267.374 99.3658 267.395 99.2237 267.424 99.0831C267.424 99.0386 267.424 99.0196 267.488 99.045C267.551 99.0704 272.627 105.823 273.656 109.602C274.482 112.683 274.113 116.075 273.884 119.315C275.257 116.253 276.726 113.242 278.293 110.282V109.742C278.281 109.739 278.27 109.732 278.261 109.723C278.252 109.715 278.245 109.704 278.242 109.692C278.238 109.68 278.237 109.667 278.239 109.655C278.242 109.643 278.247 109.631 278.255 109.621V109.583C278.134 105.975 278.02 102.38 279.525 99.0005C281.259 95.1066 284.55 91.9051 287.624 89.0212C287.624 88.9704 287.834 89.0212 287.827 89.0657C288.259 93.1311 289.098 98.162 287.319 102.037C285.687 105.613 281.723 107.595 278.852 110.009L278.782 110.047C273.402 122.993 267.691 135.888 265.569 149.793C271.652 145.827 277.01 140.849 281.412 135.075C278.973 132.801 277.327 130.26 277.524 126.785C277.838 122.098 279.616 117.628 282.606 114.004C282.618 113.987 282.635 113.973 282.653 113.963C282.672 113.953 282.693 113.948 282.714 113.947C282.754 113.936 282.797 113.936 282.837 113.947C282.877 113.959 282.913 113.982 282.941 114.013C282.969 114.044 282.987 114.082 282.994 114.124C283.001 114.165 282.997 114.207 282.981 114.246C285.89 120.598 285.852 126.055 283.654 132.032C286.028 128.601 288.18 125.022 290.095 121.316C288.19 114.189 294.593 110.441 298.893 105.772C299.014 105.639 299.261 105.772 299.166 105.95C299.128 106.013 299.084 106.071 299.045 106.128C299.846 113.541 296.949 119.334 290.152 122.796C290.108 122.815 290.061 122.826 290.013 122.828C287.395 129.245 283.567 135.098 278.738 140.067C280.37 138.883 282.213 138.021 284.169 137.527C288.031 136.631 291.359 138.257 294.967 139.394L295.063 139.426H295.12C295.181 139.441 295.236 139.475 295.276 139.522C295.317 139.57 295.342 139.63 295.347 139.692C295.351 139.755 295.336 139.818 295.304 139.871C295.271 139.925 295.222 139.967 295.164 139.991L295.133 140.023C289.619 143.625 281.964 148.459 276.076 142.799L275.682 143.034C272.583 145.909 269.221 148.487 265.639 150.733C265.583 150.766 265.52 150.786 265.455 150.79C265.284 152.01 265.131 153.242 265.023 154.474C264.161 164.605 265.375 174.805 268.593 184.45C273.376 177.761 276.73 171.282 278.458 163.101C276.737 156.45 280.44 151.381 285.02 146.699C285.037 146.67 285.063 146.647 285.094 146.633C285.125 146.619 285.159 146.615 285.192 146.621C285.226 146.627 285.256 146.644 285.28 146.668C285.303 146.692 285.319 146.723 285.325 146.756C285.96 149.932 286.964 154.061 285.801 157.206C284.639 160.35 281.615 162.37 278.884 163.926C278.863 163.93 278.841 163.93 278.82 163.926C278.235 167.569 277.222 171.129 275.803 174.534C277.269 172.104 279.294 170.059 281.71 168.57C284.817 166.766 287.904 166.855 291.397 167.128C291.677 167.128 287.103 179.407 275.403 175.805L275.015 176.275C273.452 179.624 271.399 182.722 268.923 185.467C270.147 189.069 271.596 192.591 273.262 196.011ZM275.708 175.386C278.934 175.443 282.358 175.697 285.236 173.925C287.878 172.279 288.965 170.113 290.896 167.649C287.376 167.846 284.543 167.407 281.247 169.637C278.979 171.142 277.404 173.309 275.733 175.386H275.708ZM278.979 163.12C281.863 161.474 284.639 159.162 285.229 155.789C285.725 152.956 285.153 150.072 285.033 147.188C283.451 149.259 281.856 151.362 280.491 153.54C278.496 156.717 278.585 159.435 278.839 162.853C278.887 162.87 278.928 162.904 278.953 162.948C278.979 162.992 278.988 163.044 278.979 163.094V163.12ZM290.673 121.564C293.146 120.142 295.237 118.141 296.765 115.732C298.518 112.817 298.251 109.78 298.766 106.591C297.496 108.44 295.819 109.806 294.218 111.394C291.289 114.265 290.025 117.498 290.673 121.564ZM281.52 134.071L281.64 134.217C282.497 131.118 283.06 127.944 283.324 124.74C283.508 121.646 282.854 118.648 282.689 115.592C282.03 118.662 281.605 121.777 281.418 124.911C281.348 126.283 281.215 127.782 281.164 129.281C281.164 127.827 281.164 126.372 281.215 124.917C281.34 121.581 281.819 118.268 282.644 115.033C282.641 114.985 282.641 114.936 282.644 114.887C281.602 118.432 279.519 121.576 279.252 125.343C279.055 128.35 279.813 131.343 281.418 133.893C281.331 133.395 281.276 132.892 281.253 132.388C281.301 132.954 281.39 133.517 281.52 134.071ZM282.79 115.129C282.79 115.18 282.79 115.237 282.79 115.294C283.385 118.504 283.63 121.769 283.521 125.032C283.207 128.172 282.625 131.279 281.78 134.319L281.856 134.408C283.127 130.787 284.804 127.192 284.569 123.26C284.378 120.528 283.425 117.822 282.79 115.129ZM280.821 133.201C279.6 131.023 278.99 128.556 279.055 126.061C279.125 122.123 281.164 118.87 282.434 115.262C281.012 117.962 279.646 120.496 278.903 123.558C277.867 127.808 278.598 130.349 280.821 133.201ZM276.622 142.526C279.417 144.006 282.136 144.984 285.439 144.387C288.742 143.79 291.429 141.668 294.135 139.871C290.87 139.108 287.878 137.609 284.416 138.41C281.418 139.077 279.138 140.919 276.622 142.526ZM279.163 106.598C280.678 100.53 283.378 94.8217 287.11 89.8025C284.569 92.5657 282.206 95.2464 280.637 98.7337C279.462 101.332 279.43 103.949 279.176 106.572L279.163 106.598ZM279.068 108.656C281.291 102.252 284.001 96.0279 287.173 90.0376C283.362 95.451 280.584 101.522 278.979 107.944C278.934 108.256 278.884 108.58 278.826 108.885L279.068 108.656ZM285.331 99.9978C286.633 96.7137 286.862 93.0104 287.478 89.5739C284.32 95.7257 281.535 102.062 279.138 108.548C281.463 105.893 284.061 103.269 285.331 99.9978ZM279.144 108.796C281.774 106.674 284.956 104.737 286.341 101.56C287.796 98.2192 287.612 93.0294 287.612 89.3642C287.141 92.9977 286.798 96.9869 285.376 100.36C284.061 103.555 281.488 106.217 279.157 108.796H279.144ZM272.334 112.721C271.763 108.122 269.266 104.463 267.634 100.258C267.633 103.608 268.093 106.943 269 110.168C269.94 113.585 271.706 116.66 273.135 119.88C273.021 117.816 272.83 115.77 272.5 113.719C272.5 113.719 272.5 113.68 272.538 113.719C272.944 115.631 273.199 117.572 273.3 119.524C273.389 116.037 273.452 112.054 272.417 108.853C271.293 105.378 269.203 102.761 267.634 99.6611V99.8199C269.622 103.847 271.858 108.224 272.347 112.721H272.334ZM267.412 101.687C267.17 104.953 266.872 108.287 267.647 111.464C268.545 114.876 270.459 117.936 273.135 120.236C271.338 117.06 269.89 113.699 268.815 110.212C268.379 108.514 268.055 106.789 267.843 105.048C267.691 103.955 267.507 102.818 267.424 101.687H267.412ZM273.167 120.522C273.167 120.452 273.167 120.382 273.167 120.312C270.589 118.202 268.694 115.375 267.723 112.188C267.056 109.883 266.802 107.479 266.973 105.086C266.771 106.559 266.675 108.045 266.687 109.532C266.808 114.576 269.089 117.854 273.179 120.522H273.167ZM254.44 138.397C255.66 134.655 257.115 130.304 256.613 126.423C256.41 124.809 253.494 116.895 253.284 116.78C253.284 116.78 250.007 124.594 250.064 128.576C250.146 132.915 252.776 134.903 254.453 138.397H254.44ZM256.556 157.453C254.828 154.385 254.059 151.101 251.671 148.313C249.13 145.403 246.202 142.92 243.375 140.328C244.175 143.599 244.493 147.036 245.693 150.187C247.58 155.116 251.88 156.501 256.568 157.472L256.556 157.453Z" fill="#EBEBEB"/>
<path d="M27.512 121.452L27.8042 122.158C27.8042 122.221 27.9313 122.196 27.9122 122.126C27.8932 122.056 27.8233 121.872 27.7852 121.738L27.9821 121.948C27.9821 122.164 28.052 122.38 28.0774 122.583C28.0774 122.583 28.1282 122.583 28.1218 122.583C28.1218 122.386 28.0647 122.196 28.0329 121.999L28.2997 122.285L28.0075 121.98C27.1309 116.377 23.9294 111.683 20.207 107.509C20.1117 107.351 20.0228 107.192 19.9212 107.033C19.9212 107.033 19.9212 107.033 19.8767 107.033C19.8715 107.025 19.8644 107.019 19.8561 107.014C19.8478 107.01 19.8385 107.007 19.8291 107.007C19.8196 107.007 19.8103 107.01 19.802 107.014C19.7937 107.019 19.7866 107.025 19.7814 107.033L19.6734 106.912C19.6417 106.881 19.5908 106.912 19.6163 106.957L19.8132 107.236C20.4403 110.064 21.3932 112.81 22.6526 115.418C23.8722 117.768 25.6953 119.572 27.512 121.452ZM20.3086 107.865C22.6844 112.382 25.4603 116.682 27.4739 121.376C25.6315 119.594 24.0644 117.547 22.8241 115.304C21.6596 112.804 20.7324 110.201 20.0546 107.528L20.3086 107.865ZM27.7661 121.675C26.9912 119.293 25.6699 117.12 24.4566 114.941C23.3069 112.883 22.1762 110.813 20.9947 108.773C22.3541 110.539 23.8087 112.223 25.0283 114.097C26.5453 116.462 27.5494 119.119 27.9757 121.897L27.7661 121.675Z" fill="#EBEBEB"/>
<path d="M63.904 139.086C63.9009 139.037 63.9009 138.988 63.904 138.94C63.9167 138.936 63.9284 138.93 63.9383 138.921C63.9482 138.912 63.956 138.901 63.9612 138.889C65.5746 135.713 67.042 131.902 67.2389 128.319C67.2656 126.53 67.0715 124.744 66.6608 123.002C66.2795 120.876 65.7726 118.774 65.1427 116.707C65.1352 116.686 65.1202 116.669 65.1006 116.658C65.0809 116.648 65.0581 116.645 65.0365 116.651C65.015 116.656 64.9964 116.67 64.9843 116.688C64.9722 116.707 64.9675 116.73 64.9712 116.752C65.041 117.082 65.1109 117.387 65.1871 117.749C65.1871 121.357 65.3015 124.965 64.9521 128.548C64.6281 131.921 64.031 135.249 63.8595 138.635L63.8024 138.781C63.7914 138.804 63.79 138.83 63.7983 138.854C63.8067 138.878 63.8241 138.897 63.8468 138.908C63.8468 138.959 63.8468 139.016 63.8468 139.067C63.8468 139.118 63.904 139.149 63.904 139.086ZM63.9421 138.502C64.1454 135.173 64.8124 131.889 65.1236 128.567C65.4179 125.032 65.4583 121.48 65.2443 117.939C66.0002 121.166 66.9975 124.444 66.9848 127.766C66.9658 131.438 65.3968 135.173 63.9421 138.514V138.502Z" fill="#EBEBEB"/>
<path d="M63.7454 139.194C63.5993 135.567 62.1891 132.251 62.513 128.573C62.7407 125.426 63.4765 122.337 64.6918 119.426C64.6918 119.426 64.7427 119.426 64.7363 119.426C63.4927 122.592 62.7843 125.943 62.6401 129.342C62.4749 132.683 63.7009 135.859 63.8216 139.181C63.8224 139.186 63.8223 139.191 63.8211 139.196C63.82 139.201 63.8179 139.206 63.8149 139.21C63.812 139.214 63.8082 139.218 63.8039 139.22C63.7996 139.223 63.7948 139.225 63.7898 139.226C63.7848 139.226 63.7797 139.226 63.7748 139.225C63.7698 139.224 63.7651 139.222 63.761 139.219C63.7569 139.216 63.7534 139.212 63.7507 139.208C63.748 139.204 63.7462 139.199 63.7454 139.194Z" fill="#EBEBEB"/>
<path d="M116.863 48.4902C128.37 48.4902 137.698 39.162 137.698 27.655C137.698 16.1481 128.37 6.81982 116.863 6.81982C105.356 6.81982 96.0273 16.1481 96.0273 27.655C96.0273 39.162 105.356 48.4902 116.863 48.4902Z" fill="#EBEBEB"/>
<path d="M131.88 42.1771C139.645 34.4126 139.645 21.8238 131.88 14.0592C124.115 6.29466 111.527 6.29466 103.762 14.0592C95.9975 21.8238 95.9975 34.4126 103.762 42.1771C111.527 49.9417 124.115 49.9417 131.88 42.1771Z" fill="#DBDBDB"/>
<path d="M125.209 45.2161C134.651 41.1343 138.995 30.1715 134.914 20.7299C130.832 11.2884 119.869 6.94343 110.427 11.0252C100.986 15.1071 96.641 26.0699 100.723 35.5114C104.805 44.953 115.767 49.2979 125.209 45.2161Z" fill="white"/>
<path d="M118.055 10.8477H117.578V13.668H118.055V10.8477Z" fill="#EBEBEB"/>
<path d="M109.389 13.0514L108.977 13.2896L110.386 15.7323L110.799 15.4942L109.389 13.0514Z" fill="#EBEBEB"/>
<path d="M102.965 19.2705L102.727 19.6831L105.169 21.0929L105.407 20.6802L102.965 19.2705Z" fill="#EBEBEB"/>
<path d="M103.363 27.8843H100.543V28.3607H103.363V27.8843Z" fill="#EBEBEB"/>
<path d="M105.641 35.3882L103.188 36.7983L103.426 37.2128L105.879 35.8026L105.641 35.3882Z" fill="#EBEBEB"/>
<path d="M110.389 40.5255L108.98 42.9688L109.393 43.2067L110.802 40.7635L110.389 40.5255Z" fill="#EBEBEB"/>
<path d="M118.055 42.5708H117.578V45.3912H118.055V42.5708Z" fill="#EBEBEB"/>
<path d="M125.256 40.5323L124.844 40.7705L126.254 43.213L126.667 42.9748L125.256 40.5323Z" fill="#EBEBEB"/>
<path d="M130.453 35.1397L130.215 35.5522L132.657 36.9624L132.896 36.5498L130.453 35.1397Z" fill="#EBEBEB"/>
<path d="M135.092 27.8843H132.266V28.3607H135.092V27.8843Z" fill="#EBEBEB"/>
<path d="M133.219 19.4643L130.766 20.8745L131.004 21.289L133.458 19.8788L133.219 19.4643Z" fill="#EBEBEB"/>
<path d="M126.249 13.0484L124.84 15.4917L125.253 15.7297L126.661 13.2864L126.249 13.0484Z" fill="#EBEBEB"/>
<path d="M120.576 22.1453L112.406 38.208L112.831 38.424L121.001 22.3613L120.576 22.1453Z" fill="#EBEBEB"/>
<path d="M116.861 21.7176L116.238 21.8423L119.722 39.2451L120.345 39.1204L116.861 21.7176Z" fill="#DBDBDB"/>
<path d="M230.049 108.996L229.007 190.755L228.391 238.949L199.133 238.365L204.856 107.363L205.148 92.3657H229.852L230.049 108.996Z" fill="#50B4B7"/>
<path d="M213.39 114.045C213.39 114.032 213.385 114.019 213.375 114.01C213.366 114 213.353 113.995 213.339 113.995C213.326 113.995 213.313 114 213.303 114.01C213.294 114.019 213.288 114.032 213.288 114.045C213.288 121.7 213.047 129.348 212.863 136.996C212.679 144.644 212.456 152.286 212.228 159.934C211.815 175.223 211.199 190.5 210.633 205.778C210.316 214.349 209.92 222.918 209.445 231.485C209.445 231.542 209.534 231.536 209.541 231.485C210.646 216.24 211.713 200.95 212.316 185.654C212.92 170.358 213.358 155.087 213.434 139.791C213.492 131.203 213.371 122.634 213.39 114.045Z" fill="#263238"/>
<path d="M230.049 108.996L229.008 190.755L209.398 92.3657H229.852L230.049 108.996Z" fill="#263238"/>
<path d="M207.656 92.3398C207.764 92.848 209.492 100.864 211.283 107.75C212.586 112.781 213.926 117.202 214.694 117.66C215.565 118.174 219.808 120.054 221.231 120.645L227.723 182.738L236.406 238.625L265.626 237.1L244.798 109.929L241.488 92.3398H207.656Z" fill="#50B4B7"/>
<path d="M253.318 217.37C252.6 213.381 251.889 209.385 251.152 205.403C249.687 197.42 248.204 189.444 246.705 181.474C243.703 165.504 240.739 149.531 237.812 133.553C236.173 124.526 236.218 125.378 234.782 116.313C234.782 116.25 234.668 116.262 234.681 116.313C236.053 124.361 235.405 122.595 236.701 130.663C237.997 138.73 239.356 146.626 240.785 154.591C243.656 170.593 246.667 186.568 249.678 202.538C250.525 207.01 251.391 211.484 252.276 215.96C253.172 220.521 254.182 225.05 255.122 229.604C255.122 229.706 255.306 229.693 255.287 229.604C254.646 225.539 254.042 221.442 253.318 217.37Z" fill="#263238"/>
<path d="M245.407 116.917C244.639 116.727 243.826 116.663 243.044 116.536C242.409 116.441 241.774 116.327 241.139 116.193C239.945 115.975 238.813 115.498 237.823 114.796C236.743 113.951 236.197 112.68 235.67 111.454C235.365 110.724 235.034 110 234.717 109.282C234.564 108.93 234.405 108.581 234.24 108.234C234.019 107.822 233.821 107.398 233.65 106.963C233.65 106.906 233.529 106.963 233.554 106.963C233.662 107.258 233.751 107.559 233.821 107.865C233.929 108.215 234.031 108.571 234.139 108.92C234.329 109.555 234.52 110.19 234.723 110.794C235.039 111.937 235.486 113.039 236.057 114.078C237.207 115.914 239.265 116.619 241.329 116.911C241.92 116.987 242.511 117.032 243.108 117.063C243.856 117.13 244.609 117.13 245.357 117.063C245.37 117.057 245.381 117.049 245.391 117.038C245.401 117.027 245.408 117.015 245.413 117.001C245.418 116.987 245.42 116.973 245.419 116.959C245.418 116.944 245.414 116.93 245.407 116.917Z" fill="#263238"/>
<path d="M212.438 116.561C215.458 117.664 218.376 119.026 221.16 120.633C221.274 120.697 221.198 120.868 221.083 120.817C218.136 119.547 215.131 118.34 212.254 116.911C212.231 116.899 212.211 116.882 212.194 116.862C212.177 116.842 212.165 116.819 212.157 116.794C212.15 116.77 212.147 116.744 212.149 116.718C212.152 116.692 212.159 116.667 212.171 116.644C212.183 116.621 212.2 116.601 212.22 116.584C212.24 116.568 212.263 116.555 212.288 116.547C212.312 116.54 212.338 116.537 212.364 116.539C212.39 116.542 212.415 116.549 212.438 116.561Z" fill="#263238"/>
<path d="M211.553 96.38C211.553 96.2783 211.737 96.2529 211.737 96.38C211.735 99.6682 211.9 102.954 212.233 106.226C212.366 107.744 213.592 116.135 216.222 115.519C216.66 115.417 216.857 114.986 216.959 114.319C216.943 113.461 216.826 112.608 216.609 111.778C216.317 110.024 216.082 108.265 215.93 106.486C215.623 103.184 215.659 99.8589 216.038 96.5642C216.038 96.5423 216.046 96.5213 216.062 96.5058C216.077 96.4903 216.098 96.4816 216.12 96.4816C216.142 96.4816 216.163 96.4903 216.179 96.5058C216.194 96.5213 216.203 96.5423 216.203 96.5642C216.128 101.143 216.398 105.721 217.01 110.26C217.334 112.445 218.433 115.729 216.152 116.065C213.872 116.402 212.341 110.901 212.042 109.402C211.311 105.101 211.147 100.723 211.553 96.38Z" fill="#263238"/>
<path d="M216.154 115.729C216.386 116.297 216.583 116.878 216.745 117.47C216.915 117.927 216.999 118.411 216.992 118.899C216.989 118.919 216.979 118.937 216.965 118.951C216.951 118.966 216.933 118.976 216.913 118.98C216.893 118.984 216.873 118.982 216.854 118.974C216.836 118.967 216.82 118.954 216.808 118.937C216.528 118.508 216.314 118.039 216.173 117.546C215.97 117.006 215.76 116.472 215.576 115.932C215.563 115.894 215.557 115.854 215.559 115.814C215.561 115.774 215.571 115.735 215.589 115.698C215.606 115.662 215.63 115.63 215.66 115.603C215.69 115.576 215.725 115.555 215.763 115.542C215.801 115.528 215.842 115.523 215.882 115.525C215.922 115.527 215.961 115.537 215.997 115.555C216.034 115.572 216.066 115.596 216.093 115.626C216.12 115.656 216.141 115.691 216.154 115.729Z" fill="#263238"/>
<path d="M204.852 107.388L211.286 107.801L230.051 108.995L244.794 109.929L241.485 92.3398H207.653H205.112L204.852 107.388Z" fill="#263238"/>
<path d="M216.445 56.2598C215.314 60.8842 206.217 81.9735 206.281 83.5742C206.281 83.9426 208.136 83.8474 208.32 84.4318C209.089 86.7821 201.879 104.213 199.217 104.848C191.379 106.614 181.971 107.909 182.111 101.481C182.333 91.3938 199.084 66.112 208.155 57.2825C214.17 51.4893 217.556 51.6926 216.445 56.2598Z" fill="#AD6359"/>
<path d="M216.301 60.3821C214.148 66.1563 211.143 74.5983 211.143 74.5983L204.791 73.3787L194.57 71.4095C194.57 71.4095 203.425 59.8549 211.562 53.7949C215.71 50.7077 217.451 50.8094 217.915 52.3657C218.41 54.0299 217.394 57.4411 216.301 60.3821Z" fill="#50B4B7"/>
<path d="M216.299 60.3822C214.146 66.1563 211.141 74.5984 211.141 74.5984L204.789 73.3788L217.906 52.3721C218.408 54.03 217.392 57.4411 216.299 60.3822Z" fill="#263238"/>
<path d="M211.592 70.7809C207.119 69.7456 202.582 69.0072 198.011 68.5703C197.947 68.5703 197.941 68.6592 198.011 68.6656C199.281 68.8117 205.634 70.1647 211.592 70.8889C211.63 70.8952 211.662 70.7999 211.592 70.7809Z" fill="#263238"/>
<path d="M247.019 105.483C246.918 105.597 202.973 105.731 202.554 105.28C201.995 104.644 211.917 57.0348 216.427 51.1527C217.393 49.8822 220.575 49.5455 223.281 49.8822C223.987 49.9625 224.684 50.1049 225.365 50.3078H225.435C225.984 50.4678 226.502 50.7214 226.965 51.0574C234.493 57.0665 236.494 62.9169 238.399 67.7954C239.791 71.4098 241.448 77.5651 242.928 83.8728C245.387 94.3095 247.381 105.095 247.019 105.483Z" fill="#50B4B7"/>
<path opacity="0.1" d="M222.792 70.3677H230.656V69.0972H222.792V70.3677Z" fill="#263238"/>
<path d="M242.935 83.9169L223.301 49.9072C224.006 49.9875 224.704 50.1299 225.384 50.3328H225.454C226.004 50.4928 226.522 50.7464 226.985 51.0824C234.512 57.0916 236.513 62.9419 238.419 67.8204C239.797 71.4539 241.487 77.6092 242.935 83.9169Z" fill="#263238"/>
<path d="M227.861 57.6443C230.751 61.4556 246.702 75.1891 247.267 76.6501C247.833 78.1111 242.878 83.466 242.948 84.0758C243.227 86.5532 248.322 102.453 250.431 100.719C253.206 98.4445 265.993 82.5957 264.139 75.7735C262.284 68.9512 233.896 53.1216 229.418 51.7939C224.939 50.4663 225.003 53.9092 227.861 57.6443Z" fill="#AD6359"/>
<path d="M241.296 104.847C239.81 103.577 242.173 102.548 242.173 102.548C242.173 102.548 238.418 103.183 237.396 101.277C236.373 99.3718 239.301 98.2983 239.517 98.2157C239.321 98.2475 235.852 98.7493 235.026 96.7229C234.201 94.6966 237.269 93.9788 237.466 93.9343C237.269 93.9343 234.664 93.4897 234.385 91.8063C233.908 88.9097 241.461 89.4687 243.278 87.9442C243.278 87.9442 242.986 84.1329 242.941 84.0503C243.326 84.9335 243.997 85.6609 244.847 86.1148C246.416 86.75 247.852 87.201 248.417 88.0585C248.679 88.4327 248.815 88.8805 248.806 89.3373C248.797 89.794 248.643 90.236 248.366 90.5994C248.366 90.5994 250.443 90.5994 251.148 92.1811C251.51 92.9878 250.513 94.2837 250.513 94.2837C250.985 94.306 251.441 94.4593 251.83 94.7263C252.219 94.9934 252.527 95.3636 252.717 95.7955C253.149 96.9453 252.082 98.0696 252.082 98.0696C252.082 98.0696 253.651 98.8763 253.715 100.198C253.905 102.904 244.485 107.611 241.296 104.847Z" fill="#AD6359"/>
<path d="M250.617 94.335C250.649 94.335 250.687 94.3667 250.655 94.3985C247.518 97.0171 243.549 98.4295 239.462 98.3813C239.316 98.3813 239.196 98.2225 239.361 98.2225C242.124 98.1272 247.708 96.1072 250.617 94.335Z" fill="#263238"/>
<path d="M237.182 93.8518C241.177 93.8518 244.772 92.5814 248.279 90.7583C248.33 90.7583 248.355 90.7964 248.323 90.8282C246.85 92.1939 244.512 93.134 242.606 93.7057C240.856 94.2723 238.988 94.3709 237.188 93.9916C237.112 93.9725 237.099 93.8518 237.182 93.8518Z" fill="#263238"/>
<path d="M252.285 98.1208C252.648 97.8255 252.923 97.4355 253.079 96.9938C253.235 96.5522 253.266 96.076 253.168 95.618C253.031 95.1825 252.743 94.8106 252.355 94.5699C251.881 94.3431 251.361 94.232 250.837 94.2459C251.171 93.873 251.384 93.408 251.45 92.9117C251.516 92.4153 251.43 91.9107 251.205 91.4637C250.939 91.0753 250.538 90.7993 250.081 90.6887C249.551 90.5773 249.008 90.5367 248.467 90.568C248.709 90.3288 248.893 90.0371 249.004 89.7155C249.116 89.3938 249.151 89.0509 249.109 88.7132C249.051 88.3402 248.906 87.9862 248.686 87.6803C248.465 87.3744 248.174 87.1253 247.838 86.9536C247.048 86.5654 246.217 86.2671 245.361 86.0643C244.918 85.9479 244.491 85.7773 244.091 85.5561C243.735 85.3402 243.233 84.9209 243.182 84.4953C243.182 84.4064 243.042 84.4636 243.087 84.4953C243.296 84.7685 243.424 85.0861 243.659 85.3402C243.9 85.5985 244.173 85.8248 244.472 86.0135C245.225 86.4021 246.006 86.7333 246.809 87.0044C247.507 87.2818 248.096 87.7791 248.486 88.421C248.657 88.7588 248.73 89.1374 248.697 89.5143C248.664 89.8912 248.528 90.2517 248.302 90.5553C248.302 90.5553 248.302 90.6379 248.353 90.6379C248.835 90.689 249.309 90.7999 249.763 90.9682C250.142 91.1159 250.468 91.375 250.697 91.7114C250.897 92.1222 250.986 92.5783 250.955 93.0342C250.924 93.4901 250.773 93.9299 250.519 94.3095C251.033 94.4129 251.525 94.6042 251.974 94.8748C252.265 95.0977 252.485 95.3999 252.609 95.7451C252.747 96.1396 252.773 96.565 252.684 96.9734C252.594 97.3819 252.392 97.7572 252.101 98.0573C252.098 98.0622 252.097 98.0677 252.097 98.0731C252.097 98.0786 252.098 98.084 252.101 98.089C252.101 98.089 252.602 98.3685 252.628 98.3749C252.653 98.3812 252.628 98.3749 252.628 98.3431C252.517 98.2635 252.403 98.1894 252.285 98.1208Z" fill="#263238"/>
<path d="M253.068 64.4925L240.853 74.7195C240.853 74.7195 232.277 64.4353 228.606 59.4742C225.055 54.6783 221.364 47.8942 231.147 51.8516C240.542 55.6121 253.068 64.4925 253.068 64.4925Z" fill="#50B4B7"/>
<path d="M249.931 62.9238C246.287 65.7254 242.831 68.7619 239.583 72.0138C239.532 72.0583 239.583 72.1282 239.653 72.0837C240.58 71.1817 245.662 67.1353 250.001 63.0064C250.058 62.9619 249.982 62.9238 249.931 62.9238Z" fill="#263238"/>
<path d="M215.308 51.9912C215.397 52.9169 215.567 53.8331 215.816 54.729C216.034 55.6257 216.318 56.5048 216.668 57.3588C216.981 58.2011 217.444 58.9801 218.033 59.6583C218.174 59.805 218.334 59.9311 218.51 60.0331C218.591 60.0809 218.679 60.1172 218.77 60.1411H218.846H218.961C219.376 60.0165 219.775 59.8415 220.149 59.6202C221.733 58.6895 223.19 57.5555 224.481 56.2472C225.141 55.5986 225.765 54.9136 226.348 54.1954C226.984 53.4903 227.511 52.7408 228.057 51.9849C227.183 53.6485 226.101 55.194 224.836 56.5839C223.577 58.004 222.099 59.2154 220.46 60.1728C220.029 60.4223 219.568 60.6165 219.088 60.7509C219.01 60.7578 218.931 60.7578 218.853 60.7509C218.761 60.7502 218.671 60.733 218.586 60.7001C218.454 60.6582 218.326 60.6028 218.205 60.5349C217.968 60.4046 217.754 60.2373 217.57 60.0395C216.942 59.2942 216.471 58.43 216.185 57.4986C215.565 55.73 215.269 53.8647 215.308 51.9912Z" fill="#263238"/>
<path d="M229.198 54.4175C228.766 50.7395 224.116 50.2314 221.308 50.2568C217.757 50.2949 214.785 51.0635 213.686 54.7033C212.587 58.3431 212.53 62.2815 212.568 66.0039C212.553 66.1378 212.49 66.2616 212.39 66.3516C212.289 66.4416 212.159 66.4913 212.025 66.4913C211.89 66.4913 211.76 66.4416 211.66 66.3516C211.559 66.2616 211.496 66.1378 211.482 66.0039C211.443 61.7161 210.954 53.6489 214.766 50.7586C218.577 47.8684 229.515 48.1606 230.246 54.3921C230.328 55.0781 229.249 55.1035 229.166 54.3921L229.198 54.4175Z" fill="#37474F"/>
<path d="M214.572 68.1469C214.624 66.7761 213.554 65.6234 212.183 65.5721C210.812 65.5209 209.66 66.5906 209.608 67.9614C209.557 69.3321 210.627 70.4849 211.998 70.5361C213.368 70.5873 214.521 69.5176 214.572 68.1469Z" fill="#A6A6A6"/>
<path d="M210.61 68.0943C210.616 68.391 210.711 68.6791 210.881 68.9221C211.051 69.1652 211.29 69.3522 211.566 69.4596C211.843 69.567 212.145 69.5899 212.435 69.5253C212.724 69.4608 212.988 69.3118 213.193 69.0971C213.398 68.8824 213.535 68.6118 213.585 68.3195C213.636 68.0272 213.599 67.7263 213.479 67.455C213.359 67.1837 213.161 66.9541 212.91 66.7954C212.66 66.6367 212.368 66.556 212.071 66.5635C211.874 66.5676 211.68 66.6105 211.5 66.6898C211.321 66.769 211.158 66.883 211.022 67.0253C210.886 67.1675 210.78 67.3352 210.709 67.5187C210.639 67.7021 210.605 67.8978 210.61 68.0943Z" fill="#EBEBEB"/>
<path d="M227.642 66.481C226.861 77.1781 227.743 79.5919 228.811 80.6082C229.605 81.3053 230.548 81.8116 231.567 82.0883L231.752 81.3578C230.861 81.1188 230.034 80.6849 229.331 80.0874C228.557 79.3505 227.623 77.1526 228.391 66.5572L227.642 66.481Z" fill="#EBEBEB"/>
<path d="M230.581 81.2488L230.519 81.4357C230.396 81.8053 230.597 82.2043 230.966 82.3268L232.106 82.7046C232.475 82.8271 232.874 82.6268 232.997 82.2572L233.059 82.0703C233.181 81.7006 232.981 81.3017 232.611 81.1791L231.472 80.8014C231.102 80.6788 230.703 80.8791 230.581 81.2488Z" fill="#A6A6A6"/>
<path d="M234.344 65.4641C237.806 72.7691 239.082 76.898 238.358 78.4162C237.928 79.2345 237.32 79.9464 236.58 80.4997L237.012 81.1349C237.864 80.5086 238.56 79.6932 239.044 78.7529C239.902 76.9361 238.739 72.9978 235.023 65.1655L234.344 65.4641Z" fill="#EBEBEB"/>
<path d="M235.629 81.6498L235.754 81.8016C236.002 82.1018 236.447 82.1442 236.747 81.8962L237.672 81.1315C237.973 80.8835 238.015 80.4391 237.767 80.1389L237.641 79.9871C237.393 79.6868 236.949 79.6445 236.649 79.8925L235.723 80.6571C235.423 80.9052 235.381 81.3496 235.629 81.6498Z" fill="#A6A6A6"/>
<path d="M235.215 64.7906C234.557 63.1537 233.8 61.5585 232.948 60.0137C232.491 59.3449 231.861 58.8133 231.125 58.4765C230.972 58.4765 230.794 57.206 230.674 56.1071C230.566 55.1606 230.464 54.0617 230.184 53.8013C230.028 53.6872 229.834 53.638 229.642 53.664C229.45 53.6901 229.276 53.7893 229.155 53.941C228.952 54.265 229.155 55.3575 229.289 56.2977C229.448 57.3648 229.619 58.667 229.473 58.6988C228.897 59.2429 228.461 59.9186 228.203 60.668C227.793 62.4275 227.517 64.2154 227.377 66.0165C227.345 67.1536 227.733 67.2234 228.063 67.287C228.533 67.3505 228.762 67.0011 228.882 65.7243C229.073 63.7043 229.168 60.3504 230.502 60.109C231.849 59.9947 233.043 63.2851 233.805 65.1336C234.294 66.277 234.568 66.3405 235.006 66.1563C235.317 66.0102 235.622 65.8133 235.215 64.7906Z" fill="#A6A6A6"/>
<path d="M219.007 58.1147C219.737 58.1147 224.724 54.5765 226.318 51.718C226.426 51.5211 226.153 49.4376 225.931 46.884C225.804 45.3404 225.702 43.6126 225.721 42.0309C225.721 41.707 224.609 42.2914 224.609 42.2914L222.558 42.7614L215.773 44.3241C216.315 46.309 216.611 48.3526 216.656 50.4095C216.65 50.6227 216.626 50.8351 216.587 51.0447C216.583 51.0806 216.583 51.1168 216.587 51.1527C216.351 52.3977 217.825 58.1083 219.007 58.1147Z" fill="#AD6359"/>
<path d="M216.588 51.0573C216.585 51.0932 216.585 51.1293 216.588 51.1652C216.925 51.2157 217.265 51.2391 217.605 51.2351C224.287 51.1589 225.227 42.6787 225.227 42.6787L222.585 42.7613L215.801 44.3239C216.342 46.3088 216.639 48.3525 216.684 50.4093C216.669 50.6275 216.637 50.8441 216.588 51.0573Z" fill="#263238"/>
<path d="M226.054 28.622C227.509 32.0014 226.772 42.3046 224.53 44.8328C221.284 48.4917 215.414 49.4508 212.168 45.4236C208.992 41.5169 210.212 28.1075 212.765 25.7317C216.526 22.2698 223.913 23.6355 226.054 28.622Z" fill="#AD6359"/>
<path d="M218.13 35.812C218.13 35.812 218.187 35.8501 218.18 35.8819C218.111 36.5743 218.149 37.3747 218.765 37.6478C218.765 37.6478 218.765 37.6923 218.765 37.6859C217.983 37.5144 217.983 36.4599 218.13 35.812Z" fill="#263238"/>
<path d="M218.802 35.1323C219.92 35.1323 219.863 37.3683 218.802 37.3746C217.741 37.381 217.862 35.1387 218.802 35.1323Z" fill="#263238"/>
<path d="M214.101 35.8184C214.101 35.8184 214.044 35.8184 214.044 35.8755C214.044 36.5743 213.936 37.3683 213.301 37.5843C213.301 37.5843 213.301 37.6287 213.301 37.6224C214.076 37.5144 214.216 36.479 214.101 35.8184Z" fill="#263238"/>
<path d="M213.499 35.075C212.387 34.9607 212.228 37.1967 213.27 37.3047C214.312 37.4126 214.439 35.1703 213.499 35.075Z" fill="#263238"/>
<path d="M219.721 34.1288C219.427 34.0347 219.139 33.9245 218.857 33.7985C218.537 33.7275 218.251 33.5507 218.044 33.2966C217.993 33.2051 217.974 33.0991 217.99 32.9955C218.006 32.8919 218.056 32.7967 218.133 32.725C218.305 32.6038 218.507 32.5316 218.718 32.5159C218.928 32.5003 219.138 32.5418 219.327 32.636C219.736 32.7654 220.082 33.0414 220.299 33.411C220.345 33.4977 220.364 33.5959 220.355 33.6934C220.345 33.791 220.307 33.8837 220.246 33.96C220.184 34.0363 220.102 34.093 220.009 34.123C219.915 34.153 219.815 34.155 219.721 34.1288Z" fill="#263238"/>
<path d="M212.666 33.9197C212.977 33.8752 213.256 33.7863 213.561 33.7164C213.888 33.6853 214.195 33.5494 214.438 33.3289C214.502 33.2463 214.537 33.1446 214.537 33.0399C214.537 32.9352 214.502 32.8335 214.438 32.7509C214.285 32.6077 214.096 32.5085 213.892 32.4638C213.687 32.4191 213.474 32.4305 213.276 32.4968C212.85 32.5651 212.467 32.7921 212.202 33.132C212.149 33.2114 212.12 33.3041 212.117 33.3994C212.115 33.4947 212.139 33.5888 212.187 33.6709C212.236 33.7531 212.306 33.82 212.391 33.864C212.475 33.9079 212.571 33.9273 212.666 33.9197Z" fill="#263238"/>
<path d="M217.926 40.1822C217.741 40.4533 217.503 40.6835 217.225 40.8584C216.948 41.0332 216.637 41.149 216.313 41.1985C216.03 41.2367 215.744 41.2367 215.461 41.1985C215.406 41.2051 215.351 41.2051 215.296 41.1985H215.15C215.113 41.1905 215.079 41.1708 215.054 41.1422C215.029 41.1136 215.014 41.0777 215.01 41.0397C215.007 41.0165 215.007 40.9931 215.01 40.9699V40.9063C215.01 40.3727 215.087 39.5597 215.087 39.5597C214.89 39.655 213.88 40.0742 213.899 39.7947C214.027 37.3829 214.402 34.9905 215.017 32.6548C215.017 32.638 215.023 32.6218 215.035 32.6099C215.047 32.598 215.063 32.5913 215.08 32.5913C215.097 32.5913 215.113 32.598 215.125 32.6099C215.137 32.6218 215.144 32.638 215.144 32.6548C215.036 34.8845 214.54 37.1014 214.394 39.3183C214.756 39.1663 215.136 39.0638 215.525 39.0134C215.601 39.0134 215.353 40.5824 215.372 40.8174C215.811 40.8741 216.257 40.8415 216.683 40.7214C217.108 40.6013 217.505 40.3963 217.85 40.1187C217.913 40.0551 217.983 40.1314 217.926 40.1822Z" fill="#263238"/>
<path d="M215.789 40.9512C216.072 41.3412 216.45 41.6518 216.888 41.8533C217.131 41.9533 217.399 41.9776 217.657 41.9231C218.216 41.7897 218.241 41.2879 218.152 40.8433C218.104 40.6102 218.027 40.384 217.923 40.1699C217.314 40.6515 216.566 40.9253 215.789 40.9512Z" fill="#263238"/>
<path d="M216.883 41.8528C217.126 41.9528 217.394 41.9772 217.651 41.9226C218.21 41.7893 218.236 41.2874 218.147 40.8428C217.853 40.845 217.569 40.9458 217.34 41.129C217.111 41.3122 216.95 41.5671 216.883 41.8528Z" fill="#FF99BA"/>
<path d="M225.607 36.4088C223.237 36.3008 222.958 31.9622 222.958 31.9622C222.958 31.9622 218.918 31.1237 218.454 28.0366C218.454 28.0366 214.49 30.3424 211.467 29.1101C208.443 27.8778 209.256 24.473 209.625 23.7552C209.993 23.0374 211.632 24.4857 211.632 24.4857C211.632 24.4857 211.905 22.58 212.432 22.3768C212.96 22.1735 213.474 23.3995 213.474 23.3995C215.92 22.7275 218.453 22.4256 220.989 22.5038C224.533 22.7515 226.14 26.404 226.14 26.404C226.14 26.404 228.046 26.8868 228.58 28.2462C229.113 29.6056 227.106 36.4786 225.607 36.4088Z" fill="#263238"/>
<path d="M223.903 32.0514C220.727 32.3372 218.739 30.1457 218.409 27.1221H218.352C218.352 29.9297 220.816 33.1694 223.929 32.2038C223.949 32.2005 223.967 32.1892 223.979 32.1725C223.991 32.1558 223.996 32.1351 223.992 32.1149C223.989 32.0947 223.978 32.0766 223.961 32.0647C223.944 32.0528 223.924 32.048 223.903 32.0514Z" fill="#263238"/>
<path d="M226.07 26.3472C226.032 26.3472 226.013 26.3916 226.07 26.4043C226.934 26.8553 227.931 27.1984 228.516 28.0305C229.221 29.0278 229.005 30.2982 228.681 31.3845C228.147 33.0678 227.182 35.2529 225.606 36.1931C225.592 36.2058 225.582 36.2231 225.579 36.2421C225.576 36.2611 225.58 36.2806 225.59 36.2972C225.599 36.3138 225.615 36.3264 225.633 36.3329C225.651 36.3394 225.671 36.3394 225.689 36.3328C227.595 35.3292 228.751 32.5215 229.094 30.4952C229.475 28.2592 228.147 26.9189 226.07 26.3472Z" fill="#263238"/>
<path d="M214.961 28.7926C214.212 29.1875 213.368 29.3696 212.523 29.3192C211.677 29.2688 210.862 28.9878 210.165 28.5068C208.558 27.2808 208.99 25.3878 209.777 23.8315C209.816 23.7553 209.701 23.6664 209.65 23.7363C208.609 25.0956 208.437 27.2173 209.746 28.475C211.054 29.7327 213.519 29.8407 215.088 28.9832C215.221 28.9133 215.094 28.7164 214.961 28.7926Z" fill="#263238"/>
<path d="M224.799 37.095C224.799 37.095 226.794 33.6204 228.35 34.3C229.906 34.9797 228.61 39.8836 226.927 40.6904C226.718 40.8081 226.487 40.8824 226.249 40.9087C226.01 40.9349 225.769 40.9127 225.539 40.8432C225.31 40.7738 225.096 40.6586 224.912 40.5046C224.728 40.3506 224.578 40.161 224.469 39.9472L224.799 37.095Z" fill="#AD6359"/>
<path d="M227.946 35.6978C227.978 35.6978 227.984 35.6978 227.946 35.7422C226.771 36.3774 226.225 37.5399 225.882 38.7532C225.943 38.6248 226.03 38.5112 226.139 38.42C226.248 38.3288 226.375 38.2622 226.512 38.2248C226.649 38.1874 226.793 38.18 226.933 38.2032C227.073 38.2265 227.206 38.2797 227.324 38.3593C227.324 38.3593 227.324 38.4292 227.324 38.4228C227.102 38.3747 226.871 38.3958 226.662 38.4833C226.453 38.5708 226.276 38.7204 226.155 38.912C225.956 39.2348 225.793 39.5776 225.666 39.9347C225.621 40.049 225.418 40.0109 225.45 39.8775C225.272 38.2958 226.288 36.0027 227.946 35.6978Z" fill="#263238"/>
<path d="M218.739 66.4273L193.922 72.7578L202.162 105.06L226.979 98.7293L218.739 66.4273Z" fill="#455A64"/>
<path d="M200.835 73.0167L212.594 70.002L211.68 66.4393L199.922 69.454L200.835 73.0167Z" fill="#EBEBEB"/>
<path d="M202.592 68.7733L204.041 68.3986L203.621 66.7533L207.141 65.8513L207.56 67.4965L209.008 67.1281L208.239 64.1299L201.805 65.7815L202.592 68.7733Z" fill="#EBEBEB"/>
<path d="M211.457 80.4173C211.834 80.8038 212.083 81.2965 212.172 81.8292C212.26 82.3618 212.184 82.9088 211.952 83.3965C212.852 83.5831 213.658 84.0772 214.233 84.794C215.179 86.1025 213.54 88.167 213.54 88.167C214.432 88.5531 215.187 89.1996 215.706 90.0218C216.488 91.3622 215.135 93.6807 215.135 93.6807C215.757 94.4894 216.068 95.4949 216.011 96.5138C215.751 99.2262 212.022 101.081 209.659 102.288C207.296 103.495 199.495 104.708 198.022 105.089L190.164 90.0282C190.164 90.0282 199.191 81.6179 202.163 80.5952C204.647 79.7313 209.957 78.9944 211.457 80.4173Z" fill="#AD6359"/>
<path d="M211.719 83.2125C208.835 83.492 206.193 84.6036 203.493 85.5691C203.436 85.5691 203.493 85.6835 203.531 85.658C206.205 84.6735 209.038 84.2288 211.751 83.3458C211.766 83.3391 211.777 83.3275 211.785 83.313C211.792 83.2984 211.794 83.2818 211.79 83.2661C211.786 83.2503 211.777 83.2364 211.764 83.2266C211.751 83.2168 211.735 83.2118 211.719 83.2125Z" fill="#263238"/>
<path d="M213.387 87.9956C212.739 88.1243 212.111 88.3378 211.52 88.6308C210.872 88.9061 210.236 89.1855 209.614 89.4693C208.344 90.0452 207.073 90.655 205.803 91.2987C205.752 91.2987 205.803 91.4194 205.841 91.394C207.111 90.8138 208.394 90.2633 209.69 89.7424C210.325 89.482 210.961 89.2279 211.64 88.9802C212.27 88.78 212.877 88.5139 213.451 88.1861C213.472 88.175 213.489 88.1566 213.498 88.1341C213.507 88.1116 213.508 88.0866 213.501 88.0636C213.493 88.0406 213.477 88.0211 213.456 88.0086C213.436 87.9961 213.411 87.9915 213.387 87.9956Z" fill="#263238"/>
<path d="M215.074 93.7057C214.49 93.8174 213.931 94.0325 213.423 94.3409L211.688 95.154C210.532 95.6939 209.376 96.2339 208.201 96.7293C208.191 96.733 208.183 96.7395 208.177 96.748C208.171 96.7565 208.168 96.7666 208.168 96.777C208.168 96.7874 208.171 96.7975 208.177 96.806C208.183 96.8145 208.191 96.821 208.201 96.8246C209.395 96.3228 210.602 95.84 211.79 95.3319L213.543 94.5696C214.098 94.3854 214.616 94.106 215.074 93.7438C215.074 93.7438 215.1 93.6993 215.074 93.7057Z" fill="#263238"/>
<path d="M197.09 83.8853C196.512 84.1996 195.967 84.5721 195.464 84.9969C194.937 85.3971 194.422 85.81 193.914 86.2229C192.904 87.0359 191.9 87.8681 190.954 88.7637C190.008 89.6594 189.086 90.5614 188.191 91.4888L187.556 92.1241L187.282 92.3019C186.895 92.556 186.52 92.8164 186.164 93.1023C185.473 93.6623 184.82 94.2671 184.208 94.9127C184.202 94.9224 184.2 94.9339 184.201 94.9452C184.202 94.9565 184.207 94.9671 184.215 94.9751C184.223 94.9832 184.234 94.9883 184.245 94.9897C184.257 94.991 184.268 94.9885 184.278 94.9825C184.931 94.3677 185.63 93.8028 186.368 93.2929L186.654 93.0959C186.304 93.4834 185.961 93.8836 185.644 94.2965C184.785 95.3915 183.996 96.5393 183.281 97.733C183.249 97.7902 183.331 97.8347 183.369 97.7839C184.684 95.6686 186.546 93.9217 188.362 92.2193C190.179 90.5169 191.996 88.6176 193.863 86.8708C194.397 86.369 194.943 85.8798 195.502 85.4098C196.081 84.9649 196.637 84.4899 197.166 83.9869C197.224 83.9234 197.154 83.8853 197.09 83.8853Z" fill="#263238"/>
<path d="M100.149 238.365L70.8906 238.949L71.5258 184.689L71.5513 182.764L71.6148 177.371L72.4088 108.996L72.6057 92.3662H97.3094L97.6016 107.364L98.9356 175.987L100.149 238.365Z" fill="#50B4B7"/>
<path d="M90.3462 97.5372C90.0413 114.885 90.0794 132.246 90.0985 149.625C90.1175 167.005 90.1557 184.245 90.2446 201.554C90.2891 211.318 90.2446 221.087 90.4606 230.844C90.4606 231.251 91.0958 231.213 91.0958 230.806C91.153 222.11 91.0577 213.408 91.0259 204.705C90.9942 196.003 90.9878 187.306 90.9624 178.604C90.92 161.296 90.865 143.989 90.7972 126.681C90.7464 116.969 90.7147 107.262 90.5241 97.5499C90.5177 97.4101 90.3462 97.4228 90.3462 97.5372Z" fill="#263238"/>
<path d="M94.103 92.3662L71.5273 184.689L72.6072 92.3662H94.103Z" fill="#263238"/>
<path d="M94.7981 92.3408C94.6901 92.849 92.9623 100.865 91.171 107.751C89.8688 112.782 88.5285 117.203 87.7599 117.661C86.8896 118.175 82.6464 120.055 81.2235 120.646L72.4003 177.308L71.5554 182.739L62.8529 238.6L33.6328 237.076L44.6539 178.712L57.6568 109.93L60.9854 92.3154L94.7981 92.3408Z" fill="#50B4B7"/>
<path d="M68.1792 98.1149C66.661 106.665 64.9523 115.19 63.3769 123.733C61.8016 132.277 60.2008 140.821 58.6128 149.364C55.4494 166.371 52.25 183.368 49.0146 200.354C47.1915 209.92 45.3303 219.474 43.5708 229.053C43.52 229.32 43.9265 229.428 43.9837 229.154C47.4901 212.137 50.6852 195.049 53.9122 177.968C57.1391 160.887 60.2644 143.959 63.2944 126.928C65.0095 117.343 66.5594 107.726 68.2745 98.1403C68.2872 98.0768 68.1919 98.0514 68.1792 98.1149Z" fill="#263238"/>
<path d="M90.0113 116.562C86.983 117.663 84.0563 119.025 81.2643 120.633C81.243 120.646 81.227 120.666 81.2195 120.69C81.2121 120.714 81.2135 120.739 81.2237 120.762C81.2339 120.785 81.2521 120.803 81.2748 120.813C81.2975 120.824 81.3232 120.825 81.3469 120.818C84.2943 119.547 87.2989 118.34 90.1701 116.911C90.2164 116.89 90.2525 116.851 90.2704 116.804C90.2883 116.756 90.2865 116.703 90.2654 116.657C90.2443 116.611 90.2058 116.575 90.1581 116.557C90.1104 116.539 90.0576 116.541 90.0113 116.562Z" fill="#263238"/>
<path d="M90.8988 96.3805C90.8988 96.2788 90.7083 96.2534 90.7146 96.3805C90.7146 99.8805 90.5114 102.961 90.2192 106.226C90.0794 107.745 88.8598 116.136 86.23 115.52C85.7853 115.418 85.563 114.986 85.4931 114.319C85.5061 113.461 85.6234 112.608 85.8425 111.778C86.1347 110.025 86.3697 108.265 86.5222 106.487C86.8261 103.184 86.7899 99.8596 86.4142 96.5647C86.409 96.5459 86.3978 96.5293 86.3824 96.5175C86.3669 96.5057 86.3479 96.4993 86.3284 96.4993C86.3089 96.4993 86.29 96.5057 86.2745 96.5175C86.259 96.5293 86.2478 96.5459 86.2427 96.5647C86.3226 101.143 86.055 105.722 85.4423 110.26C85.112 112.445 84.0131 115.729 86.2935 116.066C88.5739 116.403 90.1048 110.902 90.4097 109.402C91.1344 105.101 91.2988 100.724 90.8988 96.3805Z" fill="#263238"/>
<path d="M86.2997 115.73C86.0622 116.295 85.8648 116.877 85.709 117.47C85.5392 117.927 85.4552 118.412 85.4612 118.899C85.4612 118.988 85.5946 119.001 85.6455 118.937C85.9253 118.508 86.1394 118.039 86.2807 117.546C86.4776 117.006 86.6936 116.473 86.8778 115.933C86.8911 115.895 86.8969 115.855 86.8947 115.815C86.8925 115.774 86.8824 115.735 86.865 115.699C86.8476 115.662 86.8232 115.63 86.7933 115.603C86.7633 115.576 86.7283 115.556 86.6904 115.542C86.6524 115.529 86.6122 115.523 86.572 115.525C86.5319 115.528 86.4925 115.538 86.4562 115.555C86.42 115.572 86.3875 115.597 86.3606 115.627C86.3338 115.657 86.3131 115.692 86.2997 115.73Z" fill="#263238"/>
<path d="M98.9362 175.993L72.3968 177.34L71.6154 177.378L44.6758 178.743L57.6597 109.93L60.9882 92.3154H94.801H97.3418L97.634 107.313L98.9362 175.993Z" fill="#263238"/>
<path d="M102.945 172.34C102.545 172.791 43.87 172.34 43.7683 172.245C43.6667 172.149 44.3083 168.351 45.4453 162.246C49.841 138.623 61.6752 80.265 66.9665 65.693C69.2787 59.2964 72.5501 54.2591 76.3614 51.3688C76.6785 51.135 77.0217 50.9389 77.3841 50.7844C80.1601 49.5584 85.5404 49.171 87.1094 51.0321C88.3417 52.4868 91.9624 63.5333 94.0396 72.2866C103.504 112.102 103.428 171.8 102.945 172.34Z" fill="#50B4B7"/>
<path d="M77.3842 50.7656C76.5139 54.037 52.1405 138.921 45.4453 162.247C49.841 138.623 61.6752 80.2652 66.9666 65.6933C69.2788 59.2966 72.5501 54.2593 76.3615 51.3691C76.6776 51.1287 77.0208 50.9261 77.3842 50.7656Z" fill="#263238"/>
<path d="M88.1374 53.5097C89.141 56.6858 92.9841 67.7322 94.9596 75.628C96.2809 80.9321 96.6493 85.3342 96.9352 86.503C96.9352 86.503 84.8025 81.7896 82.0139 81.6181C77.7261 81.3513 70.3068 89.876 71.9266 91.1464C74.4675 93.0521 86.7272 101.945 96.859 103.768C105.187 105.274 113.559 100.243 113.121 92.3661C112.682 84.4893 98.9361 62.5107 93.9306 56.3428C91.3325 53.1285 86.9114 49.6666 88.1374 53.5097Z" fill="#DD6A57"/>
<path d="M113.578 94.0943C111.672 103.178 103.973 104.442 99.889 104.448C92.8444 104.448 79.1364 99.3666 75.8396 96.9147C72.5428 94.4627 73.07 91.9854 73.07 91.9854L81.2135 80.5514C82.6541 80.3673 84.1167 80.4644 85.5203 80.8372C87.318 81.4725 96.5732 86.3128 96.9543 86.4717C96.8527 86.0461 94.1149 72.5667 92.7999 68.0503C92.7301 67.8025 92.6475 67.5485 92.5713 67.2817C92.1901 66.0112 91.6629 64.3914 91.0785 62.6128C90.7545 61.6282 90.4433 60.5992 90.0749 59.5828C88.6011 55.1807 87.1592 50.9883 87.1592 50.9883C89.5476 51.5282 91.8535 52.9384 95.5187 57.277C99.1839 61.6155 115.484 85.0106 113.578 94.0943Z" fill="#50B4B7"/>
<path d="M99.3825 104.505C98.8998 104.384 98.3979 104.333 97.9152 104.213C97.4324 104.092 96.848 103.952 96.3144 103.838C95.3298 103.622 94.358 103.393 93.3861 103.133C91.3724 102.593 89.3778 101.977 87.3896 101.341C85.4014 100.706 83.4258 100.071 81.4566 99.4357C79.5806 98.8631 77.7901 98.0405 76.1335 96.9901C75.265 96.4358 74.5191 95.7094 73.942 94.8558C73.6024 94.3921 73.3617 93.8636 73.2349 93.303C73.1082 92.7424 73.098 92.1618 73.2051 91.5971C73.2051 91.5336 73.1162 91.5082 73.1035 91.5971C72.9209 92.4815 72.9558 93.3971 73.2051 94.265C73.5131 95.123 74.0078 95.9019 74.6534 96.5455C76.0918 97.9069 77.8051 98.9444 79.678 99.5882C81.6853 100.382 83.7625 100.998 85.8142 101.653C87.866 102.307 90.0448 103.025 92.1664 103.615C93.3225 103.933 94.4977 104.219 95.6856 104.429C96.2525 104.537 96.8251 104.613 97.4007 104.657C98.0341 104.715 98.6704 104.737 99.3063 104.721C99.3205 104.726 99.3355 104.728 99.3505 104.727C99.3656 104.726 99.3803 104.723 99.3938 104.716C99.4074 104.71 99.4196 104.7 99.4296 104.689C99.4397 104.678 99.4474 104.665 99.4524 104.651C99.4574 104.637 99.4596 104.622 99.4588 104.607C99.458 104.592 99.4542 104.577 99.4477 104.563C99.4413 104.55 99.4322 104.538 99.421 104.528C99.4098 104.518 99.3967 104.51 99.3825 104.505Z" fill="#263238"/>
<path d="M104.535 90.0099C102.744 89.1036 100.944 88.208 99.1357 87.3229C99.5422 87.3864 99.9551 87.4436 100.362 87.5198C101.126 87.6486 101.874 87.8616 102.591 88.155C102.603 88.158 102.614 88.1569 102.625 88.1521C102.636 88.1473 102.644 88.139 102.65 88.1286C102.655 88.1182 102.656 88.1063 102.654 88.0949C102.651 88.0835 102.645 88.0734 102.636 88.0661C101.365 87.5008 99.8916 86.8846 98.4433 86.9862L95.2227 85.4045C93.6855 84.6486 92.161 83.8864 90.6364 83.1114C89.2373 82.3499 87.7927 81.6752 86.3106 81.0914C84.6954 80.4578 82.9352 80.2884 81.2288 80.6023C81.178 80.6023 81.1907 80.7039 81.2288 80.6976C84.4684 80.4308 87.4032 82.1268 90.2045 83.5306C93.1837 85.0361 96.1755 86.5289 99.231 87.8755C100.965 88.6378 102.712 89.3937 104.472 90.0925C104.548 90.1115 104.592 90.0353 104.535 90.0099Z" fill="#263238"/>
<path d="M81.6441 96.9521C80.0879 96.122 78.6009 95.1682 77.1975 94.1C76.6203 93.6231 76.0886 93.0936 75.6095 92.5183C75.344 92.1936 75.1 91.852 74.879 91.4956C74.7901 91.3494 74.6948 91.197 74.6122 91.0445C74.6122 91.0064 74.2374 90.2442 74.3518 90.2505C74.4661 90.2569 74.4153 90.1616 74.3518 90.1552C73.9262 90.1044 74.5931 91.4257 74.6757 91.6162C75.0954 92.4349 75.6542 93.1743 76.3273 93.8014C77.8811 95.1566 79.6586 96.2313 81.5806 96.9775C81.5806 96.9775 81.6695 96.9648 81.6441 96.9521Z" fill="#263238"/>
<path d="M87.1573 85.544C86.017 84.656 84.7787 83.9015 83.4667 83.2953C82.8252 83.0497 82.1549 82.8874 81.4721 82.8125C80.7377 82.7753 80.0014 82.8114 79.2742 82.9205C79.2107 82.9205 79.2107 83.0285 79.2742 83.0222C80.0188 82.9743 80.7664 83.0256 81.4975 83.1746C82.16 83.2741 82.8125 83.4314 83.4476 83.6447C84.1137 83.8725 84.7528 84.1728 85.3533 84.5403C85.9089 84.9579 86.5098 85.3116 87.1446 85.5948C87.1446 85.5948 87.1827 85.5567 87.1573 85.544Z" fill="#263238"/>
<path d="M83.9542 82.717C82.6838 82.2596 81.3244 81.6943 79.9651 82.2151C79.9543 82.2207 79.9458 82.2299 79.9413 82.2412C79.9367 82.2524 79.9363 82.2649 79.9401 82.2764C79.9439 82.2879 79.9518 82.2977 79.9622 82.3039C79.9726 82.3101 79.9849 82.3125 79.9968 82.3104C81.3054 81.8594 82.6838 82.4438 83.9479 82.7678C83.9987 82.7741 84.0114 82.7297 83.9542 82.717Z" fill="#263238"/>
<path d="M82.13 91.0385C81.9952 90.8192 81.8489 90.6072 81.6917 90.4033C81.5016 90.1862 81.2887 89.9903 81.0565 89.8189C81.4723 90.1255 81.7954 90.541 81.9903 91.0195C81.3932 91.1084 80.8977 90.632 80.4658 90.2826C80.0338 89.9332 79.5828 89.5457 79.1572 89.1646C78.2997 88.4014 77.4894 87.5868 76.7307 86.7254C76.7219 86.7198 76.7117 86.7169 76.7013 86.7173C76.691 86.7177 76.681 86.7212 76.6727 86.7274C76.6644 86.7337 76.6582 86.7423 76.6549 86.7521C76.6517 86.762 76.6515 86.7726 76.6544 86.7825C77.3982 87.8301 78.2498 88.7967 79.1953 89.6664C79.6464 90.09 80.1307 90.4766 80.6436 90.8225C80.8409 90.9981 81.0807 91.1192 81.3392 91.1738C81.5976 91.2284 81.8658 91.2146 82.1173 91.1338C82.1312 91.1226 82.1403 91.1064 82.1427 91.0887C82.145 91.071 82.1405 91.053 82.13 91.0385Z" fill="#263238"/>
<path d="M82.8633 86.7886C81.5443 85.6301 79.9011 84.9049 78.1563 84.7114C78.1428 84.7114 78.1299 84.7168 78.1203 84.7263C78.1108 84.7358 78.1055 84.7488 78.1055 84.7622C78.1055 84.7757 78.1108 84.7886 78.1203 84.7982C78.1299 84.8077 78.1428 84.8131 78.1563 84.8131C79.8367 85.1806 81.4306 85.8686 82.8506 86.8394C82.8569 86.8648 82.895 86.814 82.8633 86.7886Z" fill="#263238"/>
<path d="M101.171 88.3768L96.9344 86.5029C96.8327 86.0773 94.0949 72.5979 92.78 68.0815C92.7102 67.8338 92.6276 67.5797 92.5514 67.3129C92.1702 66.0425 91.643 64.4227 91.0586 62.644L101.171 88.3768Z" fill="#263238"/>
<path d="M97.1461 86.5918C96.0472 86.541 93.4364 85.8931 92.4201 86.7443C86.2013 91.9404 84.41 90.708 83.1141 91.3559C73.084 96.3551 59.3061 104.696 54.6817 104.441C47.6943 104.079 42.9746 97.8542 44.4737 92.3723C47.4338 81.5228 66.2236 58.6231 73.2682 53.3317C77.0033 50.5304 76.4443 55.0595 74.6847 59.9126C73.6493 62.7584 71.8834 66.9762 70.0921 71.1115C68.5041 74.7958 64.318 84.2034 64.2417 84.4511C64.2417 84.4511 64.2417 84.4829 64.318 84.4511C64.6292 84.413 73.1539 81.0019 81.6213 79.3694C84.6005 78.7913 88.5643 78.6262 90.7558 79.6171C96.1742 82.0881 97.1461 86.5918 97.1461 86.5918Z" fill="#EBEBEB"/>
<path d="M75.2993 80.6714C76.0306 80.4335 76.792 80.3009 77.5607 80.2776L83.4428 91.2351C83.3731 92.3647 82.8648 93.4224 82.0263 94.1825C80.6923 95.2433 60.3462 104.479 55.3852 104.695C50.4241 104.911 43.5256 100.649 43.8051 94.4493C44.1926 85.7341 61.6548 63.9588 69.2774 56.3361C72.7775 52.8297 76.7539 50.3651 77.6877 51.0321C78.793 51.8197 76.4173 56.3552 75.1468 59.76C72.733 66.055 65.4661 84 65.4661 84C65.4661 84 73.4318 81.1796 75.2993 80.6714Z" fill="#50B4B7"/>
<path d="M80.6045 79.5727C76.4172 80.5216 72.2844 81.6963 68.2241 83.0919L68.0462 83.149C65.931 83.8795 64.616 84.4195 64.3048 84.4703L64.2413 84.4258C64.0475 84.271 63.8339 84.1428 63.606 84.0447C63.028 83.8097 57.419 82.8695 57.635 81.129C57.851 79.3885 60.1377 79.6109 60.4744 79.649C60.1123 79.5537 57.0823 78.7088 58.1432 77.2224C58.8927 76.168 61.9164 76.4538 62.2213 76.4792C61.9164 76.3649 59.1405 75.3295 60.1759 73.8113C60.9127 72.7251 64.2921 73.0109 64.6796 73.0935C64.3683 72.9601 61.8783 72.4583 63.1042 71.137C63.9554 70.235 70.2822 71.4546 73.0581 72.9855C77.187 75.2596 80.6045 79.5727 80.6045 79.5727Z" fill="#EBEBEB"/>
<path d="M68.2243 83.0918L68.0464 83.1489C65.8172 81.5186 63.2801 80.3581 60.5889 79.7378C60.4111 79.706 60.4047 79.6044 60.5889 79.6235C63.4291 79.9706 66.0942 81.1813 68.2243 83.0918Z" fill="#263238"/>
<path d="M62.3541 76.5934C66.3306 77.5589 68.1092 78.4991 71.4632 80.8557C71.514 80.8875 71.5712 80.8176 71.5267 80.7795C68.4078 78.2386 66.445 76.9682 62.3923 76.4918C62.2144 76.4727 62.1763 76.5489 62.3541 76.5934Z" fill="#263238"/>
<path d="M64.7984 73.1761C68.6097 74.3576 70.5979 75.3295 73.5962 77.972C73.666 78.0292 73.7613 77.972 73.6978 77.8768C70.8901 74.923 68.4128 73.6907 64.8428 73.0682C64.6015 73.03 64.5634 73.0872 64.7984 73.1761Z" fill="#263238"/>
<path d="M84.4176 54.5829C83.7443 54.8561 78.9293 55.0657 77.0237 52.3914C76.8903 52.2072 76.9475 50.1046 76.8903 47.551C76.8522 45.9947 76.7696 44.2669 76.579 42.698C76.5409 42.374 77.7097 42.8377 77.7097 42.8377L79.7996 43.0854L86.7171 43.9176C86.388 45.9478 86.3112 48.011 86.4885 50.0601C86.5132 50.2761 86.56 50.489 86.6282 50.6954C86.6282 50.6954 86.6282 50.7589 86.6282 50.8034C87.003 52.0039 85.7643 54.0303 84.4176 54.5829Z" fill="#DD6A57"/>
<path d="M86.6254 50.6959C86.6254 50.6959 86.6254 50.7594 86.6254 50.8039C86.2932 50.8848 85.9557 50.9421 85.6154 50.9754C78.9647 51.6106 77.1289 43.2829 77.1289 43.2829L79.7651 43.0859L86.6826 43.9181C86.3535 45.9484 86.2767 48.0115 86.4539 50.0607C86.489 50.2778 86.5464 50.4906 86.6254 50.6959Z" fill="#263238"/>
<path d="M73.5505 28.7932C72.4706 32.3059 74.3064 42.4694 76.8028 44.7435C80.4235 48.034 86.3311 48.3579 89.1578 44.0067C91.8702 39.7888 89.2467 26.5826 86.4581 24.5181C82.3483 21.4754 75.1449 23.5971 73.5505 28.7932Z" fill="#DD6A57"/>
<path d="M82.1976 35.0884C82.1976 35.0884 82.1468 35.1265 82.1531 35.1583C82.2929 35.8379 82.3437 36.6447 81.7656 36.9813C81.7656 36.9813 81.7656 37.0258 81.7656 37.0194C82.5152 36.7781 82.439 35.7109 82.1976 35.0884Z" fill="#263238"/>
<path d="M81.4557 34.4782C80.344 34.5862 80.6426 36.8158 81.678 36.7142C82.7134 36.6125 82.3958 34.3893 81.4557 34.4782Z" fill="#263238"/>
<path d="M86.1991 34.6563C86.1991 34.6563 86.2626 34.6562 86.2626 34.7134C86.3325 35.4058 86.5357 36.1871 87.19 36.3332V36.3713C86.4087 36.365 86.1609 35.3232 86.1991 34.6563Z" fill="#263238"/>
<path d="M86.7205 33.8558C87.8195 33.6208 88.207 35.8314 87.1906 36.0474C86.1743 36.2633 85.7995 34.0528 86.7205 33.8558Z" fill="#263238"/>
<path d="M80.4441 33.5828C80.7363 33.4621 80.984 33.3033 81.2635 33.1572C81.5734 33.0518 81.8394 32.8462 82.0194 32.5728C82.0579 32.4757 82.0639 32.3687 82.0364 32.2679C82.0089 32.1671 81.9494 32.078 81.867 32.0138C81.6829 31.9122 81.4748 31.8621 81.2646 31.8688C81.0545 31.8755 80.85 31.9388 80.6728 32.0519C80.2767 32.222 79.9592 32.535 79.7835 32.9285C79.7483 33.0206 79.7407 33.1208 79.7614 33.2171C79.7822 33.3134 79.8306 33.4016 79.9006 33.4709C79.9706 33.5403 80.0592 33.5877 80.1557 33.6076C80.2522 33.6275 80.3524 33.6189 80.4441 33.5828Z" fill="#263238"/>
<path d="M87.4267 32.6175C87.1202 32.5972 86.8148 32.5611 86.512 32.5095C86.1848 32.518 85.8645 32.4149 85.6036 32.2173C85.5317 32.1405 85.4876 32.0418 85.4784 31.937C85.4692 31.8322 85.4954 31.7274 85.5528 31.6392C85.6908 31.4817 85.8684 31.3639 86.0672 31.298C86.2659 31.2321 86.4787 31.2205 86.6835 31.2645C87.1135 31.2877 87.5192 31.4713 87.8205 31.779C87.8841 31.8533 87.9249 31.9444 87.938 32.0413C87.9511 32.1382 87.936 32.2369 87.8944 32.3254C87.8528 32.4139 87.7866 32.4886 87.7036 32.5404C87.6206 32.5922 87.5245 32.6189 87.4267 32.6175Z" fill="#263238"/>
<path d="M82.872 39.4202C83.0832 39.6702 83.3443 39.8734 83.6385 40.0167C83.9328 40.16 84.2537 40.2402 84.5808 40.2523C84.8667 40.2712 85.1539 40.2455 85.432 40.1761C85.4862 40.1694 85.5394 40.1566 85.5908 40.138L85.7369 40.0935C85.7725 40.0821 85.8033 40.0589 85.8241 40.0278C85.8448 39.9966 85.8544 39.9593 85.8512 39.922C85.8542 39.8988 85.8542 39.8753 85.8512 39.8521V39.7949C85.794 39.2614 85.6352 38.461 85.6352 38.461C85.8385 38.5309 86.9057 38.8421 86.8358 38.569C86.4519 36.1819 85.824 33.8404 84.9619 31.5816C84.9555 31.5682 84.9447 31.5575 84.9313 31.5513C84.9179 31.5451 84.9027 31.5437 84.8884 31.5475C84.8741 31.5513 84.8616 31.5599 84.853 31.5719C84.8443 31.5839 84.8402 31.5986 84.8412 31.6133C85.1842 33.8175 85.9147 35.9519 86.2959 38.1624C85.9207 38.0475 85.5319 37.9834 85.1397 37.9719C85.0699 38.01 85.4764 39.5155 85.4891 39.7568C85.0588 39.8616 84.6118 39.8778 84.175 39.8047C83.7383 39.7315 83.3209 39.5705 82.9482 39.3312C82.872 39.3058 82.8212 39.363 82.872 39.4202Z" fill="#263238"/>
<path d="M85.0837 39.9413C84.8415 40.3603 84.496 40.7102 84.0801 40.9577C83.8511 41.0821 83.5895 41.1331 83.3305 41.1038C82.7588 41.0339 82.6953 40.5321 82.6953 40.0874C82.7187 39.8494 82.7699 39.6148 82.8478 39.3887C83.5136 39.8101 84.2982 40.004 85.0837 39.9413Z" fill="#263238"/>
<path d="M84.0801 40.9581C83.8511 41.0825 83.5895 41.1335 83.3305 41.1042C82.7588 41.0343 82.6953 40.5325 82.6953 40.0878C82.9917 40.0466 83.293 40.1113 83.5464 40.2705C83.7997 40.4297 83.9887 40.6732 84.0801 40.9581Z" fill="#FF99BA"/>
<path d="M74.002 38.0357C76.0284 37.7054 76.8732 34.65 76.905 32.414C76.9367 30.7561 76.3079 27.4403 77.9277 26.3096C79.5475 25.1789 81.415 26.3731 83.3906 26.0047C84.2291 25.8458 84.9024 24.5945 85.7981 24.4738C86.6937 24.3531 88.034 26.8495 88.034 26.8495C88.034 26.8495 87.6783 23.2224 83.0857 22.9429C78.493 22.6634 74.2434 24.8486 73.2334 28.5392C71.9249 33.2716 74.002 38.0357 74.002 38.0357Z" fill="#263238"/>
<path d="M74.3788 35.609C74.3788 35.609 76.5766 30.9465 78.3934 29.3266C79.5495 28.2976 83.653 27.1796 85.0822 27.0081C86.0795 26.8811 88.036 26.862 88.036 26.862C88.2671 26.5821 88.4793 26.2871 88.6712 25.979C88.9479 25.5235 89.1068 25.0062 89.1334 24.4738C89.16 23.9415 89.0536 23.4109 88.8237 22.93C88.0106 21.2721 85.6857 21.3038 84.5296 20.6368C83.3735 19.9699 80.1275 18.7312 78.2219 19.3664C75.4078 20.3192 73.9341 22.3392 73.2608 22.7839C70.9168 24.3275 68.9222 26.0044 68.4522 28.431C67.9122 31.2641 68.7507 33.1761 68.6554 34.3004C68.4712 36.3776 69.3732 38.4293 70.9168 39.1535C71.7324 39.56 72.6291 39.7771 73.5403 39.7887L74.3788 35.609Z" fill="#50B4B7"/>
<path d="M88.0702 26.2588C87.786 26.1303 87.4931 26.0221 87.1936 25.9348C87.4934 25.6879 87.6978 25.3442 87.7717 24.9629C87.8384 24.3974 87.8384 23.826 87.7717 23.2605C87.7717 23.197 87.6637 23.197 87.67 23.2605C87.736 23.7814 87.6993 24.3101 87.562 24.8168C87.4542 25.2052 87.2659 25.5666 87.0094 25.8776C86.7731 25.8215 86.5333 25.7812 86.2916 25.7569L86.3869 25.5854C86.4566 25.4541 86.5119 25.3157 86.552 25.1725C86.6354 24.888 86.6528 24.5882 86.6029 24.2959C86.6029 24.2324 86.4949 24.2959 86.5076 24.2959C86.5587 24.5705 86.5457 24.8531 86.4695 25.1217C86.4298 25.2539 86.3766 25.3816 86.3107 25.5029C86.2784 25.5602 86.2423 25.6154 86.2027 25.668L86.1646 25.7188C86.1032 25.7154 86.0417 25.7154 85.9803 25.7188C85.1673 25.6943 84.3536 25.7367 83.5475 25.8459L82.9122 25.9348C82.9697 25.8421 83.0186 25.7443 83.0583 25.6426C83.1563 25.2441 83.1563 24.8278 83.0583 24.4293C83.1344 24.8339 83.0971 25.2516 82.9503 25.6363C82.8789 25.7787 82.7659 25.896 82.6264 25.9729L82.15 26.0555C81.8343 25.956 81.5699 25.7372 81.4131 25.4457C81.196 25.1148 81.065 24.7348 81.032 24.3404C81.032 24.3269 81.0266 24.314 81.0171 24.3045C81.0076 24.2949 80.9947 24.2896 80.9812 24.2896C80.9677 24.2896 80.9548 24.2949 80.9452 24.3045C80.9357 24.314 80.9304 24.3269 80.9304 24.3404C80.9573 24.6808 81.0366 25.0151 81.1654 25.3313C81.2643 25.639 81.4365 25.9181 81.6672 26.1444C80.9036 26.3044 80.1586 26.5428 79.4439 26.8559C78.9103 27.0992 78.4106 27.4109 77.9575 27.7833C77.66 27.7489 77.3678 27.6785 77.0873 27.5737C76.7514 27.4458 76.4585 27.2256 76.2424 26.9385C76.2424 26.8813 76.1217 26.9385 76.1598 26.9893C76.3421 27.2537 76.5774 27.4772 76.8509 27.6456C77.1243 27.814 77.4298 27.9237 77.7479 27.9675C77.291 28.3548 76.8739 28.7868 76.5029 29.257C76.4459 29.2496 76.3883 29.2496 76.3314 29.257C76.1982 29.2281 76.0683 29.1856 75.9439 29.13C75.6855 29.0196 75.4473 28.8672 75.2388 28.679C74.8253 28.247 74.5015 27.7375 74.286 27.1798C74.286 27.129 74.1716 27.1798 74.1907 27.2243C74.4221 27.8183 74.7365 28.3764 75.1244 28.8822C75.315 29.1196 75.5587 29.3089 75.8359 29.4349C75.9758 29.4963 76.1231 29.5391 76.2742 29.5619L76.1789 29.6826C76.1027 29.7842 76.0328 29.8922 75.9566 30.0002C75.7368 30.1107 75.4863 30.1443 75.2451 30.0955C74.7964 29.9517 74.4208 29.6399 74.197 29.2252C74.1589 29.1681 74.0763 29.2252 74.1208 29.2888C74.4321 29.6699 74.756 30.1781 75.2578 30.3051C75.4108 30.337 75.5686 30.337 75.7215 30.3051C75.1105 31.1479 74.5566 32.0307 74.0636 32.9476L73.9747 32.8079C73.8738 32.6598 73.7566 32.5234 73.6253 32.4013C73.4994 32.2792 73.361 32.1706 73.2124 32.0774C73.06 31.9821 72.9075 31.8805 72.7551 31.7979C72.6979 31.7979 72.6534 31.8487 72.7043 31.8868C72.8524 31.9783 72.9908 32.0847 73.1172 32.2044C73.2378 32.3251 73.3458 32.4522 73.4538 32.5792C73.5624 32.7028 73.6642 32.8321 73.7587 32.9667C73.8095 33.0366 73.854 33.1128 73.9048 33.1763L73.9366 33.2208C73.8349 33.4177 73.7333 33.6083 73.6444 33.8115C73.5555 34.0148 73.5046 34.1609 73.4411 34.3388H73.2442H72.8186C72.5326 34.3089 72.2499 34.2536 71.9738 34.1736C71.7021 34.0962 71.4367 33.9985 71.1797 33.8814C70.8986 33.7474 70.6528 33.5494 70.4619 33.3034C70.4238 33.2525 70.3349 33.3034 70.3794 33.3542C70.7412 33.8681 71.232 34.2778 71.8022 34.542C72.0997 34.6597 72.4161 34.7221 72.736 34.7262C72.9348 34.729 73.1331 34.7076 73.3268 34.6627C73.132 35.2131 72.9812 35.7781 72.8758 36.3524C72.7614 37.2627 72.7423 38.1823 72.8186 39.0966C72.8186 39.1601 72.9266 39.1537 72.9202 39.0966C72.863 38.2963 72.9468 37.4921 73.168 36.7208C73.3426 35.9725 73.5894 35.2428 73.9048 34.542C74.5311 33.1739 75.2817 31.8662 76.1472 30.6354C76.8763 29.3947 77.8857 28.3418 79.0946 27.561C80.315 26.9194 81.644 26.5101 83.0139 26.3541C84.6146 26.119 86.425 25.9158 88.0067 26.3541C88.0893 26.3795 88.1274 26.2842 88.0702 26.2588Z" fill="#263238"/>
<path d="M75.693 37.0761C75.693 37.0761 73.3363 33.8302 71.8817 34.675C70.427 35.5198 72.2183 40.2586 73.9779 40.8747C74.1983 40.9703 74.4358 41.0203 74.676 41.0216C74.9162 41.0229 75.1542 40.9755 75.3756 40.8823C75.5971 40.7891 75.7973 40.652 75.9643 40.4793C76.1313 40.3066 76.2616 40.1019 76.3472 39.8774L75.693 37.0761Z" fill="#DD6A57"/>
<path d="M72.4297 36.0225V36.0669C73.6684 36.5433 74.3353 37.6677 74.8118 38.8428C74.738 38.7208 74.6386 38.6162 74.5205 38.5363C74.4023 38.4564 74.2683 38.4032 74.1275 38.3802C73.9867 38.3572 73.8427 38.3651 73.7053 38.4033C73.5679 38.4415 73.4404 38.5091 73.3317 38.6015C73.3317 38.6015 73.3317 38.6713 73.3698 38.665C73.5837 38.5924 73.8148 38.5882 74.0311 38.6531C74.2475 38.718 74.4382 38.8487 74.5767 39.027C74.8118 39.3252 75.0121 39.6491 75.1738 39.9926C75.231 40.1006 75.4279 40.037 75.3898 39.91C75.3644 38.3156 74.113 36.1495 72.4297 36.0225Z" fill="#263238"/>
<path d="M78.0328 44.8326C76.2582 44.1882 74.694 43.07 73.5101 41.5993C72.6282 40.5145 72.0145 39.237 71.7188 37.8706C71.8938 38.4106 72.1349 38.9269 72.4366 39.4078C72.745 39.8974 73.1387 40.3277 73.599 40.6783C74.6618 42.386 76.2321 43.7187 78.09 44.4896C78.2679 44.6039 78.2361 44.8961 78.0328 44.8326Z" fill="#EBEBEB"/>
<path d="M76.0469 38.2324C75.7292 37.8703 74.7129 35.9964 73.849 35.3167C73.7174 35.1952 73.5796 35.0807 73.4361 34.9737C73.2052 34.7909 72.9359 34.6627 72.6484 34.5989C72.8744 34.4939 73.1271 34.4607 73.3726 34.5036C74.643 34.6815 75.653 37.1969 76.1676 38.1434C76.193 38.2069 76.0977 38.2959 76.0469 38.2324Z" fill="#EBEBEB"/>
<path d="M75.827 37.9275C75.611 37.4448 79.1619 41.6753 84.4469 41.6817C85.6325 41.701 86.8028 41.4127 87.8437 40.8449C88.8846 40.2771 89.7606 39.4493 90.3863 38.4421C90.6912 37.9974 90.5832 42.7552 89.3 44.8578C88.2983 46.1749 86.8339 47.0626 85.2029 47.3415C83.429 47.6393 81.6076 47.4531 79.9306 46.8025C78.2537 46.1518 76.7834 45.0608 75.6746 43.6445C75.0902 42.914 77.6565 41.9612 75.827 37.9275Z" fill="#EBEBEB"/>
<path d="M77.1602 40.0557C78.1636 40.621 79.2009 41.1238 80.2664 41.5611C81.3157 42.0067 82.4169 42.3183 83.5441 42.4886C84.6702 42.6296 85.8138 42.4989 86.879 42.1074C87.9617 41.727 88.9391 41.0957 89.7312 40.2653C89.0141 41.1926 88.0592 41.9082 86.9679 42.3361C85.8715 42.7799 84.6811 42.9416 83.506 42.8062C82.3524 42.6214 81.23 42.2772 80.1711 41.7835C79.1132 41.3077 78.1047 40.7289 77.1602 40.0557Z" fill="white"/>
<path d="M77.1602 41.2559C78.1636 41.8212 79.2009 42.324 80.2664 42.7613C81.3154 43.209 82.4167 43.5227 83.5441 43.6951C84.6708 43.8307 85.8135 43.6979 86.879 43.3076C87.9617 42.9272 88.9391 42.2959 89.7312 41.4655C89.0141 42.3928 88.0592 43.1084 86.9679 43.5363C85.8715 43.9801 84.6811 44.1418 83.506 44.0064C82.3524 43.8216 81.23 43.4774 80.1711 42.9837C79.1132 42.5079 78.1047 41.9291 77.1602 41.2559Z" fill="white"/>
<path d="M77.1602 42.4692C78.1128 43.1209 79.1303 43.6723 80.1965 44.1145C81.2458 44.5684 82.3609 44.8514 83.4996 44.9529C84.6345 45.0479 85.7765 44.8962 86.8473 44.5083C87.9338 44.1229 88.9195 43.4976 89.7312 42.6789C88.9952 43.5971 88.0315 44.3067 86.9362 44.737C85.838 45.1767 84.6538 45.3592 83.4742 45.2706C82.3049 45.1541 81.164 44.8382 80.1012 44.3368C79.0383 43.8549 78.0483 43.2262 77.1602 42.4692Z" fill="white"/>
<path d="M76.793 43.4922C77.7369 44.2168 78.7649 44.8247 79.8547 45.3026C80.9349 45.7842 82.0877 46.0826 83.2659 46.1855C84.4403 46.28 85.6215 46.1286 86.7342 45.7409C87.8626 45.3513 88.8878 44.7106 89.7324 43.867C88.9606 44.8057 87.9549 45.5244 86.8167 45.9505C85.6774 46.385 84.4567 46.5649 83.2405 46.4777C82.0301 46.3629 80.8506 46.0293 79.7594 45.4931C78.6734 44.9831 77.6727 44.3081 76.793 43.4922Z" fill="white"/>
<path d="M83.5441 91.1716C83.5396 91.1574 83.5308 91.145 83.5188 91.1361C83.5068 91.1273 83.4923 91.1226 83.4774 91.1226C83.4625 91.1226 83.448 91.1273 83.436 91.1361C83.424 91.145 83.4151 91.1574 83.4107 91.1716C83.3789 93.1535 81.6575 94.3477 80.0567 95.1608C78.3289 96.0374 76.563 96.8441 74.7971 97.6445C71.1319 99.3088 67.4095 100.821 63.6617 102.269C62.6263 102.675 61.5845 103.069 60.5428 103.463C59.501 103.857 58.3703 104.333 57.2587 104.645C57.1952 104.645 57.2587 104.759 57.2587 104.74C58.256 104.371 59.2914 104.105 60.3014 103.8C61.3114 103.495 62.3214 103.165 63.325 102.815C65.2879 102.148 67.2189 101.405 69.1437 100.636C71.0684 99.8678 73.0693 99.0293 75.0067 98.1717C76.8425 97.3523 78.691 96.5392 80.4633 95.5991C82.1085 94.7415 83.849 93.217 83.5441 91.1716Z" fill="#263238"/>
<path d="M82.0462 88.822C81.9541 89.2854 81.7844 89.73 81.5444 90.1369C81.3975 90.4297 81.2342 90.7138 81.0553 90.9881C80.6508 91.5916 80.1799 92.1477 79.6514 92.646C78.5738 93.6037 77.4059 94.4546 76.1641 95.1869C77.4886 94.4697 78.7359 93.6182 79.8864 92.646C80.43 92.161 80.9064 91.6056 81.303 90.9945C81.4991 90.6818 81.667 90.3523 81.8048 90.0099C81.9636 89.6161 81.989 89.1968 82.1351 88.803C82.1478 88.7712 82.0462 88.7458 82.0462 88.822Z" fill="#263238"/>
<path d="M80.8977 86.5278C79.8178 86.9979 78.7824 87.6013 77.7216 88.1349C76.6608 88.6685 75.5364 89.2211 74.4375 89.7483C75.5174 89.2741 76.5909 88.7786 77.6581 88.2619C78.7754 87.7637 79.8653 87.206 80.9231 86.5913C80.9866 86.585 80.9549 86.5024 80.8977 86.5278Z" fill="#263238"/>
<path d="M81.1317 87.1828C80.7051 87.6409 80.2178 88.0384 79.6834 88.3643C79.1244 88.7581 78.5654 89.1583 77.9937 89.5458C77.9429 89.5839 77.9937 89.6665 78.0445 89.6284C78.6289 89.2091 79.2197 88.7962 79.8104 88.3897C80.3383 88.0887 80.8039 87.6899 81.1825 87.2145C81.1825 87.2145 81.1571 87.1574 81.1317 87.1828Z" fill="#263238"/>
<path d="M79.0551 83.3464C78.4379 83.1555 77.7954 83.0592 77.1494 83.0606C76.5227 83.1042 75.9061 83.2413 75.32 83.4671C73.986 83.9118 72.6647 84.3818 71.3244 84.8011C71.3136 84.8066 71.3052 84.8158 71.3006 84.8271C71.2961 84.8383 71.2956 84.8508 71.2995 84.8623C71.3033 84.8738 71.3111 84.8836 71.3215 84.8898C71.3319 84.8961 71.3442 84.8984 71.3562 84.8963C72.6266 84.4771 73.8971 84.1087 75.1675 83.7212C75.7831 83.4987 76.4227 83.3494 77.0732 83.2765C77.7299 83.2784 78.3857 83.3251 79.036 83.4163C79.0932 83.4226 79.0932 83.3591 79.0551 83.3464Z" fill="#263238"/>
<path d="M77.5998 80.3351C76.7423 80.1508 76.1642 80.4557 75.3321 80.6717C74.4999 80.8877 73.5217 81.1608 72.6261 81.4213C70.8665 81.9358 69.1196 82.4757 67.3918 83.0729C65.2067 83.8266 63.0618 84.6736 60.9571 85.6137C60.4159 85.7358 59.8816 85.8864 59.3563 86.0647C58.6999 86.268 58.052 86.4967 57.4125 86.7508C56.1421 87.2399 54.9797 87.8434 53.7854 88.4341C53.7283 88.4341 53.7854 88.5484 53.8363 88.5167C55.0341 87.9076 56.2713 87.3792 57.5396 86.935C58.143 86.7127 58.7465 86.5094 59.3563 86.2998L59.5405 86.2489C58.8037 86.592 58.0732 86.9477 57.3554 87.3161C55.5166 88.2469 53.7348 89.2862 52.0195 90.4287C52.0195 90.4287 52.0195 90.4795 52.0195 90.4668C55.1236 88.6192 58.3667 87.0157 61.7193 85.6709C65.0479 84.3369 68.4209 83.13 71.8384 82.0629C72.7976 81.7579 73.744 81.4721 74.7286 81.1672C75.7132 80.8623 76.5199 80.316 77.5871 80.4303C77.5998 80.4367 77.5998 80.3414 77.5998 80.3351Z" fill="#263238"/>
<path d="M132.699 125.308C132.198 127.671 133.487 131.196 131.696 131.355C130.101 131.495 129.447 128.967 129.447 128.967C129.447 128.967 129.263 132.054 127.51 131.717C125.756 131.381 125.604 128.465 125.604 128.465C125.604 128.465 125.566 131.044 123.838 130.58C122.11 130.116 121.526 127.664 121.526 127.664C121.526 127.664 121.011 128.395 119.931 127.518C118.394 126.248 118.47 121.979 119.036 119.75C119.601 117.52 123.343 109.777 123.933 108.602L138.277 112.14C138.277 112.14 139.09 116.586 139.229 118.867C139.369 121.147 137.73 128.865 135.793 128.586C133.855 128.306 135.107 122.869 135.158 121.497C135.208 120.124 134.853 119.864 134.357 120.487C133.995 120.893 132.928 124.266 132.699 125.308Z" fill="#EB9481"/>
<path d="M129.48 128.833C128.845 125.244 129.143 123.561 130.477 120.226C130.477 120.156 130.414 120.105 130.382 120.169C128.775 123.345 128.057 125.371 129.308 128.871C129.366 129.043 129.512 128.985 129.48 128.833Z" fill="#263238"/>
<path d="M125.661 128.611C125.299 124.8 125.661 122.989 126.779 119.394C126.779 119.343 126.709 119.311 126.69 119.362C125.28 122.799 124.606 124.863 125.47 128.598C125.508 128.77 125.68 128.782 125.661 128.611Z" fill="#263238"/>
<path d="M121.548 127.62C121.46 123.929 121.752 121.903 123.308 118.555C123.312 118.54 123.311 118.524 123.305 118.509C123.298 118.495 123.287 118.483 123.273 118.475C123.259 118.468 123.243 118.466 123.227 118.469C123.212 118.472 123.198 118.48 123.187 118.492C121.282 121.751 120.888 124.272 121.44 127.607C121.472 127.836 121.555 127.849 121.548 127.62Z" fill="#263238"/>
<path d="M141.72 62.9866C133.85 75.5449 124.716 105.095 123.699 109.269C123.007 112.108 137.903 116.091 138.087 114.096C138.316 111.555 143.88 79.4451 144.668 67.611C145.106 61.0809 143.34 60.3822 141.72 62.9866Z" fill="#EB9481"/>
<path d="M145.152 70.5452C144.904 81.2994 139.352 111.72 139.352 111.72L128.084 108.919L122.398 107.502C122.398 107.502 134.258 76.3765 139.549 65.8763C139.962 65.0696 140.343 64.3708 140.705 63.7801C144.193 58.0758 145.343 62.2429 145.152 70.5452Z" fill="#EBEBEB"/>
<path d="M139.561 108.474C132.809 106.232 125.371 104.898 124.094 104.574C124.08 104.574 124.067 104.58 124.058 104.589C124.048 104.599 124.043 104.612 124.043 104.625C124.043 104.639 124.048 104.651 124.058 104.661C124.067 104.67 124.08 104.676 124.094 104.676C125.364 104.924 133.705 107.369 139.568 108.576C139.612 108.595 139.631 108.494 139.561 108.474Z" fill="#263238"/>
<path d="M145.15 70.5452C144.903 81.2994 139.351 111.72 139.351 111.72L128.082 108.919L140.729 63.7801C144.191 58.0758 145.341 62.2429 145.15 70.5452Z" fill="#263238"/>
<path d="M156.527 105.673L152.741 162.55L150.651 193.937L147.323 243.998H120.402L120.428 243.687L122.556 217.948L124.633 192.749L131.824 105.673H156.527Z" fill="#EB9481"/>
<path d="M188.739 244.932H188.733L161.641 243.795H161.609L156.197 194.191L152.741 162.55L146.535 105.673H171.537L182.622 195.404L185.442 218.266H185.449L186.548 227.178L188.739 244.932Z" fill="#EB9481"/>
<path d="M182.622 195.404L156.197 194.191L152.741 162.55L150.651 193.937L124.633 192.749L131.824 105.673H171.537L182.622 195.404Z" fill="#263238"/>
<path d="M131.367 105.673H172.84L183.347 191.04H122.562L131.367 105.673Z" fill="#455A64"/>
<path d="M134.071 88.3315L131.047 109.09C131.047 109.09 164.885 109.592 173.283 109.002C173.283 109.002 166.429 70.1896 157.402 60.3818C152.886 55.4779 147.582 55.8463 144.202 59.2765C143.345 60.1404 133.143 73.6325 132.063 78.7841C131.129 83.3069 134.071 88.3315 134.071 88.3315Z" fill="#50B4B7"/>
<path d="M156.084 58.6478C156.217 58.3556 150.221 68.5636 147.07 68.1761C144.644 67.8712 143.837 59.6197 144.396 59.0798C148.017 55.6242 151.962 55.9799 156.084 58.6478Z" fill="#EB9481"/>
<path d="M153.398 32.9593C151.975 31.8032 151.524 27.3757 153.398 25.2223C155.977 22.2559 162.113 24.9873 161.192 29.3132C160.271 33.639 154.497 33.8486 153.398 32.9593Z" fill="#263238"/>
<path d="M159.08 24.8098C157.955 24.1801 156.691 23.8396 155.402 23.8188C154.798 23.8186 154.208 23.9977 153.706 24.3334C153.22 24.6851 152.843 25.1675 152.62 25.7245C152.38 26.3018 152.217 26.9085 152.137 27.5285C152.039 28.1587 152.011 28.7979 152.054 29.4342C152.138 30.7229 152.604 31.9573 153.395 32.9787C152.384 32.0744 151.732 30.8365 151.559 29.4913C151.47 28.8167 151.47 28.1333 151.559 27.4586C151.632 26.7784 151.799 26.1115 152.054 25.4768C152.33 24.814 152.797 24.2481 153.395 23.8506C154.003 23.4729 154.713 23.2952 155.427 23.3424C156.767 23.4426 158.043 23.9552 159.08 24.8098Z" fill="#263238"/>
<path d="M152.89 58.6478C152.643 59.2831 148.882 63.0944 145.903 62.529C144.931 62.3448 145.719 56.9835 145.719 56.9835L145.687 56.577L145.242 50.86L152.357 47.6204L153.379 47.2012C153.379 47.2012 153.379 48.7765 153.379 50.733V51.0125C153.379 51.1205 153.379 51.2285 153.379 51.3301C153.379 51.6223 153.379 51.9209 153.379 52.2194C153.379 52.518 153.379 52.6704 153.379 52.9054V53.6169C153.332 55.3031 153.169 56.9841 152.89 58.6478Z" fill="#EB9481"/>
<path d="M153.391 50.7262C152.606 52.2016 151.51 53.4886 150.179 54.4978C148.847 55.507 147.312 56.2142 145.679 56.5702L145.234 50.8532L152.349 47.6136L153.372 47.1943C153.372 47.1943 153.391 48.7697 153.391 50.7262Z" fill="#263238"/>
<path d="M138.08 42.3358C137.146 52.3659 143.047 54.0619 145.207 54.2589C147.176 54.4431 153.884 54.8051 155.847 44.9275C157.81 35.0498 153.446 31.4418 148.98 30.7938C144.515 30.1459 139.014 32.3057 138.08 42.3358Z" fill="#EB9481"/>
<path d="M140.964 40.3473C141.195 40.3172 141.424 40.2748 141.65 40.2202C141.897 40.2098 142.133 40.1183 142.323 39.9598C142.371 39.8968 142.397 39.8198 142.397 39.7406C142.397 39.6615 142.371 39.5845 142.323 39.5215C142.212 39.4094 142.072 39.3292 141.919 39.289C141.766 39.2488 141.605 39.2501 141.453 39.2928C141.13 39.3318 140.833 39.4904 140.621 39.7375C140.576 39.7967 140.549 39.8677 140.544 39.9419C140.539 40.0162 140.555 40.0902 140.592 40.1551C140.628 40.2199 140.683 40.2726 140.749 40.3068C140.815 40.3409 140.89 40.355 140.964 40.3473Z" fill="#263238"/>
<path d="M147.671 40.5186C147.444 40.4785 147.219 40.4254 146.998 40.3598C146.761 40.3324 146.538 40.23 146.363 40.0676C146.315 40.0046 146.289 39.9276 146.289 39.8485C146.289 39.7693 146.315 39.6923 146.363 39.6293C146.481 39.5238 146.625 39.4513 146.78 39.4189C146.935 39.3866 147.095 39.3956 147.246 39.4451C147.566 39.4953 147.854 39.6657 148.053 39.9215C148.097 39.9834 148.122 40.0573 148.124 40.1336C148.127 40.2099 148.106 40.2851 148.065 40.3494C148.024 40.4137 147.964 40.4642 147.894 40.4944C147.824 40.5246 147.746 40.533 147.671 40.5186Z" fill="#263238"/>
<path d="M146.277 43.0337C146.277 43.0337 146.328 43.0337 146.328 43.0909C146.271 43.7769 146.328 44.5709 146.963 44.825C146.963 44.825 146.963 44.8695 146.963 44.8631C146.207 44.7234 146.118 43.6689 146.277 43.0337Z" fill="#263238"/>
<path d="M146.915 42.3418C148.02 42.3418 148.008 44.527 146.985 44.5587C145.962 44.5905 145.988 42.3736 146.915 42.3418Z" fill="#263238"/>
<path d="M147.355 42.4624C147.546 42.5895 147.736 42.8118 147.99 42.8372C148.244 42.8626 148.467 42.6339 148.625 42.418H148.664C148.664 42.8372 148.498 43.2755 148.028 43.3327C147.558 43.3899 147.317 43.0087 147.215 42.5831C147.209 42.5323 147.272 42.4116 147.355 42.4624Z" fill="#263238"/>
<path d="M142.235 42.8877C142.235 42.8877 142.185 42.9195 142.185 42.9512C142.185 43.6373 142.115 44.4249 141.492 44.6536V44.6917C142.254 44.5837 142.394 43.5356 142.235 42.8877Z" fill="#263238"/>
<path d="M141.625 42.1707C140.52 42.0881 140.431 44.305 141.454 44.3813C142.476 44.4575 142.546 42.2406 141.625 42.1707Z" fill="#263238"/>
<path d="M141.155 42.297C140.977 42.4113 140.793 42.6146 140.583 42.6209C140.373 42.6273 140.17 42.3859 140.024 42.1445H139.992C139.992 42.5701 140.087 43.0148 140.488 43.1101C140.888 43.2053 141.123 42.8433 141.263 42.4304C141.282 42.3796 141.225 42.2525 141.155 42.297Z" fill="#263238"/>
<path d="M145.899 48.4905C145.74 48.662 145.581 48.8844 145.333 48.9161C145.078 48.9212 144.825 48.8713 144.59 48.77C144.59 48.77 144.546 48.77 144.59 48.8081C144.693 48.9393 144.829 49.04 144.985 49.0993C145.14 49.1587 145.309 49.1744 145.473 49.1448C145.613 49.1031 145.737 49.0201 145.828 48.9068C145.92 48.7934 145.976 48.655 145.988 48.5096C145.99 48.4978 145.988 48.4855 145.981 48.4754C145.975 48.4652 145.964 48.4581 145.953 48.4556C145.941 48.4531 145.929 48.4553 145.918 48.4619C145.908 48.4684 145.901 48.4787 145.899 48.4905Z" fill="#263238"/>
<path d="M143.082 45.9564C142.999 46.455 142.942 46.9575 142.91 47.4619C142.91 47.5064 143.025 47.5318 143.19 47.5445C143.603 47.6289 144.032 47.5977 144.429 47.4542C144.825 47.3108 145.175 47.0606 145.439 46.7314C145.47 46.6869 145.439 46.6361 145.362 46.6615C144.74 47.0746 143.999 47.271 143.253 47.2205C143.253 47.0871 143.59 45.4864 143.514 45.4737C143.139 45.5027 142.77 45.5796 142.415 45.7023C142.688 43.568 143.298 41.4908 143.539 39.3501C143.54 39.3354 143.536 39.3207 143.527 39.3087C143.519 39.2967 143.506 39.2881 143.492 39.2843C143.478 39.2806 143.463 39.2819 143.449 39.2881C143.436 39.2943 143.425 39.305 143.419 39.3184C142.69 41.5238 142.183 43.7964 141.907 46.1025C141.881 46.4074 142.885 46.039 143.082 45.9564Z" fill="#263238"/>
<path d="M155.773 44.9778C154.623 44.8825 151.694 41.6429 151.726 36.0847C151.726 36.0847 152.044 41.0903 152.399 41.8017C152.755 42.5132 150.767 39.9786 150.729 35.4876C149.295 36.4698 147.727 37.24 146.073 37.7744C143.938 38.3207 142.643 38.2699 142.496 38.1111C142.35 37.9523 145.488 37.0439 146.352 36.0911C146.352 36.0911 140.635 38.5875 138.05 38.7209C137.751 38.7209 137.529 32.5466 141.607 30.0184C145.685 27.4902 151.987 30.463 153.676 32.1527C153.676 32.1527 155.677 32.4894 157.792 35.5067C159.908 38.524 157.005 45.0795 155.773 44.9778Z" fill="#263238"/>
<path d="M152.879 32.0513C152.125 31.566 151.345 31.1228 150.542 30.7237C149.757 30.3161 148.944 29.9658 148.109 29.6756C147.288 29.3715 146.436 29.1584 145.568 29.0404C145.358 29.0029 145.146 28.9837 144.933 28.9832C144.717 28.9832 144.501 28.9832 144.298 28.9832C143.868 29.0029 143.442 29.0689 143.027 29.1801C142.618 29.2848 142.222 29.4339 141.846 29.6248C141.474 29.8411 141.117 30.0831 140.779 30.349C140.44 30.6148 140.125 30.9103 139.838 31.2319C139.561 31.5637 139.306 31.9139 139.076 32.28C138.619 33.0295 138.276 33.8431 138.06 34.6939C137.824 35.5553 137.698 36.4432 137.685 37.3364C137.46 35.5134 137.797 33.6652 138.651 32.0386C139.072 31.2134 139.658 30.4828 140.372 29.8916C140.73 29.5901 141.115 29.3221 141.522 29.0912C141.941 28.8677 142.384 28.6929 142.843 28.5703C143.755 28.3424 144.704 28.3035 145.632 28.456C146.541 28.5919 147.429 28.8438 148.274 29.2056C149.949 29.9065 151.503 30.8669 152.879 32.0513Z" fill="#263238"/>
<path d="M154.184 45.5501C154.184 45.5501 156.4 42.4185 157.823 43.2125C159.246 44.0065 157.563 48.5547 155.886 49.1645C155.676 49.2587 155.449 49.3094 155.219 49.3135C154.989 49.3176 154.761 49.2751 154.547 49.1884C154.334 49.1017 154.141 48.9727 153.979 48.8092C153.817 48.6457 153.69 48.4511 153.605 48.2371L154.184 45.5501Z" fill="#EB9481"/>
<path d="M157.309 44.501C157.309 44.501 157.309 44.5391 157.309 44.5454C156.128 45.0155 155.505 46.1017 155.061 47.2261C155.13 47.1087 155.223 47.0077 155.335 46.93C155.447 46.8524 155.574 46.8 155.708 46.7764C155.843 46.7529 155.98 46.7587 156.112 46.7936C156.243 46.8285 156.366 46.8915 156.471 46.9783C156.503 46.9783 156.471 47.0482 156.439 47.0419C156.233 46.9744 156.011 46.9724 155.804 47.0361C155.597 47.0998 155.415 47.2261 155.283 47.3976C155.066 47.6896 154.879 48.0024 154.724 48.3313C154.673 48.433 154.483 48.3758 154.521 48.2551C154.527 46.7306 155.734 44.6407 157.309 44.501Z" fill="#263238"/>
<path d="M153.962 57.4727C153.962 57.4727 150.018 165.689 152.114 170.828C154.21 175.967 183.348 179.905 183.348 179.905C183.348 179.905 176.424 103.609 168.052 80.0738C160.289 58.3048 153.962 57.4727 153.962 57.4727Z" fill="#EBEBEB"/>
<path d="M174.792 125.739C171.938 126.13 169.064 126.353 166.185 126.406C162.157 126.406 158.162 126.019 157.006 126C156.904 126 156.847 126.343 156.923 126.349C159.974 126.717 163.042 126.929 166.115 126.984C168.927 126.964 171.733 126.699 174.5 126.19C174.5 127.041 174.5 127.708 174.5 128.56C171.66 129.112 166.185 130.059 157.349 128.922C157.349 128.56 157.349 126.667 157.298 126.146C157.298 126.063 156.955 126.051 156.942 126.146C156.872 126.66 156.663 131.228 156.656 132.149C156.656 134.435 156.79 140.896 157.361 142.147C158.632 144.98 164.165 144.986 165.689 144.999C167.214 145.012 172.137 145.164 173.985 143.36C174.97 142.401 175.179 137.161 175.033 132.562C174.893 130.364 174.893 125.809 174.792 125.739ZM166.096 144.459C162.373 144.377 159.108 143.443 158.346 142.426C157.469 141.239 157.393 139.174 157.33 136.894C157.279 135.102 157.33 129.487 157.33 129.373C160.169 129.951 167.671 130.732 174.481 129.144C174.481 131.806 174.481 133.934 174.481 136.595C174.481 138.501 174.36 141.753 173.382 142.877C172.556 143.818 169.589 144.542 166.064 144.459H166.096Z" fill="#263238"/>
<path d="M132.554 171.831C130.807 175.953 120.402 178.748 120.402 178.748L133.501 88.4392C131.837 85.7248 131.187 82.5095 131.665 79.3619C132.548 74.2801 143.353 59.3906 144.68 58.7871C143.039 66.4041 141.872 74.1157 141.187 81.8773C138.265 113.613 134.453 167.346 132.554 171.831Z" fill="#EBEBEB"/>
<path d="M144.839 58.6538C144.096 59.9878 143.34 61.3154 142.565 62.6239C141.79 63.9325 141.021 65.2537 140.227 66.5496L140.183 66.2002C140.926 66.8863 141.656 67.5786 142.387 68.2774L142.616 68.4934L142.4 68.722L139.859 71.3836L139.941 71.1359C140.183 73.105 140.394 75.0742 140.577 77.0434C140.774 79.0189 140.951 80.9945 141.085 82.9764C140.729 81.0199 140.45 79.0634 140.138 77.1006C139.827 75.1378 139.567 73.1749 139.312 71.2121V71.066L139.408 70.958L141.949 68.2901V68.7284C141.225 68.0296 140.5 67.3182 139.789 66.6068L139.624 66.4416L139.744 66.2574C140.564 64.9869 141.415 63.7165 142.254 62.4461C143.092 61.1756 143.962 59.9052 144.839 58.6538Z" fill="#A6A6A6"/>
<path d="M132.301 76.2083L131.242 109.528L156.841 110.341L157.9 77.0218L132.301 76.2083Z" fill="#263238"/>
<path d="M151.328 75.0818L139.195 74.6836L139.075 78.3595L151.207 78.7578L151.328 75.0818Z" fill="#C7C7C7"/>
<path d="M148.568 75.0048L147.075 74.954L147.126 73.258L143.499 73.1436L143.442 74.8333L141.949 74.7888L142.051 71.6953L148.689 71.9176L148.568 75.0048Z" fill="#C7C7C7"/>
<path d="M162.408 63.9326C175.246 77.4628 185.797 105.597 179.622 108.239C173.975 110.653 156.081 108.423 148.725 106.67C146.565 106.156 150.917 89.4113 153.229 89.9575C156.024 90.6245 163.164 91.6536 163.45 91.6282C164.085 91.5901 157.199 71.9364 155.103 64.7266C152.181 54.7156 157.58 58.8508 162.408 63.9326Z" fill="#EB9481"/>
<path d="M130.961 86.1146C130.686 86.5788 130.56 87.1158 130.598 87.6539C130.637 88.1919 130.839 88.7054 131.177 89.1256C130.338 89.5174 129.663 90.192 129.271 91.0312C128.636 92.5304 130.745 94.1438 130.745 94.1438C129.967 94.7306 129.385 95.5388 129.074 96.4624C128.636 97.9551 130.504 99.8798 130.504 99.8798C130.09 100.813 130.025 101.863 130.319 102.84C131.215 105.413 135.274 106.34 137.853 106.95C140.432 107.56 148.303 106.893 149.821 106.912L153.899 90.396C153.899 90.396 143.1 84.3614 140 84.0438C137.402 83.8406 132.092 84.3741 130.961 86.1146Z" fill="#EB9481"/>
<path d="M131.372 88.8904C134.237 88.4775 137.089 88.9348 139.922 89.2334C139.932 89.237 139.94 89.2435 139.946 89.252C139.952 89.2605 139.955 89.2707 139.955 89.281C139.955 89.2914 139.952 89.3015 139.946 89.31C139.94 89.3186 139.932 89.3251 139.922 89.3287C137.089 89.0047 134.205 89.2397 131.385 89.0301C131.296 89.0238 131.296 88.9031 131.372 88.8904Z" fill="#263238"/>
<path d="M130.882 93.928C131.543 93.8995 132.205 93.9571 132.851 94.0995C133.544 94.2075 134.23 94.3218 134.916 94.4552C136.294 94.7157 137.666 95.0015 139.026 95.3318C139.089 95.3318 139.076 95.4462 139.026 95.4335C137.654 95.1794 136.281 94.9443 134.897 94.7411L132.82 94.4616C132.161 94.4206 131.509 94.3056 130.876 94.1186C130.857 94.1107 130.84 94.0972 130.829 94.0797C130.818 94.0623 130.812 94.0418 130.813 94.0211C130.813 94.0003 130.82 93.9803 130.833 93.9636C130.845 93.947 130.862 93.9345 130.882 93.928Z" fill="#263238"/>
<path d="M130.597 99.8797C131.193 99.8586 131.788 99.9403 132.357 100.121L134.262 100.509C135.533 100.756 136.765 101.004 138.023 101.207C138.036 101.207 138.049 101.213 138.059 101.222C138.068 101.232 138.074 101.245 138.074 101.258C138.074 101.272 138.068 101.285 138.059 101.294C138.049 101.304 138.036 101.309 138.023 101.309C136.753 101.106 135.482 100.921 134.18 100.674C133.545 100.572 132.909 100.464 132.274 100.35C131.694 100.302 131.127 100.154 130.597 99.9115C130.597 99.9115 130.572 99.8797 130.597 99.8797Z" fill="#263238"/>
<path d="M162.792 91.0887C163.675 90.3391 156.44 71.8225 154.534 63.7742C152.628 55.726 154.877 56.0372 161.521 62.6245C168.166 69.2117 179.18 85.7782 181.563 101.557C182.312 106.486 183.316 110.006 171.914 109.815C165.286 109.74 158.673 109.162 152.133 108.087L154.623 90.0596C154.623 90.0596 162.538 91.311 162.792 91.0887Z" fill="#EBEBEB"/>
<path d="M156.165 107.953C157.62 100.826 158.071 93.1145 158.249 91.7742C158.249 91.7107 158.154 91.7043 158.147 91.7742C158.046 93.0954 156.572 101.855 156.051 107.96C156.045 108.023 156.146 108.023 156.165 107.953Z" fill="#263238"/>
<path d="M171.461 92.4988C170.755 92.2965 170.035 92.1478 169.307 92.0541L167.3 91.6857L166.43 91.5396H166.512L167.681 91.3745C168.069 91.3173 168.45 91.2284 168.843 91.1966C168.907 91.1966 168.901 91.095 168.843 91.1013C168.462 91.1521 168.069 91.1458 167.681 91.1712L166.468 91.2601C166.112 91.2601 165.763 91.33 165.407 91.3681C164.772 91.2601 164.137 91.1585 163.463 91.0696C163.184 89.7991 162.733 88.5287 162.339 87.2582C161.945 85.9878 161.507 84.6475 161.068 83.3516C160.63 82.0558 160.166 80.8108 159.677 79.5403C159.436 78.9051 159.182 78.2699 158.934 77.6347C158.64 76.999 158.391 76.343 158.191 75.6718C158.191 75.6083 158.07 75.6718 158.102 75.7163C158.389 76.3763 158.622 77.0582 158.801 77.7554C158.998 78.3906 159.188 79.0258 159.385 79.661C159.779 80.9315 160.177 82.2125 160.579 83.5041C160.986 84.7745 161.392 86.045 161.793 87.3472C162.161 88.5223 162.472 89.7292 162.891 90.8853C161.564 90.7075 160.23 90.555 158.902 90.3899L156.863 90.1485C156.133 90.0659 155.37 90.0659 154.653 89.9389C154.589 89.9389 154.57 90.0278 154.653 90.0341C155.364 90.1167 156.088 90.3391 156.806 90.4661L158.813 90.8155C160.236 91.0569 161.653 91.3109 163.076 91.5333C164.499 91.7556 165.89 91.908 167.3 92.0669C168.005 92.1494 168.71 92.2193 169.415 92.3082C170.098 92.4158 170.788 92.4731 171.48 92.4797C171.475 92.4813 171.471 92.4839 171.468 92.4871C171.465 92.4904 171.462 92.4944 171.461 92.4988Z" fill="#263238"/>
<path d="M174.598 109.84C168.455 109.624 157.396 108.785 152.276 108.099C152.206 108.099 152.193 108.188 152.276 108.201C159.611 109.773 167.116 110.403 174.61 110.075C174.637 110.067 174.66 110.051 174.676 110.029C174.691 110.006 174.699 109.979 174.698 109.952C174.696 109.925 174.686 109.899 174.667 109.878C174.649 109.858 174.625 109.844 174.598 109.84Z" fill="#263238"/>
<path d="M159.018 70.1896L159.227 70.342L159.119 70.5644C158.243 72.4065 157.392 74.2487 156.477 76.0717L156.039 76.9483H155.613L156.07 75.8939C156.839 74.0962 157.665 72.3366 158.459 70.558C157.506 69.9228 156.553 69.2304 155.607 68.5571L155.289 68.3284L155.581 68.0743L158.649 65.4064C157.868 64.1931 157.125 62.9227 156.369 61.6523C155.613 60.3818 154.794 59.0224 154.031 57.6885C154.933 58.9589 155.81 60.1912 156.674 61.4617C157.538 62.7321 158.408 64.0026 159.215 65.273L159.342 65.4699L159.164 65.6287L156.255 68.2331C157.201 68.8938 158.109 69.548 159.018 70.1896Z" fill="#A6A6A6"/>
<path d="M189.904 26.5318C189.906 28.8001 189.277 31.0242 188.087 32.9556C186.898 34.887 185.195 36.4496 183.169 37.4691C181.142 38.4885 178.872 38.9245 176.613 38.7284C174.353 38.5323 172.192 37.7118 170.371 36.3586L164.375 37.8895L166.871 32.3059C165.993 30.6651 165.501 28.8457 165.432 26.986C165.362 25.1263 165.718 23.2753 166.472 21.5737C167.225 19.8721 168.357 18.3647 169.78 17.1662C171.204 15.9676 172.882 15.1095 174.687 14.657C176.492 14.2044 178.377 14.1694 180.198 14.5547C182.018 14.9399 183.727 15.7352 185.194 16.8801C186.661 18.025 187.848 19.4893 188.664 21.1618C189.481 22.8343 189.905 24.6708 189.904 26.5318Z" fill="white"/>
<path d="M189.905 26.532C189.915 28.7976 189.299 31.0219 188.127 32.9604C187.824 33.4408 187.491 33.9012 187.129 34.3389C186.766 34.7857 186.376 35.2099 185.961 35.6093C185.131 36.3676 184.201 37.0088 183.197 37.515C182.197 38.0395 181.128 38.4222 180.021 38.652C179.464 38.7622 178.899 38.8344 178.332 38.868C177.763 38.9124 177.192 38.9124 176.623 38.868C174.331 38.6932 172.132 37.8862 170.271 36.5367L170.461 36.5748L164.446 38.1502L163.887 38.2963L164.122 37.7627L166.593 32.1664V32.4396C165.688 30.7608 165.182 28.8961 165.115 26.9902C165.048 25.0843 165.421 23.1886 166.205 21.4503C166.995 19.7312 168.161 18.2116 169.616 17.0037C171.427 15.5108 173.625 14.5629 175.954 14.2701C178.282 13.9774 180.646 14.3519 182.77 15.3501C184.895 16.3483 186.692 17.9291 187.952 19.9086C189.213 21.8882 189.886 24.1851 189.893 26.532H189.905ZM189.905 26.532C189.91 24.6796 189.489 22.8509 188.673 21.1876C187.858 19.5243 186.67 18.071 185.203 16.9403C183.736 15.8096 182.028 15.0318 180.212 14.6672C178.396 14.3025 176.52 14.3609 174.73 14.8376C172.959 15.3095 171.319 16.1784 169.934 17.3785C168.577 18.5807 167.494 20.0602 166.758 21.7171C166.032 23.3813 165.691 25.1878 165.761 27.0021C165.848 28.803 166.327 30.5633 167.164 32.1601L167.241 32.2935L167.164 32.4332L164.624 38.0041L164.3 37.6166L170.341 36.1365H170.449L170.531 36.2001C172.306 37.5553 174.425 38.387 176.648 38.6012C177.204 38.6489 177.763 38.6489 178.319 38.6012C178.875 38.5853 179.429 38.528 179.977 38.4297C181.08 38.2338 182.15 37.8808 183.153 37.3816C184.167 36.8906 185.101 36.248 185.922 35.4759C186.341 35.1007 186.734 34.6975 187.098 34.269C187.451 33.8342 187.778 33.3781 188.076 32.9033C189.257 30.9867 189.889 28.7831 189.905 26.532Z" fill="#263238"/>
<path d="M179.031 20.6177H175.988V32.4518H179.031V20.6177Z" fill="#50B4B7"/>
<path d="M171.598 25.0144V28.0571H183.432V25.0144H171.598Z" fill="#50B4B7"/>
</svg>
