<svg width="180" height="180" viewBox="0 0 180 180" fill="none" xmlns="http://www.w3.org/2000/svg">
<ellipse opacity="0.1" cx="90" cy="174.6" rx="90" ry="5.4" fill="#119494"/>
<path fill-rule="evenodd" clip-rule="evenodd" d="M43.2001 44.9996C43.2001 39.0349 48.0354 34.1996 54.0001 34.1996H104.324C104.678 34.1996 105.031 34.217 105.381 34.2514V58.4193C105.381 62.3957 108.605 65.6193 112.581 65.6193H135V110.38C133.26 110 131.454 109.8 129.6 109.8C115.683 109.8 104.4 121.082 104.4 135C104.4 139.12 105.389 143.009 107.142 146.442H54.0001C48.0354 146.442 43.2001 141.607 43.2001 135.642V44.9996ZM109.381 150.042H54.0001C46.0472 150.042 39.6001 143.595 39.6001 135.642V44.9996C39.6001 37.0467 46.0472 30.5996 54.0001 30.5996H104.324C108.143 30.5996 111.806 32.1167 114.506 34.8173L134.382 54.6935C137.083 57.394 138.6 61.0567 138.6 64.8758V65.4912L138.601 65.6193H138.6V111.454C148.073 115.077 154.8 124.253 154.8 135C154.8 148.917 143.518 160.2 129.6 160.2C121.321 160.2 113.974 156.207 109.381 150.042ZM59.9273 56.3268C60.6302 55.6239 61.7699 55.6239 62.4729 56.3268L68.8501 62.704L75.2273 56.3268C75.9302 55.6239 77.0699 55.6239 77.7729 56.3268C78.4758 57.0298 78.4758 58.1695 77.7729 58.8724L71.3957 65.2496L77.7729 71.6268C78.4758 72.3298 78.4758 73.4695 77.7729 74.1724C77.0699 74.8753 75.9302 74.8753 75.2273 74.1724L68.8501 67.7952L62.4729 74.1724C61.7699 74.8753 60.6302 74.8753 59.9273 74.1724C59.2244 73.4695 59.2244 72.3298 59.9273 71.6268L66.3045 65.2496L59.9273 58.8724C59.2244 58.1695 59.2244 57.0298 59.9273 56.3268ZM59.4001 90.8996C59.4001 88.4143 61.4148 86.3996 63.9001 86.3996H90.9001C93.3854 86.3996 95.4001 88.4143 95.4001 90.8996C95.4001 93.3849 93.3854 95.3996 90.9001 95.3996H63.9001C61.4148 95.3996 59.4001 93.3849 59.4001 90.8996ZM63.9001 89.9996C63.403 89.9996 63.0001 90.4026 63.0001 90.8996C63.0001 91.3967 63.403 91.7996 63.9001 91.7996H90.9001C91.3972 91.7996 91.8001 91.3967 91.8001 90.8996C91.8001 90.4026 91.3972 89.9996 90.9001 89.9996H63.9001ZM63.9001 100.8C61.4148 100.8 59.4001 102.814 59.4001 105.3C59.4001 107.785 61.4148 109.8 63.9001 109.8H114.3C116.785 109.8 118.8 107.785 118.8 105.3C118.8 102.814 116.785 100.8 114.3 100.8H63.9001ZM63.0001 105.3C63.0001 104.803 63.403 104.4 63.9001 104.4H114.3C114.797 104.4 115.2 104.803 115.2 105.3C115.2 105.797 114.797 106.2 114.3 106.2H63.9001C63.403 106.2 63.0001 105.797 63.0001 105.3ZM144.147 45.4059C142.965 43.7284 140.837 43.004 138.877 43.6121C135.81 44.5639 134.562 48.2299 136.412 50.8554L140.334 56.4237C141.55 58.1495 142.208 60.2062 142.22 62.3172L142.258 69.1602C142.273 71.7776 144.405 73.8885 147.022 73.8769C149.643 73.8653 151.757 71.7309 151.745 69.1104L151.708 61.6778C151.69 58.0464 150.559 54.5077 148.468 51.5389L144.147 45.4059ZM139.944 47.0504C140.413 46.905 140.921 47.0782 141.204 47.4792L145.525 53.6122C147.192 55.9791 148.094 58.8003 148.108 61.6956L148.145 69.1281C148.148 69.7597 147.638 70.2742 147.006 70.277C146.376 70.2797 145.862 69.771 145.858 69.1401L145.82 62.2971C145.804 59.4507 144.917 56.6774 143.277 54.3504L139.355 48.7821C138.912 48.1544 139.211 47.2779 139.944 47.0504ZM108 135C108 123.07 117.671 113.4 129.6 113.4C141.529 113.4 151.2 123.07 151.2 135C151.2 146.929 141.529 156.6 129.6 156.6C117.671 156.6 108 146.929 108 135ZM125.1 123.3C125.1 120.814 127.115 118.8 129.6 118.8C132.085 118.8 134.1 120.814 134.1 123.3V134.1C134.1 136.585 132.085 138.6 129.6 138.6C127.115 138.6 125.1 136.585 125.1 134.1V123.3ZM129.6 122.4C129.103 122.4 128.7 122.803 128.7 123.3V134.1C128.7 134.597 129.103 135 129.6 135C130.097 135 130.5 134.597 130.5 134.1V123.3C130.5 122.803 130.097 122.4 129.6 122.4ZM129.6 151.2C127.115 151.2 125.1 149.185 125.1 146.7C125.1 144.214 127.115 142.2 129.6 142.2C132.085 142.2 134.1 144.214 134.1 146.7C134.1 149.185 132.085 151.2 129.6 151.2ZM128.7 146.7C128.7 147.197 129.103 147.6 129.6 147.6C130.097 147.6 130.5 147.197 130.5 146.7C130.5 146.203 130.097 145.8 129.6 145.8C129.103 145.8 128.7 146.203 128.7 146.7Z" fill="#119494"/>
</svg>
