<svg width="1091" height="201" viewBox="0 0 1091 201" fill="none" xmlns="http://www.w3.org/2000/svg">
<g clip-path="url(#clip0_7284_23749)">
<rect width="1091" height="200" transform="translate(0 0.75293)" fill="#FBFEFF"/>
<g filter="url(#filter0_ddd_7284_23749)">
<g clip-path="url(#clip1_7284_23749)">
<rect x="-121" y="94" width="1171" height="250.003" rx="8" fill="white"/>
<g clip-path="url(#clip2_7284_23749)">
<rect x="-121" y="94" width="1171" height="250.003" rx="8" fill="white"/>
<mask id="path-5-outside-1_7284_23749" maskUnits="userSpaceOnUse" x="-121" y="93" width="1171" height="58" fill="black">
<rect fill="white" x="-121" y="93" width="1171" height="58"/>
<path d="M-121 94H1050V151H-121V94Z"/>
</mask>
<path d="M-121 95H1050V93H-121V95Z" fill="black" fill-opacity="0.03" mask="url(#path-5-outside-1_7284_23749)"/>
<mask id="path-7-inside-2_7284_23749" fill="white">
<path d="M-121 94H88.8V151H-121V94Z"/>
</mask>
<path d="M-121 94H88.8V151H-121V94Z" fill="#F9FAFB"/>
<path d="M87.8 94V151H89.8V94H87.8Z" fill="black" fill-opacity="0.03" mask="url(#path-7-inside-2_7284_23749)"/>
<mask id="path-9-inside-3_7284_23749" fill="white">
<path d="M88.8008 94H210.801V151H88.8008V94Z"/>
</mask>
<path d="M88.8008 94H210.801V151H88.8008V94Z" fill="#F9FAFB"/>
<path d="M209.801 94V151H211.801V94H209.801Z" fill="black" fill-opacity="0.03" mask="url(#path-9-inside-3_7284_23749)"/>
<path d="M107.822 117.818H109.652V124.977C109.648 125.634 109.509 126.199 109.234 126.673C108.959 127.143 108.574 127.506 108.081 127.761C107.59 128.013 107.018 128.139 106.365 128.139C105.769 128.139 105.232 128.033 104.755 127.821C104.281 127.606 103.904 127.287 103.626 126.866C103.348 126.446 103.208 125.922 103.208 125.295H105.043C105.046 125.571 105.106 125.808 105.222 126.006C105.341 126.205 105.505 126.358 105.714 126.464C105.923 126.57 106.163 126.623 106.435 126.623C106.73 126.623 106.98 126.562 107.186 126.439C107.391 126.313 107.547 126.127 107.653 125.882C107.762 125.637 107.819 125.335 107.822 124.977V117.818ZM114.954 128.149C114.188 128.149 113.527 127.99 112.97 127.672C112.417 127.35 111.991 126.896 111.692 126.31C111.394 125.72 111.245 125.025 111.245 124.227C111.245 123.441 111.394 122.752 111.692 122.158C111.994 121.562 112.415 121.098 112.955 120.766C113.496 120.432 114.13 120.264 114.859 120.264C115.33 120.264 115.774 120.34 116.192 120.493C116.613 120.642 116.984 120.874 117.305 121.189C117.63 121.504 117.885 121.905 118.071 122.392C118.257 122.876 118.349 123.453 118.349 124.122V124.674H112.09V123.461H116.624C116.621 123.116 116.546 122.81 116.401 122.541C116.255 122.269 116.051 122.056 115.789 121.9C115.531 121.744 115.229 121.666 114.884 121.666C114.516 121.666 114.193 121.756 113.915 121.935C113.636 122.11 113.419 122.342 113.263 122.631C113.111 122.916 113.033 123.229 113.03 123.57V124.629C113.03 125.073 113.111 125.455 113.273 125.773C113.436 126.088 113.663 126.33 113.955 126.499C114.246 126.664 114.588 126.747 114.979 126.747C115.241 126.747 115.478 126.711 115.69 126.638C115.902 126.562 116.086 126.451 116.241 126.305C116.397 126.159 116.515 125.978 116.594 125.763L118.275 125.952C118.169 126.396 117.967 126.784 117.668 127.115C117.373 127.443 116.996 127.698 116.535 127.881C116.074 128.06 115.547 128.149 114.954 128.149ZM121.672 123.526V128H119.872V120.364H121.592V121.661H121.682C121.857 121.234 122.137 120.894 122.522 120.642C122.91 120.39 123.389 120.264 123.959 120.264C124.486 120.264 124.945 120.377 125.336 120.602C125.73 120.828 126.035 121.154 126.251 121.582C126.469 122.009 126.577 122.528 126.574 123.138V128H124.774V123.416C124.774 122.906 124.641 122.506 124.376 122.218C124.114 121.93 123.751 121.786 123.287 121.786C122.973 121.786 122.693 121.855 122.447 121.994C122.205 122.13 122.015 122.327 121.876 122.586C121.74 122.844 121.672 123.158 121.672 123.526ZM128.403 128V120.364H130.203V128H128.403ZM129.308 119.28C129.023 119.28 128.778 119.185 128.572 118.996C128.367 118.804 128.264 118.574 128.264 118.305C128.264 118.034 128.367 117.803 128.572 117.614C128.778 117.422 129.023 117.326 129.308 117.326C129.596 117.326 129.842 117.422 130.044 117.614C130.249 117.803 130.352 118.034 130.352 118.305C130.352 118.574 130.249 118.804 130.044 118.996C129.842 119.185 129.596 119.28 129.308 119.28ZM138.089 122.382L136.449 122.561C136.402 122.395 136.321 122.24 136.205 122.094C136.092 121.948 135.94 121.83 135.748 121.741C135.555 121.651 135.32 121.607 135.042 121.607C134.667 121.607 134.352 121.688 134.097 121.85C133.845 122.013 133.721 122.223 133.724 122.482C133.721 122.704 133.802 122.884 133.968 123.023C134.137 123.163 134.415 123.277 134.803 123.366L136.105 123.645C136.828 123.801 137.365 124.048 137.716 124.386C138.071 124.724 138.25 125.166 138.253 125.713C138.25 126.194 138.109 126.618 137.831 126.986C137.556 127.35 137.173 127.635 136.682 127.841C136.192 128.046 135.628 128.149 134.992 128.149C134.057 128.149 133.305 127.954 132.735 127.562C132.165 127.168 131.825 126.62 131.716 125.917L133.471 125.748C133.55 126.093 133.719 126.353 133.978 126.528C134.236 126.704 134.573 126.792 134.987 126.792C135.414 126.792 135.757 126.704 136.016 126.528C136.278 126.353 136.409 126.136 136.409 125.877C136.409 125.658 136.324 125.478 136.155 125.335C135.989 125.193 135.731 125.083 135.38 125.007L134.077 124.734C133.345 124.581 132.803 124.324 132.451 123.963C132.1 123.598 131.926 123.138 131.929 122.581C131.926 122.11 132.054 121.703 132.312 121.358C132.574 121.01 132.937 120.741 133.401 120.553C133.868 120.36 134.407 120.264 135.017 120.264C135.912 120.264 136.616 120.455 137.13 120.836C137.647 121.217 137.967 121.732 138.089 122.382ZM143.289 128V117.818H145.134V122.496H145.258L149.23 117.818H151.483L147.545 122.387L151.517 128H149.3L146.262 123.635L145.134 124.967V128H143.289ZM155.505 128.149C154.739 128.149 154.078 127.99 153.521 127.672C152.967 127.35 152.542 126.896 152.243 126.31C151.945 125.72 151.796 125.025 151.796 124.227C151.796 123.441 151.945 122.752 152.243 122.158C152.545 121.562 152.966 121.098 153.506 120.766C154.046 120.432 154.681 120.264 155.41 120.264C155.881 120.264 156.325 120.34 156.743 120.493C157.163 120.642 157.535 120.874 157.856 121.189C158.181 121.504 158.436 121.905 158.622 122.392C158.807 122.876 158.9 123.453 158.9 124.122V124.674H152.641V123.461H157.175C157.172 123.116 157.097 122.81 156.951 122.541C156.806 122.269 156.602 122.056 156.34 121.9C156.081 121.744 155.78 121.666 155.435 121.666C155.067 121.666 154.744 121.756 154.466 121.935C154.187 122.11 153.97 122.342 153.814 122.631C153.662 122.916 153.584 123.229 153.581 123.57V124.629C153.581 125.073 153.662 125.455 153.824 125.773C153.987 126.088 154.214 126.33 154.505 126.499C154.797 126.664 155.138 126.747 155.529 126.747C155.791 126.747 156.028 126.711 156.24 126.638C156.453 126.562 156.636 126.451 156.792 126.305C156.948 126.159 157.066 125.978 157.145 125.763L158.826 125.952C158.72 126.396 158.517 126.784 158.219 127.115C157.924 127.443 157.546 127.698 157.086 127.881C156.625 128.06 156.098 128.149 155.505 128.149ZM162.222 117.818V128H160.423V117.818H162.222ZM166.271 128.154C165.787 128.154 165.351 128.068 164.963 127.896C164.579 127.72 164.274 127.461 164.048 127.12C163.826 126.779 163.715 126.358 163.715 125.857C163.715 125.426 163.795 125.07 163.954 124.788C164.113 124.507 164.33 124.281 164.605 124.112C164.88 123.943 165.19 123.816 165.535 123.729C165.883 123.64 166.242 123.575 166.614 123.536C167.061 123.489 167.424 123.448 167.702 123.411C167.981 123.371 168.183 123.312 168.309 123.232C168.438 123.149 168.503 123.022 168.503 122.849V122.82C168.503 122.445 168.392 122.155 168.17 121.95C167.948 121.744 167.628 121.641 167.21 121.641C166.769 121.641 166.42 121.737 166.161 121.93C165.906 122.122 165.734 122.349 165.644 122.611L163.964 122.372C164.096 121.908 164.315 121.52 164.62 121.209C164.925 120.894 165.298 120.659 165.739 120.503C166.179 120.344 166.667 120.264 167.2 120.264C167.568 120.264 167.934 120.307 168.299 120.393C168.664 120.48 168.997 120.622 169.298 120.821C169.6 121.017 169.842 121.283 170.024 121.621C170.21 121.96 170.303 122.382 170.303 122.889V128H168.572V126.951H168.513C168.403 127.163 168.249 127.362 168.05 127.548C167.855 127.73 167.608 127.877 167.31 127.99C167.015 128.099 166.668 128.154 166.271 128.154ZM166.738 126.832C167.099 126.832 167.412 126.76 167.678 126.618C167.943 126.472 168.147 126.28 168.289 126.041C168.435 125.803 168.508 125.542 168.508 125.261V124.361C168.451 124.407 168.355 124.45 168.219 124.49C168.087 124.53 167.938 124.565 167.772 124.594C167.606 124.624 167.442 124.651 167.28 124.674C167.117 124.697 166.977 124.717 166.857 124.734C166.589 124.77 166.348 124.83 166.136 124.913C165.924 124.996 165.757 125.112 165.634 125.261C165.512 125.406 165.45 125.595 165.45 125.827C165.45 126.159 165.571 126.409 165.813 126.578C166.055 126.747 166.363 126.832 166.738 126.832ZM172.112 128V120.364H173.832V121.661H173.922C174.081 121.224 174.344 120.882 174.712 120.637C175.08 120.388 175.519 120.264 176.03 120.264C176.547 120.264 176.983 120.39 177.337 120.642C177.695 120.891 177.947 121.23 178.093 121.661H178.173C178.342 121.237 178.627 120.899 179.028 120.647C179.432 120.392 179.911 120.264 180.464 120.264C181.167 120.264 181.741 120.486 182.185 120.93C182.629 121.375 182.851 122.022 182.851 122.874V128H181.046V123.153C181.046 122.679 180.92 122.332 180.668 122.114C180.416 121.892 180.108 121.781 179.744 121.781C179.309 121.781 178.97 121.916 178.724 122.188C178.482 122.457 178.362 122.806 178.362 123.237V128H176.597V123.078C176.597 122.684 176.477 122.369 176.239 122.134C176.003 121.898 175.695 121.781 175.314 121.781C175.055 121.781 174.82 121.847 174.608 121.979C174.396 122.109 174.227 122.293 174.101 122.531C173.975 122.767 173.912 123.042 173.912 123.357V128H172.112ZM184.677 128V120.364H186.476V128H184.677ZM185.581 119.28C185.296 119.28 185.051 119.185 184.846 118.996C184.64 118.804 184.537 118.574 184.537 118.305C184.537 118.034 184.64 117.803 184.846 117.614C185.051 117.422 185.296 117.326 185.581 117.326C185.87 117.326 186.115 117.422 186.317 117.614C186.523 117.803 186.626 118.034 186.626 118.305C186.626 118.574 186.523 118.804 186.317 118.996C186.115 119.185 185.87 119.28 185.581 119.28ZM190.127 123.526V128H188.327V120.364H190.047V121.661H190.137C190.312 121.234 190.592 120.894 190.977 120.642C191.365 120.39 191.844 120.264 192.414 120.264C192.941 120.264 193.4 120.377 193.791 120.602C194.185 120.828 194.49 121.154 194.706 121.582C194.924 122.009 195.032 122.528 195.029 123.138V128H193.229V123.416C193.229 122.906 193.096 122.506 192.831 122.218C192.569 121.93 192.207 121.786 191.743 121.786C191.428 121.786 191.148 121.855 190.902 121.994C190.66 122.13 190.47 122.327 190.331 122.586C190.195 122.844 190.127 123.158 190.127 123.526Z" fill="#D0D5DD"/>
<mask id="path-12-inside-4_7284_23749" fill="white">
<path d="M210.801 94H420.601V151H210.801V94Z"/>
</mask>
<path d="M210.801 94H420.601V151H210.801V94Z" fill="#F9FAFB"/>
<path d="M419.601 94V151H421.601V94H419.601Z" fill="black" fill-opacity="0.03" mask="url(#path-12-inside-4_7284_23749)"/>
<path d="M225.358 119.364V117.818H233.481V119.364H230.334V128H228.505V119.364H225.358ZM236.126 128.154C235.642 128.154 235.206 128.068 234.819 127.896C234.434 127.72 234.129 127.461 233.904 127.12C233.682 126.779 233.571 126.358 233.571 125.857C233.571 125.426 233.65 125.07 233.809 124.788C233.968 124.507 234.185 124.281 234.461 124.112C234.736 123.943 235.046 123.816 235.39 123.729C235.738 123.64 236.098 123.575 236.469 123.536C236.917 123.489 237.279 123.448 237.558 123.411C237.836 123.371 238.038 123.312 238.164 123.232C238.294 123.149 238.358 123.022 238.358 122.849V122.82C238.358 122.445 238.247 122.155 238.025 121.95C237.803 121.744 237.483 121.641 237.066 121.641C236.625 121.641 236.275 121.737 236.017 121.93C235.761 122.122 235.589 122.349 235.5 122.611L233.819 122.372C233.952 121.908 234.171 121.52 234.475 121.209C234.78 120.894 235.153 120.659 235.594 120.503C236.035 120.344 236.522 120.264 237.056 120.264C237.424 120.264 237.79 120.307 238.154 120.393C238.519 120.48 238.852 120.622 239.154 120.821C239.455 121.017 239.697 121.283 239.88 121.621C240.065 121.96 240.158 122.382 240.158 122.889V128H238.428V126.951H238.368C238.259 127.163 238.105 127.362 237.906 127.548C237.71 127.73 237.463 127.877 237.165 127.99C236.87 128.099 236.524 128.154 236.126 128.154ZM236.593 126.832C236.955 126.832 237.268 126.76 237.533 126.618C237.798 126.472 238.002 126.28 238.145 126.041C238.29 125.803 238.363 125.542 238.363 125.261V124.361C238.307 124.407 238.211 124.45 238.075 124.49C237.942 124.53 237.793 124.565 237.627 124.594C237.462 124.624 237.298 124.651 237.135 124.674C236.973 124.697 236.832 124.717 236.713 124.734C236.444 124.77 236.204 124.83 235.992 124.913C235.78 124.996 235.612 125.112 235.49 125.261C235.367 125.406 235.306 125.595 235.306 125.827C235.306 126.159 235.427 126.409 235.669 126.578C235.911 126.747 236.219 126.832 236.593 126.832ZM243.767 123.526V128H241.968V120.364H243.688V121.661H243.777C243.953 121.234 244.233 120.894 244.618 120.642C245.005 120.39 245.484 120.264 246.054 120.264C246.581 120.264 247.04 120.377 247.431 120.602C247.826 120.828 248.131 121.154 248.346 121.582C248.565 122.009 248.673 122.528 248.669 123.138V128H246.87V123.416C246.87 122.906 246.737 122.506 246.472 122.218C246.21 121.93 245.847 121.786 245.383 121.786C245.068 121.786 244.788 121.855 244.543 121.994C244.301 122.13 244.11 122.327 243.971 122.586C243.835 122.844 243.767 123.158 243.767 123.526ZM253.82 131.023C253.174 131.023 252.618 130.935 252.154 130.759C251.69 130.587 251.318 130.355 251.036 130.063C250.754 129.772 250.559 129.448 250.449 129.094L252.07 128.701C252.143 128.85 252.249 128.998 252.388 129.143C252.527 129.293 252.715 129.415 252.95 129.511C253.189 129.611 253.489 129.661 253.85 129.661C254.36 129.661 254.783 129.536 255.118 129.288C255.452 129.042 255.62 128.638 255.62 128.075V126.628H255.53C255.437 126.813 255.301 127.004 255.123 127.2C254.947 127.395 254.713 127.559 254.422 127.692C254.133 127.824 253.77 127.891 253.333 127.891C252.746 127.891 252.214 127.753 251.737 127.478C251.263 127.2 250.885 126.785 250.603 126.235C250.325 125.682 250.186 124.989 250.186 124.157C250.186 123.318 250.325 122.611 250.603 122.034C250.885 121.454 251.265 121.015 251.742 120.717C252.219 120.415 252.751 120.264 253.338 120.264C253.785 120.264 254.153 120.34 254.441 120.493C254.733 120.642 254.965 120.823 255.137 121.035C255.31 121.244 255.441 121.441 255.53 121.626H255.63V120.364H257.404V128.124C257.404 128.777 257.249 129.317 256.937 129.745C256.626 130.173 256.2 130.492 255.659 130.705C255.119 130.917 254.506 131.023 253.82 131.023ZM253.835 126.479C254.216 126.479 254.541 126.386 254.809 126.2C255.078 126.015 255.282 125.748 255.421 125.4C255.56 125.052 255.63 124.634 255.63 124.147C255.63 123.666 255.56 123.246 255.421 122.884C255.285 122.523 255.083 122.243 254.814 122.044C254.549 121.842 254.223 121.741 253.835 121.741C253.434 121.741 253.099 121.845 252.831 122.054C252.562 122.263 252.36 122.549 252.224 122.914C252.088 123.275 252.02 123.686 252.02 124.147C252.02 124.614 252.088 125.024 252.224 125.375C252.363 125.723 252.567 125.995 252.836 126.19C253.107 126.383 253.44 126.479 253.835 126.479ZM262.57 131.023C261.924 131.023 261.368 130.935 260.904 130.759C260.44 130.587 260.068 130.355 259.786 130.063C259.504 129.772 259.309 129.448 259.199 129.094L260.82 128.701C260.893 128.85 260.999 128.998 261.138 129.143C261.277 129.293 261.465 129.415 261.7 129.511C261.939 129.611 262.239 129.661 262.6 129.661C263.11 129.661 263.533 129.536 263.868 129.288C264.202 129.042 264.37 128.638 264.37 128.075V126.628H264.28C264.187 126.813 264.051 127.004 263.873 127.2C263.697 127.395 263.463 127.559 263.172 127.692C262.883 127.824 262.52 127.891 262.083 127.891C261.496 127.891 260.964 127.753 260.487 127.478C260.013 127.2 259.635 126.785 259.353 126.235C259.075 125.682 258.936 124.989 258.936 124.157C258.936 123.318 259.075 122.611 259.353 122.034C259.635 121.454 260.015 121.015 260.492 120.717C260.969 120.415 261.501 120.264 262.088 120.264C262.535 120.264 262.903 120.34 263.191 120.493C263.483 120.642 263.715 120.823 263.887 121.035C264.06 121.244 264.191 121.441 264.28 121.626H264.38V120.364H266.154V128.124C266.154 128.777 265.999 129.317 265.687 129.745C265.376 130.173 264.95 130.492 264.409 130.705C263.869 130.917 263.256 131.023 262.57 131.023ZM262.585 126.479C262.966 126.479 263.291 126.386 263.559 126.2C263.828 126.015 264.032 125.748 264.171 125.4C264.31 125.052 264.38 124.634 264.38 124.147C264.38 123.666 264.31 123.246 264.171 122.884C264.035 122.523 263.833 122.243 263.564 122.044C263.299 121.842 262.973 121.741 262.585 121.741C262.184 121.741 261.849 121.845 261.581 122.054C261.312 122.263 261.11 122.549 260.974 122.914C260.838 123.275 260.77 123.686 260.77 124.147C260.77 124.614 260.838 125.024 260.974 125.375C261.113 125.723 261.317 125.995 261.586 126.19C261.857 126.383 262.19 126.479 262.585 126.479ZM270.196 128.154C269.712 128.154 269.277 128.068 268.889 127.896C268.504 127.72 268.199 127.461 267.974 127.12C267.752 126.779 267.641 126.358 267.641 125.857C267.641 125.426 267.721 125.07 267.88 124.788C268.039 124.507 268.256 124.281 268.531 124.112C268.806 123.943 269.116 123.816 269.461 123.729C269.809 123.64 270.168 123.575 270.539 123.536C270.987 123.489 271.35 123.448 271.628 123.411C271.907 123.371 272.109 123.312 272.235 123.232C272.364 123.149 272.429 123.022 272.429 122.849V122.82C272.429 122.445 272.318 122.155 272.096 121.95C271.873 121.744 271.554 121.641 271.136 121.641C270.695 121.641 270.346 121.737 270.087 121.93C269.832 122.122 269.659 122.349 269.57 122.611L267.89 122.372C268.022 121.908 268.241 121.52 268.546 121.209C268.851 120.894 269.224 120.659 269.664 120.503C270.105 120.344 270.592 120.264 271.126 120.264C271.494 120.264 271.86 120.307 272.225 120.393C272.589 120.48 272.922 120.622 273.224 120.821C273.526 121.017 273.768 121.283 273.95 121.621C274.136 121.96 274.228 122.382 274.228 122.889V128H272.498V126.951H272.439C272.329 127.163 272.175 127.362 271.976 127.548C271.781 127.73 271.534 127.877 271.235 127.99C270.94 128.099 270.594 128.154 270.196 128.154ZM270.664 126.832C271.025 126.832 271.338 126.76 271.603 126.618C271.868 126.472 272.072 126.28 272.215 126.041C272.361 125.803 272.434 125.542 272.434 125.261V124.361C272.377 124.407 272.281 124.45 272.145 124.49C272.013 124.53 271.864 124.565 271.698 124.594C271.532 124.624 271.368 124.651 271.206 124.674C271.043 124.697 270.902 124.717 270.783 124.734C270.515 124.77 270.274 124.83 270.062 124.913C269.85 124.996 269.683 125.112 269.56 125.261C269.437 125.406 269.376 125.595 269.376 125.827C269.376 126.159 269.497 126.409 269.739 126.578C269.981 126.747 270.289 126.832 270.664 126.832ZM277.838 117.818V128H276.038V117.818H277.838ZM283.241 128V117.818H285.085V126.454H289.569V128H283.241ZM293.288 128.154C292.804 128.154 292.368 128.068 291.981 127.896C291.596 127.72 291.291 127.461 291.066 127.12C290.844 126.779 290.733 126.358 290.733 125.857C290.733 125.426 290.812 125.07 290.971 124.788C291.131 124.507 291.348 124.281 291.623 124.112C291.898 123.943 292.208 123.816 292.552 123.729C292.9 123.64 293.26 123.575 293.631 123.536C294.079 123.489 294.442 123.448 294.72 123.411C294.998 123.371 295.201 123.312 295.327 123.232C295.456 123.149 295.52 123.022 295.52 122.849V122.82C295.52 122.445 295.409 122.155 295.187 121.95C294.965 121.744 294.645 121.641 294.228 121.641C293.787 121.641 293.437 121.737 293.179 121.93C292.924 122.122 292.751 122.349 292.662 122.611L290.981 122.372C291.114 121.908 291.333 121.52 291.638 121.209C291.943 120.894 292.315 120.659 292.756 120.503C293.197 120.344 293.684 120.264 294.218 120.264C294.586 120.264 294.952 120.307 295.317 120.393C295.681 120.48 296.014 120.622 296.316 120.821C296.617 121.017 296.859 121.283 297.042 121.621C297.227 121.96 297.32 122.382 297.32 122.889V128H295.59V126.951H295.53C295.421 127.163 295.267 127.362 295.068 127.548C294.872 127.73 294.626 127.877 294.327 127.99C294.032 128.099 293.686 128.154 293.288 128.154ZM293.756 126.832C294.117 126.832 294.43 126.76 294.695 126.618C294.96 126.472 295.164 126.28 295.307 126.041C295.452 125.803 295.525 125.542 295.525 125.261V124.361C295.469 124.407 295.373 124.45 295.237 124.49C295.104 124.53 294.955 124.565 294.79 124.594C294.624 124.624 294.46 124.651 294.297 124.674C294.135 124.697 293.994 124.717 293.875 124.734C293.606 124.77 293.366 124.83 293.154 124.913C292.942 124.996 292.774 125.112 292.652 125.261C292.529 125.406 292.468 125.595 292.468 125.827C292.468 126.159 292.589 126.409 292.831 126.578C293.073 126.747 293.381 126.832 293.756 126.832ZM300.93 123.526V128H299.13V117.818H300.89V121.661H300.979C301.158 121.23 301.435 120.891 301.809 120.642C302.187 120.39 302.668 120.264 303.251 120.264C303.782 120.264 304.244 120.375 304.638 120.597C305.033 120.819 305.338 121.144 305.553 121.572C305.772 121.999 305.881 122.521 305.881 123.138V128H304.081V123.416C304.081 122.902 303.949 122.503 303.684 122.218C303.422 121.93 303.054 121.786 302.58 121.786C302.262 121.786 301.977 121.855 301.725 121.994C301.476 122.13 301.281 122.327 301.138 122.586C300.999 122.844 300.93 123.158 300.93 123.526ZM307.716 128V120.364H309.515V128H307.716ZM308.621 119.28C308.336 119.28 308.09 119.185 307.885 118.996C307.679 118.804 307.577 118.574 307.577 118.305C307.577 118.034 307.679 117.803 307.885 117.614C308.09 117.422 308.336 117.326 308.621 117.326C308.909 117.326 309.154 117.422 309.356 117.614C309.562 117.803 309.665 118.034 309.665 118.305C309.665 118.574 309.562 118.804 309.356 118.996C309.154 119.185 308.909 119.28 308.621 119.28ZM311.366 128V120.364H313.111V121.636H313.191C313.33 121.196 313.569 120.856 313.907 120.617C314.248 120.375 314.637 120.254 315.075 120.254C315.174 120.254 315.285 120.259 315.408 120.269C315.534 120.276 315.638 120.287 315.721 120.304V121.96C315.645 121.933 315.524 121.91 315.358 121.89C315.196 121.867 315.038 121.855 314.886 121.855C314.558 121.855 314.263 121.926 314.001 122.069C313.743 122.208 313.539 122.402 313.39 122.651C313.24 122.899 313.166 123.186 313.166 123.511V128H311.366Z" fill="#D0D5DD"/>
<mask id="path-15-inside-5_7284_23749" fill="white">
<path d="M420.602 94H630.402V151H420.602V94Z"/>
</mask>
<path d="M420.602 94H630.402V151H420.602V94Z" fill="#F9FAFB"/>
<path d="M629.402 94V151H631.402V94H629.402Z" fill="black" fill-opacity="0.03" mask="url(#path-15-inside-5_7284_23749)"/>
<path d="M443.973 117.818V128H442.332L437.535 121.065H437.45V128H435.606V117.818H437.256L442.049 124.759H442.138V117.818H443.973ZM448.101 128.154C447.617 128.154 447.181 128.068 446.793 127.896C446.409 127.72 446.104 127.461 445.878 127.12C445.656 126.779 445.545 126.358 445.545 125.857C445.545 125.426 445.625 125.07 445.784 124.788C445.943 124.507 446.16 124.281 446.435 124.112C446.71 123.943 447.02 123.816 447.365 123.729C447.713 123.64 448.073 123.575 448.444 123.536C448.891 123.489 449.254 123.448 449.532 123.411C449.811 123.371 450.013 123.312 450.139 123.232C450.268 123.149 450.333 123.022 450.333 122.849V122.82C450.333 122.445 450.222 122.155 450 121.95C449.778 121.744 449.458 121.641 449.04 121.641C448.599 121.641 448.25 121.737 447.991 121.93C447.736 122.122 447.564 122.349 447.474 122.611L445.794 122.372C445.926 121.908 446.145 121.52 446.45 121.209C446.755 120.894 447.128 120.659 447.569 120.503C448.01 120.344 448.497 120.264 449.03 120.264C449.398 120.264 449.765 120.307 450.129 120.393C450.494 120.48 450.827 120.622 451.128 120.821C451.43 121.017 451.672 121.283 451.854 121.621C452.04 121.96 452.133 122.382 452.133 122.889V128H450.403V126.951H450.343C450.233 127.163 450.079 127.362 449.881 127.548C449.685 127.73 449.438 127.877 449.14 127.99C448.845 128.099 448.498 128.154 448.101 128.154ZM448.568 126.832C448.929 126.832 449.242 126.76 449.508 126.618C449.773 126.472 449.977 126.28 450.119 126.041C450.265 125.803 450.338 125.542 450.338 125.261V124.361C450.282 124.407 450.185 124.45 450.05 124.49C449.917 124.53 449.768 124.565 449.602 124.594C449.436 124.624 449.272 124.651 449.11 124.674C448.948 124.697 448.807 124.717 448.687 124.734C448.419 124.77 448.179 124.83 447.966 124.913C447.754 124.996 447.587 125.112 447.464 125.261C447.342 125.406 447.28 125.595 447.28 125.827C447.28 126.159 447.401 126.409 447.643 126.578C447.885 126.747 448.193 126.832 448.568 126.832ZM453.942 128V120.364H455.662V121.661H455.752C455.911 121.224 456.175 120.882 456.542 120.637C456.91 120.388 457.349 120.264 457.86 120.264C458.377 120.264 458.813 120.39 459.167 120.642C459.525 120.891 459.777 121.23 459.923 121.661H460.003C460.172 121.237 460.457 120.899 460.858 120.647C461.262 120.392 461.741 120.264 462.295 120.264C462.997 120.264 463.571 120.486 464.015 120.93C464.459 121.375 464.681 122.022 464.681 122.874V128H462.876V123.153C462.876 122.679 462.75 122.332 462.498 122.114C462.247 121.892 461.938 121.781 461.574 121.781C461.14 121.781 460.8 121.916 460.555 122.188C460.313 122.457 460.192 122.806 460.192 123.237V128H458.427V123.078C458.427 122.684 458.307 122.369 458.069 122.134C457.833 121.898 457.525 121.781 457.144 121.781C456.885 121.781 456.65 121.847 456.438 121.979C456.226 122.109 456.057 122.293 455.931 122.531C455.805 122.767 455.742 123.042 455.742 123.357V128H453.942ZM468.704 128.154C468.22 128.154 467.784 128.068 467.397 127.896C467.012 127.72 466.707 127.461 466.482 127.12C466.26 126.779 466.149 126.358 466.149 125.857C466.149 125.426 466.228 125.07 466.387 124.788C466.547 124.507 466.764 124.281 467.039 124.112C467.314 123.943 467.624 123.816 467.968 123.729C468.316 123.64 468.676 123.575 469.047 123.536C469.495 123.489 469.858 123.448 470.136 123.411C470.414 123.371 470.617 123.312 470.743 123.232C470.872 123.149 470.936 123.022 470.936 122.849V122.82C470.936 122.445 470.825 122.155 470.603 121.95C470.381 121.744 470.061 121.641 469.644 121.641C469.203 121.641 468.853 121.737 468.595 121.93C468.34 122.122 468.167 122.349 468.078 122.611L466.397 122.372C466.53 121.908 466.749 121.52 467.054 121.209C467.359 120.894 467.731 120.659 468.172 120.503C468.613 120.344 469.1 120.264 469.634 120.264C470.002 120.264 470.368 120.307 470.733 120.393C471.097 120.48 471.43 120.622 471.732 120.821C472.033 121.017 472.275 121.283 472.458 121.621C472.643 121.96 472.736 122.382 472.736 122.889V128H471.006V126.951H470.946C470.837 127.163 470.683 127.362 470.484 127.548C470.288 127.73 470.042 127.877 469.743 127.99C469.448 128.099 469.102 128.154 468.704 128.154ZM469.172 126.832C469.533 126.832 469.846 126.76 470.111 126.618C470.376 126.472 470.58 126.28 470.723 126.041C470.868 125.803 470.941 125.542 470.941 125.261V124.361C470.885 124.407 470.789 124.45 470.653 124.49C470.52 124.53 470.371 124.565 470.206 124.594C470.04 124.624 469.876 124.651 469.713 124.674C469.551 124.697 469.41 124.717 469.291 124.734C469.022 124.77 468.782 124.83 468.57 124.913C468.358 124.996 468.19 125.112 468.068 125.261C467.945 125.406 467.884 125.595 467.884 125.827C467.884 126.159 468.005 126.409 468.247 126.578C468.489 126.747 468.797 126.832 469.172 126.832ZM487.196 122.909C487.196 124.006 486.991 124.946 486.58 125.728C486.172 126.507 485.615 127.103 484.909 127.518C484.206 127.932 483.409 128.139 482.518 128.139C481.626 128.139 480.827 127.932 480.121 127.518C479.419 127.1 478.862 126.502 478.451 125.723C478.043 124.941 477.839 124.003 477.839 122.909C477.839 121.812 478.043 120.874 478.451 120.095C478.862 119.313 479.419 118.715 480.121 118.3C480.827 117.886 481.626 117.679 482.518 117.679C483.409 117.679 484.206 117.886 484.909 118.3C485.615 118.715 486.172 119.313 486.58 120.095C486.991 120.874 487.196 121.812 487.196 122.909ZM485.342 122.909C485.342 122.137 485.221 121.486 484.979 120.955C484.74 120.422 484.409 120.019 483.984 119.747C483.56 119.472 483.071 119.335 482.518 119.335C481.964 119.335 481.475 119.472 481.051 119.747C480.627 120.019 480.294 120.422 480.052 120.955C479.813 121.486 479.694 122.137 479.694 122.909C479.694 123.681 479.813 124.334 480.052 124.868C480.294 125.398 480.627 125.801 481.051 126.076C481.475 126.348 481.964 126.484 482.518 126.484C483.071 126.484 483.56 126.348 483.984 126.076C484.409 125.801 484.74 125.398 484.979 124.868C485.221 124.334 485.342 123.681 485.342 122.909ZM488.86 128V120.364H490.605V121.636H490.685C490.824 121.196 491.063 120.856 491.401 120.617C491.742 120.375 492.132 120.254 492.569 120.254C492.669 120.254 492.78 120.259 492.902 120.269C493.028 120.276 493.133 120.287 493.215 120.304V121.96C493.139 121.933 493.018 121.91 492.852 121.89C492.69 121.867 492.533 121.855 492.38 121.855C492.052 121.855 491.757 121.926 491.495 122.069C491.237 122.208 491.033 122.402 490.884 122.651C490.735 122.899 490.66 123.186 490.66 123.511V128H488.86ZM496.472 128.154C495.988 128.154 495.552 128.068 495.164 127.896C494.78 127.72 494.475 127.461 494.249 127.12C494.027 126.779 493.916 126.358 493.916 125.857C493.916 125.426 493.996 125.07 494.155 124.788C494.314 124.507 494.531 124.281 494.806 124.112C495.081 123.943 495.391 123.816 495.736 123.729C496.084 123.64 496.444 123.575 496.815 123.536C497.262 123.489 497.625 123.448 497.904 123.411C498.182 123.371 498.384 123.312 498.51 123.232C498.639 123.149 498.704 123.022 498.704 122.849V122.82C498.704 122.445 498.593 122.155 498.371 121.95C498.149 121.744 497.829 121.641 497.411 121.641C496.971 121.641 496.621 121.737 496.362 121.93C496.107 122.122 495.935 122.349 495.845 122.611L494.165 122.372C494.298 121.908 494.516 121.52 494.821 121.209C495.126 120.894 495.499 120.659 495.94 120.503C496.381 120.344 496.868 120.264 497.401 120.264C497.769 120.264 498.136 120.307 498.5 120.393C498.865 120.48 499.198 120.622 499.499 120.821C499.801 121.017 500.043 121.283 500.225 121.621C500.411 121.96 500.504 122.382 500.504 122.889V128H498.774V126.951H498.714C498.605 127.163 498.45 127.362 498.252 127.548C498.056 127.73 497.809 127.877 497.511 127.99C497.216 128.099 496.869 128.154 496.472 128.154ZM496.939 126.832C497.3 126.832 497.614 126.76 497.879 126.618C498.144 126.472 498.348 126.28 498.49 126.041C498.636 125.803 498.709 125.542 498.709 125.261V124.361C498.653 124.407 498.557 124.45 498.421 124.49C498.288 124.53 498.139 124.565 497.973 124.594C497.807 124.624 497.643 124.651 497.481 124.674C497.319 124.697 497.178 124.717 497.058 124.734C496.79 124.77 496.55 124.83 496.338 124.913C496.125 124.996 495.958 125.112 495.835 125.261C495.713 125.406 495.651 125.595 495.651 125.827C495.651 126.159 495.772 126.409 496.014 126.578C496.256 126.747 496.565 126.832 496.939 126.832ZM504.113 123.526V128H502.313V120.364H504.034V121.661H504.123C504.299 121.234 504.579 120.894 504.963 120.642C505.351 120.39 505.83 120.264 506.4 120.264C506.927 120.264 507.386 120.377 507.777 120.602C508.172 120.828 508.477 121.154 508.692 121.582C508.911 122.009 509.018 122.528 509.015 123.138V128H507.215V123.416C507.215 122.906 507.083 122.506 506.818 122.218C506.556 121.93 506.193 121.786 505.729 121.786C505.414 121.786 505.134 121.855 504.889 121.994C504.647 122.13 504.456 122.327 504.317 122.586C504.181 122.844 504.113 123.158 504.113 123.526ZM514.166 131.023C513.519 131.023 512.964 130.935 512.5 130.759C512.036 130.587 511.663 130.355 511.382 130.063C511.1 129.772 510.904 129.448 510.795 129.094L512.416 128.701C512.489 128.85 512.595 128.998 512.734 129.143C512.873 129.293 513.06 129.415 513.296 129.511C513.534 129.611 513.834 129.661 514.195 129.661C514.706 129.661 515.128 129.536 515.463 129.288C515.798 129.042 515.965 128.638 515.965 128.075V126.628H515.876C515.783 126.813 515.647 127.004 515.468 127.2C515.293 127.395 515.059 127.559 514.767 127.692C514.479 127.824 514.116 127.891 513.678 127.891C513.092 127.891 512.56 127.753 512.083 127.478C511.609 127.2 511.231 126.785 510.949 126.235C510.671 125.682 510.531 124.989 510.531 124.157C510.531 123.318 510.671 122.611 510.949 122.034C511.231 121.454 511.61 121.015 512.088 120.717C512.565 120.415 513.097 120.264 513.683 120.264C514.131 120.264 514.499 120.34 514.787 120.493C515.079 120.642 515.311 120.823 515.483 121.035C515.655 121.244 515.786 121.441 515.876 121.626H515.975V120.364H517.75V128.124C517.75 128.777 517.594 129.317 517.283 129.745C516.971 130.173 516.545 130.492 516.005 130.705C515.465 130.917 514.852 131.023 514.166 131.023ZM514.181 126.479C514.562 126.479 514.887 126.386 515.155 126.2C515.423 126.015 515.627 125.748 515.767 125.4C515.906 125.052 515.975 124.634 515.975 124.147C515.975 123.666 515.906 123.246 515.767 122.884C515.631 122.523 515.428 122.243 515.16 122.044C514.895 121.842 514.568 121.741 514.181 121.741C513.78 121.741 513.445 121.845 513.176 122.054C512.908 122.263 512.706 122.549 512.57 122.914C512.434 123.275 512.366 123.686 512.366 124.147C512.366 124.614 512.434 125.024 512.57 125.375C512.709 125.723 512.913 125.995 513.181 126.19C513.453 126.383 513.786 126.479 514.181 126.479ZM522.699 119.364V117.818H530.823V119.364H527.676V128H525.846V119.364H522.699ZM536.138 124.788V120.364H537.937V128H536.192V126.643H536.113C535.94 127.07 535.657 127.42 535.263 127.692C534.872 127.964 534.389 128.099 533.816 128.099C533.315 128.099 532.873 127.988 532.488 127.766C532.107 127.541 531.809 127.214 531.594 126.787C531.378 126.356 531.27 125.836 531.27 125.226V120.364H533.07V124.947C533.07 125.431 533.203 125.816 533.468 126.101C533.733 126.386 534.081 126.528 534.512 126.528C534.777 126.528 535.034 126.464 535.282 126.335C535.531 126.205 535.735 126.013 535.894 125.758C536.056 125.499 536.138 125.176 536.138 124.788ZM541.985 128.154C541.502 128.154 541.066 128.068 540.678 127.896C540.293 127.72 539.989 127.461 539.763 127.12C539.541 126.779 539.43 126.358 539.43 125.857C539.43 125.426 539.51 125.07 539.669 124.788C539.828 124.507 540.045 124.281 540.32 124.112C540.595 123.943 540.905 123.816 541.25 123.729C541.598 123.64 541.957 123.575 542.328 123.536C542.776 123.489 543.139 123.448 543.417 123.411C543.696 123.371 543.898 123.312 544.024 123.232C544.153 123.149 544.218 123.022 544.218 122.849V122.82C544.218 122.445 544.107 122.155 543.885 121.95C543.663 121.744 543.343 121.641 542.925 121.641C542.484 121.641 542.135 121.737 541.876 121.93C541.621 122.122 541.449 122.349 541.359 122.611L539.679 122.372C539.811 121.908 540.03 121.52 540.335 121.209C540.64 120.894 541.013 120.659 541.453 120.503C541.894 120.344 542.382 120.264 542.915 120.264C543.283 120.264 543.649 120.307 544.014 120.393C544.378 120.48 544.712 120.622 545.013 120.821C545.315 121.017 545.557 121.283 545.739 121.621C545.925 121.96 546.017 122.382 546.017 122.889V128H544.287V126.951H544.228C544.118 127.163 543.964 127.362 543.765 127.548C543.57 127.73 543.323 127.877 543.025 127.99C542.73 128.099 542.383 128.154 541.985 128.154ZM542.453 126.832C542.814 126.832 543.127 126.76 543.392 126.618C543.658 126.472 543.861 126.28 544.004 126.041C544.15 125.803 544.223 125.542 544.223 125.261V124.361C544.166 124.407 544.07 124.45 543.934 124.49C543.802 124.53 543.653 124.565 543.487 124.594C543.321 124.624 543.157 124.651 542.995 124.674C542.832 124.697 542.691 124.717 542.572 124.734C542.304 124.77 542.063 124.83 541.851 124.913C541.639 124.996 541.472 125.112 541.349 125.261C541.226 125.406 541.165 125.595 541.165 125.827C541.165 126.159 541.286 126.409 541.528 126.578C541.77 126.747 542.078 126.832 542.453 126.832Z" fill="#D0D5DD"/>
<mask id="path-18-inside-6_7284_23749" fill="white">
<path d="M630.398 94H840.198V151H630.398V94Z"/>
</mask>
<path d="M630.398 94H840.198V151H630.398V94Z" fill="#F9FAFB"/>
<path d="M839.198 94V151H841.198V94H839.198Z" fill="black" fill-opacity="0.03" mask="url(#path-18-inside-6_7284_23749)"/>
<path d="M653.77 117.818V128H652.129L647.332 121.065H647.247V128H645.403V117.818H647.053L651.846 124.759H651.935V117.818H653.77ZM657.624 117.818V128H655.78V117.818H657.624ZM659.621 128V117.818H661.466V122.496H661.59L665.562 117.818H667.815L663.877 122.387L667.849 128H665.632L662.594 123.635L661.466 124.967V128H659.621Z" fill="#D0D5DD"/>
<mask id="path-21-inside-7_7284_23749" fill="white">
<path d="M840.199 94H1050V151H840.199V94Z"/>
</mask>
<path d="M840.199 94H1050V151H840.199V94Z" fill="#F9FAFB"/>
<path d="M1049 94V151H1051V94H1049Z" fill="black" fill-opacity="0.03" mask="url(#path-21-inside-7_7284_23749)"/>
<path d="M856.511 128H854.542L858.127 117.818H860.404L863.993 128H862.025L859.305 119.906H859.225L856.511 128ZM856.576 124.008H861.945V125.489H856.576V124.008ZM867.055 117.818V128H865.255V117.818H867.055ZM871.103 128.154C870.619 128.154 870.183 128.068 869.795 127.896C869.411 127.72 869.106 127.461 868.88 127.12C868.658 126.779 868.547 126.358 868.547 125.857C868.547 125.426 868.627 125.07 868.786 124.788C868.945 124.507 869.162 124.281 869.437 124.112C869.712 123.943 870.022 123.816 870.367 123.729C870.715 123.64 871.074 123.575 871.446 123.536C871.893 123.489 872.256 123.448 872.534 123.411C872.813 123.371 873.015 123.312 873.141 123.232C873.27 123.149 873.335 123.022 873.335 122.849V122.82C873.335 122.445 873.224 122.155 873.002 121.95C872.78 121.744 872.46 121.641 872.042 121.641C871.601 121.641 871.252 121.737 870.993 121.93C870.738 122.122 870.566 122.349 870.476 122.611L868.796 122.372C868.928 121.908 869.147 121.52 869.452 121.209C869.757 120.894 870.13 120.659 870.571 120.503C871.011 120.344 871.499 120.264 872.032 120.264C872.4 120.264 872.766 120.307 873.131 120.393C873.496 120.48 873.829 120.622 874.13 120.821C874.432 121.017 874.674 121.283 874.856 121.621C875.042 121.96 875.135 122.382 875.135 122.889V128H873.404V126.951H873.345C873.235 127.163 873.081 127.362 872.882 127.548C872.687 127.73 872.44 127.877 872.142 127.99C871.847 128.099 871.5 128.154 871.103 128.154ZM871.57 126.832C871.931 126.832 872.244 126.76 872.51 126.618C872.775 126.472 872.979 126.28 873.121 126.041C873.267 125.803 873.34 125.542 873.34 125.261V124.361C873.283 124.407 873.187 124.45 873.051 124.49C872.919 124.53 872.77 124.565 872.604 124.594C872.438 124.624 872.274 124.651 872.112 124.674C871.949 124.697 871.809 124.717 871.689 124.734C871.421 124.77 871.181 124.83 870.968 124.913C870.756 124.996 870.589 125.112 870.466 125.261C870.344 125.406 870.282 125.595 870.282 125.827C870.282 126.159 870.403 126.409 870.645 126.578C870.887 126.747 871.195 126.832 871.57 126.832ZM876.944 128V120.364H878.664V121.661H878.754C878.913 121.224 879.176 120.882 879.544 120.637C879.912 120.388 880.351 120.264 880.862 120.264C881.379 120.264 881.815 120.39 882.169 120.642C882.527 120.891 882.779 121.23 882.925 121.661H883.005C883.174 121.237 883.459 120.899 883.86 120.647C884.264 120.392 884.743 120.264 885.297 120.264C885.999 120.264 886.573 120.486 887.017 120.93C887.461 121.375 887.683 122.022 887.683 122.874V128H885.878V123.153C885.878 122.679 885.752 122.332 885.5 122.114C885.248 121.892 884.94 121.781 884.576 121.781C884.141 121.781 883.802 121.916 883.556 122.188C883.315 122.457 883.194 122.806 883.194 123.237V128H881.429V123.078C881.429 122.684 881.309 122.369 881.071 122.134C880.835 121.898 880.527 121.781 880.146 121.781C879.887 121.781 879.652 121.847 879.44 121.979C879.228 122.109 879.059 122.293 878.933 122.531C878.807 122.767 878.744 123.042 878.744 123.357V128H876.944ZM891.706 128.154C891.222 128.154 890.786 128.068 890.399 127.896C890.014 127.72 889.709 127.461 889.484 127.12C889.262 126.779 889.151 126.358 889.151 125.857C889.151 125.426 889.23 125.07 889.389 124.788C889.548 124.507 889.766 124.281 890.041 124.112C890.316 123.943 890.626 123.816 890.97 123.729C891.318 123.64 891.678 123.575 892.049 123.536C892.497 123.489 892.86 123.448 893.138 123.411C893.416 123.371 893.619 123.312 893.744 123.232C893.874 123.149 893.938 123.022 893.938 122.849V122.82C893.938 122.445 893.827 122.155 893.605 121.95C893.383 121.744 893.063 121.641 892.646 121.641C892.205 121.641 891.855 121.737 891.597 121.93C891.342 122.122 891.169 122.349 891.08 122.611L889.399 122.372C889.532 121.908 889.751 121.52 890.056 121.209C890.36 120.894 890.733 120.659 891.174 120.503C891.615 120.344 892.102 120.264 892.636 120.264C893.004 120.264 893.37 120.307 893.735 120.393C894.099 120.48 894.432 120.622 894.734 120.821C895.035 121.017 895.277 121.283 895.46 121.621C895.645 121.96 895.738 122.382 895.738 122.889V128H894.008V126.951H893.948C893.839 127.163 893.685 127.362 893.486 127.548C893.29 127.73 893.044 127.877 892.745 127.99C892.45 128.099 892.104 128.154 891.706 128.154ZM892.173 126.832C892.535 126.832 892.848 126.76 893.113 126.618C893.378 126.472 893.582 126.28 893.725 126.041C893.87 125.803 893.943 125.542 893.943 125.261V124.361C893.887 124.407 893.791 124.45 893.655 124.49C893.522 124.53 893.373 124.565 893.208 124.594C893.042 124.624 892.878 124.651 892.715 124.674C892.553 124.697 892.412 124.717 892.293 124.734C892.024 124.77 891.784 124.83 891.572 124.913C891.36 124.996 891.192 125.112 891.07 125.261C890.947 125.406 890.886 125.595 890.886 125.827C890.886 126.159 891.007 126.409 891.249 126.578C891.491 126.747 891.799 126.832 892.173 126.832ZM901.361 120.364V121.756H896.971V120.364H901.361ZM898.055 118.534H899.855V125.703C899.855 125.945 899.891 126.131 899.964 126.26C900.04 126.386 900.14 126.472 900.262 126.518C900.385 126.565 900.521 126.588 900.67 126.588C900.783 126.588 900.885 126.58 900.978 126.563C901.074 126.547 901.147 126.532 901.197 126.518L901.5 127.925C901.404 127.959 901.267 127.995 901.088 128.035C900.912 128.075 900.696 128.098 900.441 128.104C899.99 128.118 899.584 128.05 899.223 127.901C898.862 127.748 898.575 127.513 898.363 127.195C898.154 126.876 898.052 126.479 898.055 126.001V118.534Z" fill="#475467"/>
<mask id="path-24-inside-8_7284_23749" fill="white">
<path d="M-121 151H88.8V208H-121V151Z"/>
</mask>
<path d="M-121 151H88.8V208H-121V151Z" fill="white"/>
<path d="M87.8 151V208H89.8V151H87.8Z" fill="black" fill-opacity="0.03" mask="url(#path-24-inside-8_7284_23749)"/>
<mask id="path-26-inside-9_7284_23749" fill="white">
<path d="M88.8008 151H210.801V208H88.8008V151Z"/>
</mask>
<path d="M88.8008 151H210.801V208H88.8008V151Z" fill="white"/>
<path d="M209.801 151V208H211.801V151H209.801Z" fill="black" fill-opacity="0.03" mask="url(#path-26-inside-9_7284_23749)"/>
<path d="M103.919 185V174.818H105.456V183.678H110.069V185H103.919ZM111.822 185V174.818H113.358V179.68H113.482L117.753 174.818H119.687L115.58 179.402L119.702 185H117.852L114.561 180.451L113.358 181.833V185H111.822Z" fill="#D0D5DD"/>
<mask id="path-29-inside-10_7284_23749" fill="white">
<path d="M210.801 151H420.601V208H210.801V151Z"/>
</mask>
<path d="M210.801 151H420.601V208H210.801V151Z" fill="white"/>
<path d="M419.601 151V208H421.601V151H419.601Z" fill="black" fill-opacity="0.03" mask="url(#path-29-inside-10_7284_23749)"/>
<path d="M229.36 185.139C228.644 185.139 228.007 185.017 227.451 184.771C226.897 184.526 226.46 184.185 226.138 183.747C225.817 183.31 225.646 182.804 225.626 182.231H227.495C227.512 182.506 227.603 182.746 227.769 182.952C227.935 183.154 228.155 183.311 228.43 183.424C228.705 183.537 229.013 183.593 229.355 183.593C229.719 183.593 230.042 183.53 230.324 183.404C230.606 183.275 230.826 183.096 230.985 182.867C231.145 182.638 231.222 182.375 231.219 182.077C231.222 181.768 231.143 181.497 230.98 181.261C230.818 181.026 230.583 180.842 230.275 180.71C229.97 180.577 229.602 180.511 229.171 180.511H228.271V179.089H229.171C229.525 179.089 229.835 179.027 230.1 178.905C230.369 178.782 230.579 178.61 230.732 178.388C230.884 178.162 230.959 177.902 230.956 177.607C230.959 177.319 230.894 177.069 230.762 176.857C230.632 176.641 230.449 176.474 230.21 176.354C229.975 176.235 229.698 176.175 229.38 176.175C229.068 176.175 228.78 176.232 228.515 176.344C228.249 176.457 228.036 176.618 227.873 176.827C227.711 177.032 227.625 177.277 227.615 177.562H225.84C225.853 176.992 226.017 176.492 226.332 176.061C226.65 175.627 227.074 175.289 227.605 175.047C228.135 174.802 228.73 174.679 229.39 174.679C230.069 174.679 230.659 174.807 231.159 175.062C231.663 175.314 232.053 175.653 232.328 176.081C232.603 176.509 232.74 176.981 232.74 177.498C232.744 178.071 232.575 178.552 232.233 178.94C231.895 179.327 231.451 179.581 230.901 179.7V179.78C231.617 179.879 232.165 180.144 232.547 180.575C232.931 181.003 233.122 181.535 233.118 182.171C233.118 182.741 232.956 183.252 232.631 183.702C232.31 184.15 231.865 184.501 231.299 184.756C230.735 185.012 230.089 185.139 229.36 185.139ZM238.966 174.818V185H237.122V176.613H237.062L234.681 178.134V176.444L237.211 174.818H238.966ZM246.2 179.168V180.65H241.616V179.168H246.2ZM251.836 185.194C251.018 185.194 250.315 184.987 249.728 184.572C249.145 184.155 248.696 183.553 248.381 182.768C248.069 181.979 247.914 181.029 247.914 179.919C247.917 178.809 248.074 177.864 248.386 177.085C248.701 176.303 249.15 175.706 249.733 175.295C250.32 174.884 251.021 174.679 251.836 174.679C252.652 174.679 253.353 174.884 253.939 175.295C254.526 175.706 254.975 176.303 255.287 177.085C255.601 177.867 255.759 178.812 255.759 179.919C255.759 181.033 255.601 181.984 255.287 182.773C254.975 183.558 254.526 184.158 253.939 184.572C253.356 184.987 252.655 185.194 251.836 185.194ZM251.836 183.638C252.473 183.638 252.975 183.325 253.343 182.698C253.714 182.068 253.9 181.142 253.9 179.919C253.9 179.11 253.815 178.431 253.646 177.881C253.477 177.33 253.238 176.916 252.93 176.638C252.622 176.356 252.257 176.215 251.836 176.215C251.203 176.215 250.703 176.53 250.335 177.16C249.967 177.786 249.781 178.706 249.778 179.919C249.775 180.731 249.856 181.414 250.022 181.967C250.191 182.521 250.429 182.938 250.738 183.22C251.046 183.499 251.412 183.638 251.836 183.638ZM261.139 185.139C260.652 185.136 260.177 185.051 259.713 184.886C259.249 184.717 258.831 184.443 258.46 184.065C258.088 183.684 257.794 183.179 257.575 182.549C257.356 181.916 257.248 181.132 257.252 180.197C257.252 179.326 257.344 178.549 257.53 177.866C257.716 177.183 257.982 176.606 258.33 176.136C258.678 175.662 259.098 175.3 259.588 175.052C260.082 174.803 260.634 174.679 261.244 174.679C261.883 174.679 262.45 174.805 262.944 175.057C263.441 175.309 263.842 175.653 264.147 176.091C264.452 176.525 264.641 177.016 264.714 177.562H262.899C262.807 177.171 262.616 176.86 262.328 176.628C262.043 176.393 261.681 176.275 261.244 176.275C260.538 176.275 259.994 176.581 259.613 177.195C259.235 177.808 259.045 178.65 259.041 179.72H259.111C259.273 179.429 259.484 179.178 259.742 178.969C260.001 178.761 260.293 178.6 260.617 178.487C260.945 178.371 261.292 178.313 261.656 178.313C262.253 178.313 262.788 178.456 263.262 178.741C263.74 179.026 264.117 179.419 264.396 179.919C264.674 180.416 264.812 180.986 264.808 181.629C264.812 182.299 264.659 182.9 264.351 183.434C264.043 183.964 263.614 184.382 263.063 184.687C262.513 184.992 261.872 185.143 261.139 185.139ZM261.129 183.648C261.491 183.648 261.814 183.56 262.099 183.384C262.384 183.209 262.609 182.972 262.775 182.673C262.941 182.375 263.022 182.04 263.019 181.669C263.022 181.304 262.942 180.975 262.78 180.68C262.621 180.385 262.401 180.151 262.119 179.979C261.837 179.806 261.516 179.72 261.154 179.72C260.886 179.72 260.636 179.772 260.404 179.874C260.172 179.977 259.969 180.12 259.797 180.302C259.625 180.481 259.489 180.69 259.389 180.928C259.293 181.164 259.244 181.415 259.24 181.684C259.244 182.039 259.326 182.365 259.489 182.663C259.651 182.962 259.875 183.2 260.16 183.379C260.445 183.558 260.768 183.648 261.129 183.648ZM271.137 179.168V180.65H266.553V179.168H271.137ZM272.655 185V183.668L276.19 180.202C276.528 179.861 276.809 179.558 277.035 179.293C277.26 179.027 277.429 178.771 277.542 178.522C277.655 178.273 277.711 178.008 277.711 177.727C277.711 177.405 277.638 177.13 277.492 176.901C277.346 176.669 277.146 176.49 276.891 176.364C276.635 176.238 276.345 176.175 276.021 176.175C275.686 176.175 275.393 176.245 275.141 176.384C274.889 176.52 274.693 176.714 274.554 176.966C274.418 177.218 274.35 177.518 274.35 177.866H272.595C272.595 177.219 272.743 176.658 273.038 176.18C273.333 175.703 273.739 175.334 274.256 175.072C274.776 174.81 275.373 174.679 276.045 174.679C276.728 174.679 277.328 174.807 277.845 175.062C278.362 175.317 278.763 175.667 279.048 176.111C279.337 176.555 279.481 177.062 279.481 177.632C279.481 178.013 279.408 178.388 279.262 178.756C279.116 179.124 278.859 179.531 278.491 179.979C278.127 180.426 277.615 180.968 276.955 181.604L275.2 183.389V183.459H279.635V185H272.655ZM285.114 185.194C284.295 185.194 283.592 184.987 283.006 184.572C282.422 184.155 281.973 183.553 281.658 182.768C281.347 181.979 281.191 181.029 281.191 179.919C281.194 178.809 281.352 177.864 281.663 177.085C281.978 176.303 282.427 175.706 283.011 175.295C283.597 174.884 284.298 174.679 285.114 174.679C285.929 174.679 286.63 174.884 287.217 175.295C287.803 175.706 288.252 176.303 288.564 177.085C288.879 177.867 289.036 178.812 289.036 179.919C289.036 181.033 288.879 181.984 288.564 182.773C288.252 183.558 287.803 184.158 287.217 184.572C286.633 184.987 285.932 185.194 285.114 185.194ZM285.114 183.638C285.75 183.638 286.252 183.325 286.62 182.698C286.991 182.068 287.177 181.142 287.177 179.919C287.177 179.11 287.092 178.431 286.923 177.881C286.754 177.33 286.516 176.916 286.207 176.638C285.899 176.356 285.535 176.215 285.114 176.215C284.481 176.215 283.98 176.53 283.612 177.16C283.244 177.786 283.059 178.706 283.055 179.919C283.052 180.731 283.133 181.414 283.299 181.967C283.468 182.521 283.707 182.938 284.015 183.22C284.323 183.499 284.689 183.638 285.114 183.638ZM290.688 185V183.668L294.223 180.202C294.561 179.861 294.843 179.558 295.068 179.293C295.293 179.027 295.462 178.771 295.575 178.522C295.688 178.273 295.744 178.008 295.744 177.727C295.744 177.405 295.671 177.13 295.525 176.901C295.38 176.669 295.179 176.49 294.924 176.364C294.669 176.238 294.379 176.175 294.054 176.175C293.719 176.175 293.426 176.245 293.174 176.384C292.922 176.52 292.726 176.714 292.587 176.966C292.451 177.218 292.383 177.518 292.383 177.866H290.628C290.628 177.219 290.776 176.658 291.071 176.18C291.366 175.703 291.772 175.334 292.289 175.072C292.809 174.81 293.406 174.679 294.079 174.679C294.761 174.679 295.361 174.807 295.878 175.062C296.395 175.317 296.796 175.667 297.081 176.111C297.37 176.555 297.514 177.062 297.514 177.632C297.514 178.013 297.441 178.388 297.295 178.756C297.149 179.124 296.893 179.531 296.525 179.979C296.16 180.426 295.648 180.968 294.988 181.604L293.233 183.389V183.459H297.668V185H290.688ZM303.037 185.139C302.322 185.139 301.685 185.017 301.128 184.771C300.575 184.526 300.137 184.185 299.816 183.747C299.494 183.31 299.324 182.804 299.304 182.231H301.173C301.19 182.506 301.281 182.746 301.447 182.952C301.612 183.154 301.833 183.311 302.108 183.424C302.383 183.537 302.691 183.593 303.032 183.593C303.397 183.593 303.72 183.53 304.002 183.404C304.284 183.275 304.504 183.096 304.663 182.867C304.822 182.638 304.9 182.375 304.897 182.077C304.9 181.768 304.821 181.497 304.658 181.261C304.496 181.026 304.26 180.842 303.952 180.71C303.647 180.577 303.279 180.511 302.849 180.511H301.949V179.089H302.849C303.203 179.089 303.513 179.027 303.778 178.905C304.047 178.782 304.257 178.61 304.41 178.388C304.562 178.162 304.637 177.902 304.633 177.607C304.637 177.319 304.572 177.069 304.439 176.857C304.31 176.641 304.126 176.474 303.888 176.354C303.652 176.235 303.376 176.175 303.057 176.175C302.746 176.175 302.457 176.232 302.192 176.344C301.927 176.457 301.713 176.618 301.551 176.827C301.389 177.032 301.302 177.277 301.292 177.562H299.518C299.531 176.992 299.695 176.492 300.01 176.061C300.328 175.627 300.752 175.289 301.282 175.047C301.813 174.802 302.408 174.679 303.067 174.679C303.747 174.679 304.337 174.807 304.837 175.062C305.341 175.314 305.73 175.653 306.006 176.081C306.281 176.509 306.418 176.981 306.418 177.498C306.421 178.071 306.252 178.552 305.911 178.94C305.573 179.327 305.129 179.581 304.579 179.7V179.78C305.295 179.879 305.843 180.144 306.224 180.575C306.609 181.003 306.799 181.535 306.796 182.171C306.796 182.741 306.634 183.252 306.309 183.702C305.987 184.15 305.543 184.501 304.976 184.756C304.413 185.012 303.767 185.139 303.037 185.139Z" fill="#D0D5DD"/>
<mask id="path-32-inside-11_7284_23749" fill="white">
<path d="M420.602 151H630.402V208H420.602V151Z"/>
</mask>
<path d="M420.602 151H630.402V208H420.602V151Z" fill="white"/>
<path d="M629.402 151V208H631.402V151H629.402Z" fill="black" fill-opacity="0.03" mask="url(#path-32-inside-11_7284_23749)"/>
<path d="M436.913 185H434.945L438.529 174.818H440.806L444.396 185H442.427L439.707 176.906H439.628L436.913 185ZM436.978 181.008H442.347V182.489H436.978V181.008ZM445.737 185V174.818H447.536V178.626H447.611C447.704 178.441 447.835 178.244 448.004 178.035C448.173 177.823 448.401 177.642 448.69 177.493C448.978 177.34 449.346 177.264 449.794 177.264C450.383 177.264 450.915 177.415 451.389 177.717C451.867 178.015 452.244 178.457 452.523 179.044C452.805 179.627 452.945 180.343 452.945 181.192C452.945 182.03 452.808 182.743 452.533 183.33C452.258 183.916 451.883 184.364 451.409 184.672C450.935 184.98 450.398 185.134 449.798 185.134C449.361 185.134 448.998 185.061 448.71 184.915C448.421 184.77 448.189 184.594 448.014 184.388C447.841 184.18 447.707 183.982 447.611 183.797H447.507V185H445.737ZM447.502 181.182C447.502 181.676 447.571 182.108 447.71 182.479C447.853 182.851 448.057 183.141 448.322 183.349C448.59 183.555 448.915 183.658 449.296 183.658C449.694 183.658 450.027 183.552 450.296 183.339C450.564 183.124 450.766 182.831 450.902 182.46C451.041 182.085 451.111 181.659 451.111 181.182C451.111 180.708 451.043 180.287 450.907 179.919C450.771 179.551 450.569 179.263 450.301 179.054C450.032 178.845 449.697 178.741 449.296 178.741C448.912 178.741 448.585 178.842 448.317 179.044C448.048 179.246 447.845 179.53 447.705 179.894C447.57 180.259 447.502 180.688 447.502 181.182ZM457.309 185.134C456.709 185.134 456.172 184.98 455.699 184.672C455.225 184.364 454.85 183.916 454.575 183.33C454.3 182.743 454.162 182.03 454.162 181.192C454.162 180.343 454.301 179.627 454.58 179.044C454.862 178.457 455.241 178.015 455.718 177.717C456.196 177.415 456.728 177.264 457.314 177.264C457.762 177.264 458.13 177.34 458.418 177.493C458.706 177.642 458.935 177.823 459.104 178.035C459.273 178.244 459.404 178.441 459.497 178.626H459.571V174.818H461.376V185H459.606V183.797H459.497C459.404 183.982 459.27 184.18 459.094 184.388C458.918 184.594 458.686 184.77 458.398 184.915C458.11 185.061 457.747 185.134 457.309 185.134ZM457.811 183.658C458.193 183.658 458.517 183.555 458.786 183.349C459.054 183.141 459.258 182.851 459.397 182.479C459.537 182.108 459.606 181.676 459.606 181.182C459.606 180.688 459.537 180.259 459.397 179.894C459.261 179.53 459.059 179.246 458.791 179.044C458.526 178.842 458.199 178.741 457.811 178.741C457.41 178.741 457.076 178.845 456.807 179.054C456.539 179.263 456.337 179.551 456.201 179.919C456.065 180.287 455.997 180.708 455.997 181.182C455.997 181.659 456.065 182.085 456.201 182.46C456.34 182.831 456.544 183.124 456.812 183.339C457.084 183.552 457.417 183.658 457.811 183.658ZM468.161 181.788V177.364H469.961V185H468.216V183.643H468.136C467.964 184.07 467.68 184.42 467.286 184.692C466.895 184.964 466.413 185.099 465.839 185.099C465.339 185.099 464.896 184.988 464.512 184.766C464.131 184.541 463.832 184.214 463.617 183.787C463.402 183.356 463.294 182.836 463.294 182.226V177.364H465.094V181.947C465.094 182.431 465.226 182.816 465.491 183.101C465.756 183.386 466.104 183.528 466.535 183.528C466.8 183.528 467.057 183.464 467.306 183.335C467.555 183.205 467.758 183.013 467.917 182.758C468.08 182.499 468.161 182.176 468.161 181.788ZM473.611 174.818V185H471.811V174.818H473.611ZM477.262 174.818V185H475.462V174.818H477.262ZM481.31 185.154C480.826 185.154 480.39 185.068 480.002 184.896C479.618 184.72 479.313 184.461 479.087 184.12C478.865 183.779 478.754 183.358 478.754 182.857C478.754 182.426 478.834 182.07 478.993 181.788C479.152 181.507 479.369 181.281 479.644 181.112C479.919 180.943 480.229 180.816 480.574 180.729C480.922 180.64 481.281 180.575 481.653 180.536C482.1 180.489 482.463 180.448 482.741 180.411C483.02 180.371 483.222 180.312 483.348 180.232C483.477 180.149 483.542 180.022 483.542 179.849V179.82C483.542 179.445 483.431 179.155 483.209 178.95C482.987 178.744 482.667 178.641 482.249 178.641C481.808 178.641 481.459 178.737 481.2 178.93C480.945 179.122 480.773 179.349 480.683 179.611L479.003 179.372C479.135 178.908 479.354 178.52 479.659 178.209C479.964 177.894 480.337 177.659 480.778 177.503C481.219 177.344 481.706 177.264 482.239 177.264C482.607 177.264 482.973 177.307 483.338 177.393C483.703 177.48 484.036 177.622 484.337 177.821C484.639 178.017 484.881 178.283 485.063 178.621C485.249 178.96 485.342 179.382 485.342 179.889V185H483.612V183.951H483.552C483.442 184.163 483.288 184.362 483.089 184.548C482.894 184.73 482.647 184.877 482.349 184.99C482.054 185.099 481.707 185.154 481.31 185.154ZM481.777 183.832C482.138 183.832 482.451 183.76 482.717 183.618C482.982 183.472 483.186 183.28 483.328 183.041C483.474 182.803 483.547 182.542 483.547 182.261V181.361C483.491 181.407 483.394 181.45 483.259 181.49C483.126 181.53 482.977 181.565 482.811 181.594C482.645 181.624 482.481 181.651 482.319 181.674C482.156 181.697 482.016 181.717 481.896 181.734C481.628 181.77 481.388 181.83 481.175 181.913C480.963 181.996 480.796 182.112 480.673 182.261C480.551 182.406 480.489 182.595 480.489 182.827C480.489 183.159 480.61 183.409 480.852 183.578C481.094 183.747 481.402 183.832 481.777 183.832ZM488.951 180.526V185H487.151V174.818H488.911V178.661H489.001C489.18 178.23 489.456 177.891 489.831 177.642C490.209 177.39 490.689 177.264 491.273 177.264C491.803 177.264 492.265 177.375 492.66 177.597C493.054 177.819 493.359 178.144 493.575 178.572C493.793 178.999 493.903 179.521 493.903 180.138V185H492.103V180.416C492.103 179.902 491.97 179.503 491.705 179.218C491.443 178.93 491.076 178.786 490.602 178.786C490.283 178.786 489.998 178.855 489.746 178.994C489.498 179.13 489.302 179.327 489.16 179.586C489.021 179.844 488.951 180.158 488.951 180.526Z" fill="#D0D5DD"/>
<mask id="path-35-inside-12_7284_23749" fill="white">
<path d="M630.398 151H840.198V208H630.398V151Z"/>
</mask>
<path d="M630.398 151H840.198V208H630.398V151Z" fill="white"/>
<path d="M839.198 151V208H841.198V151H839.198Z" fill="black" fill-opacity="0.03" mask="url(#path-35-inside-12_7284_23749)"/>
<path d="M648.843 185.139C648.18 185.139 647.587 185.015 647.063 184.766C646.54 184.514 646.124 184.17 645.815 183.732C645.51 183.295 645.348 182.794 645.328 182.231H647.118C647.151 182.648 647.332 182.99 647.66 183.255C647.988 183.517 648.382 183.648 648.843 183.648C649.204 183.648 649.526 183.565 649.808 183.399C650.089 183.233 650.311 183.003 650.474 182.708C650.636 182.413 650.716 182.077 650.712 181.699C650.716 181.314 650.634 180.973 650.469 180.675C650.303 180.376 650.076 180.143 649.788 179.974C649.499 179.801 649.168 179.715 648.793 179.715C648.488 179.712 648.188 179.768 647.893 179.884C647.598 180 647.365 180.153 647.192 180.342L645.527 180.068L646.059 174.818H651.965V176.359H647.585L647.292 179.059H647.352C647.54 178.837 647.807 178.653 648.152 178.507C648.497 178.358 648.875 178.283 649.286 178.283C649.902 178.283 650.452 178.429 650.936 178.721C651.42 179.009 651.801 179.407 652.08 179.914C652.358 180.421 652.497 181.001 652.497 181.654C652.497 182.327 652.341 182.927 652.03 183.454C651.722 183.978 651.292 184.39 650.742 184.692C650.195 184.99 649.562 185.139 648.843 185.139ZM657.817 185.139C657.101 185.139 656.464 185.017 655.908 184.771C655.354 184.526 654.917 184.185 654.595 183.747C654.274 183.31 654.103 182.804 654.083 182.231H655.952C655.969 182.506 656.06 182.746 656.226 182.952C656.392 183.154 656.612 183.311 656.887 183.424C657.162 183.537 657.47 183.593 657.812 183.593C658.176 183.593 658.5 183.53 658.781 183.404C659.063 183.275 659.283 183.096 659.442 182.867C659.602 182.638 659.679 182.375 659.676 182.077C659.679 181.768 659.6 181.497 659.438 181.261C659.275 181.026 659.04 180.842 658.732 180.71C658.427 180.577 658.059 180.511 657.628 180.511H656.728V179.089H657.628C657.982 179.089 658.292 179.027 658.558 178.905C658.826 178.782 659.036 178.61 659.189 178.388C659.341 178.162 659.416 177.902 659.413 177.607C659.416 177.319 659.351 177.069 659.219 176.857C659.089 176.641 658.906 176.474 658.667 176.354C658.432 176.235 658.155 176.175 657.837 176.175C657.525 176.175 657.237 176.232 656.972 176.344C656.706 176.457 656.493 176.618 656.33 176.827C656.168 177.032 656.082 177.277 656.072 177.562H654.297C654.31 176.992 654.474 176.492 654.789 176.061C655.107 175.627 655.531 175.289 656.062 175.047C656.592 174.802 657.187 174.679 657.847 174.679C658.526 174.679 659.116 174.807 659.616 175.062C660.12 175.314 660.51 175.653 660.785 176.081C661.06 176.509 661.197 176.981 661.197 177.498C661.201 178.071 661.032 178.552 660.69 178.94C660.352 179.327 659.908 179.581 659.358 179.7V179.78C660.074 179.879 660.622 180.144 661.004 180.575C661.388 181.003 661.579 181.535 661.575 182.171C661.575 182.741 661.413 183.252 661.088 183.702C660.767 184.15 660.322 184.501 659.756 184.756C659.192 185.012 658.546 185.139 657.817 185.139ZM667.423 174.818V185H665.579V176.613H665.519L663.138 178.134V176.444L665.668 174.818H667.423ZM673.548 185.139C672.885 185.139 672.292 185.015 671.768 184.766C671.245 184.514 670.829 184.17 670.52 183.732C670.215 183.295 670.053 182.794 670.033 182.231H671.823C671.856 182.648 672.037 182.99 672.365 183.255C672.693 183.517 673.087 183.648 673.548 183.648C673.909 183.648 674.231 183.565 674.513 183.399C674.794 183.233 675.016 183.003 675.179 182.708C675.341 182.413 675.421 182.077 675.417 181.699C675.421 181.314 675.34 180.973 675.174 180.675C675.008 180.376 674.781 180.143 674.493 179.974C674.204 179.801 673.873 179.715 673.498 179.715C673.193 179.712 672.894 179.768 672.599 179.884C672.304 180 672.07 180.153 671.898 180.342L670.232 180.068L670.764 174.818H676.67V176.359H672.29L671.997 179.059H672.057C672.246 178.837 672.512 178.653 672.857 178.507C673.202 178.358 673.58 178.283 673.991 178.283C674.607 178.283 675.157 178.429 675.641 178.721C676.125 179.009 676.506 179.407 676.785 179.914C677.063 180.421 677.202 181.001 677.202 181.654C677.202 182.327 677.046 182.927 676.735 183.454C676.427 183.978 675.997 184.39 675.447 184.692C674.9 184.99 674.267 185.139 673.548 185.139ZM682.631 185.194C681.813 185.194 681.11 184.987 680.523 184.572C679.94 184.155 679.491 183.553 679.176 182.768C678.864 181.979 678.709 181.029 678.709 179.919C678.712 178.809 678.869 177.864 679.181 177.085C679.496 176.303 679.945 175.706 680.528 175.295C681.115 174.884 681.816 174.679 682.631 174.679C683.447 174.679 684.148 174.884 684.734 175.295C685.321 175.706 685.77 176.303 686.081 177.085C686.396 177.867 686.554 178.812 686.554 179.919C686.554 181.033 686.396 181.984 686.081 182.773C685.77 183.558 685.321 184.158 684.734 184.572C684.151 184.987 683.45 185.194 682.631 185.194ZM682.631 183.638C683.268 183.638 683.77 183.325 684.138 182.698C684.509 182.068 684.694 181.142 684.694 179.919C684.694 179.11 684.61 178.431 684.441 177.881C684.272 177.33 684.033 176.916 683.725 176.638C683.417 176.356 683.052 176.215 682.631 176.215C681.998 176.215 681.498 176.53 681.13 177.16C680.762 177.786 680.576 178.706 680.573 179.919C680.57 180.731 680.651 181.414 680.817 181.967C680.986 182.521 681.224 182.938 681.532 183.22C681.841 183.499 682.207 183.638 682.631 183.638ZM691.86 185.139C691.144 185.139 690.507 185.017 689.951 184.771C689.397 184.526 688.96 184.185 688.638 183.747C688.317 183.31 688.146 182.804 688.126 182.231H689.995C690.012 182.506 690.103 182.746 690.269 182.952C690.435 183.154 690.655 183.311 690.93 183.424C691.205 183.537 691.513 183.593 691.855 183.593C692.219 183.593 692.542 183.53 692.824 183.404C693.106 183.275 693.326 183.096 693.485 182.867C693.645 182.638 693.722 182.375 693.719 182.077C693.722 181.768 693.643 181.497 693.48 181.261C693.318 181.026 693.083 180.842 692.775 180.71C692.47 180.577 692.102 180.511 691.671 180.511H690.771V179.089H691.671C692.025 179.089 692.335 179.027 692.6 178.905C692.869 178.782 693.079 178.61 693.232 178.388C693.384 178.162 693.459 177.902 693.456 177.607C693.459 177.319 693.394 177.069 693.262 176.857C693.132 176.641 692.949 176.474 692.71 176.354C692.475 176.235 692.198 176.175 691.88 176.175C691.568 176.175 691.28 176.232 691.015 176.344C690.749 176.457 690.536 176.618 690.373 176.827C690.211 177.032 690.125 177.277 690.115 177.562H688.34C688.353 176.992 688.517 176.492 688.832 176.061C689.15 175.627 689.574 175.289 690.105 175.047C690.635 174.802 691.23 174.679 691.89 174.679C692.569 174.679 693.159 174.807 693.659 175.062C694.163 175.314 694.553 175.653 694.828 176.081C695.103 176.509 695.24 176.981 695.24 177.498C695.244 178.071 695.075 178.552 694.733 178.94C694.395 179.327 693.951 179.581 693.401 179.7V179.78C694.117 179.879 694.665 180.144 695.047 180.575C695.431 181.003 695.622 181.535 695.618 182.171C695.618 182.741 695.456 183.252 695.131 183.702C694.81 184.15 694.365 184.501 693.799 184.756C693.235 185.012 692.589 185.139 691.86 185.139ZM697.141 183.111V181.644L701.461 174.818H702.684V176.906H701.938L699.03 181.515V181.594H705.061V183.111H697.141ZM701.998 185V182.663L702.018 182.007V174.818H703.758V185H701.998ZM710.654 174.818V185H708.809V176.613H708.749L706.368 178.134V176.444L708.899 174.818H710.654ZM717.002 185.194C716.184 185.194 715.481 184.987 714.894 184.572C714.311 184.155 713.862 183.553 713.547 182.768C713.235 181.979 713.08 181.029 713.08 179.919C713.083 178.809 713.24 177.864 713.552 177.085C713.867 176.303 714.316 175.706 714.899 175.295C715.486 174.884 716.187 174.679 717.002 174.679C717.818 174.679 718.519 174.884 719.105 175.295C719.692 175.706 720.141 176.303 720.453 177.085C720.767 177.867 720.925 178.812 720.925 179.919C720.925 181.033 720.767 181.984 720.453 182.773C720.141 183.558 719.692 184.158 719.105 184.572C718.522 184.987 717.821 185.194 717.002 185.194ZM717.002 183.638C717.639 183.638 718.141 183.325 718.509 182.698C718.88 182.068 719.066 181.142 719.066 179.919C719.066 179.11 718.981 178.431 718.812 177.881C718.643 177.33 718.404 176.916 718.096 176.638C717.788 176.356 717.423 176.215 717.002 176.215C716.369 176.215 715.869 176.53 715.501 177.16C715.133 177.786 714.947 178.706 714.944 179.919C714.941 180.731 715.022 181.414 715.188 181.967C715.357 182.521 715.595 182.938 715.904 183.22C716.212 183.499 716.578 183.638 717.002 183.638ZM722.676 185L727.006 176.429V176.359H721.98V174.818H728.915V176.394L724.59 185H722.676ZM731.166 185L735.497 176.429V176.359H730.47V174.818H737.406V176.394L733.08 185H731.166ZM742.555 185.194C741.736 185.194 741.034 184.987 740.447 184.572C739.864 184.155 739.415 183.553 739.1 182.768C738.788 181.979 738.632 181.029 738.632 179.919C738.636 178.809 738.793 177.864 739.105 177.085C739.42 176.303 739.869 175.706 740.452 175.295C741.039 174.884 741.74 174.679 742.555 174.679C743.37 174.679 744.071 174.884 744.658 175.295C745.245 175.706 745.694 176.303 746.005 177.085C746.32 177.867 746.478 178.812 746.478 179.919C746.478 181.033 746.32 181.984 746.005 182.773C745.694 183.558 745.245 184.158 744.658 184.572C744.075 184.987 743.374 185.194 742.555 185.194ZM742.555 183.638C743.191 183.638 743.694 183.325 744.061 182.698C744.433 182.068 744.618 181.142 744.618 179.919C744.618 179.11 744.534 178.431 744.365 177.881C744.196 177.33 743.957 176.916 743.649 176.638C743.341 176.356 742.976 176.215 742.555 176.215C741.922 176.215 741.422 176.53 741.054 177.16C740.686 177.786 740.5 178.706 740.497 179.919C740.493 180.731 740.575 181.414 740.74 181.967C740.909 182.521 741.148 182.938 741.456 183.22C741.765 183.499 742.131 183.638 742.555 183.638ZM751.893 185.194C751.074 185.194 750.372 184.987 749.785 184.572C749.202 184.155 748.753 183.553 748.438 182.768C748.126 181.979 747.97 181.029 747.97 179.919C747.974 178.809 748.131 177.864 748.443 177.085C748.758 176.303 749.207 175.706 749.79 175.295C750.377 174.884 751.078 174.679 751.893 174.679C752.708 174.679 753.409 174.884 753.996 175.295C754.583 175.706 755.032 176.303 755.343 177.085C755.658 177.867 755.816 178.812 755.816 179.919C755.816 181.033 755.658 181.984 755.343 182.773C755.032 183.558 754.583 184.158 753.996 184.572C753.413 184.987 752.712 185.194 751.893 185.194ZM751.893 183.638C752.529 183.638 753.031 183.325 753.399 182.698C753.771 182.068 753.956 181.142 753.956 179.919C753.956 179.11 753.872 178.431 753.703 177.881C753.534 177.33 753.295 176.916 752.987 176.638C752.678 176.356 752.314 176.215 751.893 176.215C751.26 176.215 750.759 176.53 750.392 177.16C750.024 177.786 749.838 178.706 749.835 179.919C749.831 180.731 749.913 181.414 750.078 181.967C750.247 182.521 750.486 182.938 750.794 183.22C751.102 183.499 751.469 183.638 751.893 183.638ZM761.609 174.818V185H759.764V176.613H759.705L757.323 178.134V176.444L759.854 174.818H761.609ZM767.848 185.139C767.132 185.139 766.496 185.017 765.939 184.771C765.385 184.526 764.948 184.185 764.626 183.747C764.305 183.31 764.134 182.804 764.114 182.231H765.984C766 182.506 766.091 182.746 766.257 182.952C766.423 183.154 766.643 183.311 766.918 183.424C767.193 183.537 767.502 183.593 767.843 183.593C768.208 183.593 768.531 183.53 768.812 183.404C769.094 183.275 769.315 183.096 769.474 182.867C769.633 182.638 769.711 182.375 769.707 182.077C769.711 181.768 769.631 181.497 769.469 181.261C769.306 181.026 769.071 180.842 768.763 180.71C768.458 180.577 768.09 180.511 767.659 180.511H766.759V179.089H767.659C768.014 179.089 768.324 179.027 768.589 178.905C768.857 178.782 769.068 178.61 769.22 178.388C769.373 178.162 769.447 177.902 769.444 177.607C769.447 177.319 769.383 177.069 769.25 176.857C769.121 176.641 768.937 176.474 768.698 176.354C768.463 176.235 768.186 176.175 767.868 176.175C767.556 176.175 767.268 176.232 767.003 176.344C766.738 176.457 766.524 176.618 766.362 176.827C766.199 177.032 766.113 177.277 766.103 177.562H764.328C764.341 176.992 764.505 176.492 764.82 176.061C765.138 175.627 765.563 175.289 766.093 175.047C766.623 174.802 767.218 174.679 767.878 174.679C768.557 174.679 769.147 174.807 769.648 175.062C770.152 175.314 770.541 175.653 770.816 176.081C771.091 176.509 771.229 176.981 771.229 177.498C771.232 178.071 771.063 178.552 770.722 178.94C770.384 179.327 769.939 179.581 769.389 179.7V179.78C770.105 179.879 770.654 180.144 771.035 180.575C771.419 181.003 771.61 181.535 771.607 182.171C771.607 182.741 771.444 183.252 771.119 183.702C770.798 184.15 770.354 184.501 769.787 184.756C769.223 185.012 768.577 185.139 767.848 185.139ZM777.454 174.818V185H775.61V176.613H775.55L773.169 178.134V176.444L775.699 174.818H777.454Z" fill="#D0D5DD"/>
<mask id="path-38-inside-13_7284_23749" fill="white">
<path d="M840.199 151H1050V208H840.199V151Z"/>
</mask>
<path d="M840.199 151H1050V208H840.199V151Z" fill="white"/>
<path d="M1049 151V208H1051V151H1049Z" fill="black" fill-opacity="0.03" mask="url(#path-38-inside-13_7284_23749)"/>
<path d="M859.221 174.818H861.05V181.977C861.047 182.634 860.908 183.199 860.632 183.673C860.357 184.143 859.973 184.506 859.479 184.761C858.989 185.013 858.417 185.139 857.764 185.139C857.167 185.139 856.63 185.033 856.153 184.821C855.679 184.606 855.303 184.287 855.025 183.866C854.746 183.446 854.607 182.922 854.607 182.295H856.441C856.445 182.571 856.504 182.808 856.62 183.006C856.74 183.205 856.904 183.358 857.113 183.464C857.321 183.57 857.562 183.623 857.833 183.623C858.128 183.623 858.379 183.562 858.584 183.439C858.79 183.313 858.945 183.127 859.051 182.882C859.161 182.637 859.217 182.335 859.221 181.977V174.818ZM864.771 174.818V185H862.972V174.818H864.771ZM867.731 185.109C867.429 185.109 867.171 185.003 866.955 184.791C866.74 184.579 866.634 184.321 866.637 184.016C866.634 183.717 866.74 183.462 866.955 183.25C867.171 183.038 867.429 182.932 867.731 182.932C868.022 182.932 868.276 183.038 868.491 183.25C868.71 183.462 868.821 183.717 868.824 184.016C868.821 184.218 868.768 184.402 868.665 184.567C868.566 184.733 868.433 184.866 868.268 184.965C868.105 185.061 867.926 185.109 867.731 185.109ZM877.937 174.818H879.767V181.977C879.764 182.634 879.624 183.199 879.349 183.673C879.074 184.143 878.69 184.506 878.196 184.761C877.705 185.013 877.134 185.139 876.481 185.139C875.884 185.139 875.347 185.033 874.87 184.821C874.396 184.606 874.02 184.287 873.741 183.866C873.463 183.446 873.324 182.922 873.324 182.295H875.158C875.162 182.571 875.221 182.808 875.337 183.006C875.456 183.205 875.621 183.358 875.829 183.464C876.038 183.57 876.278 183.623 876.55 183.623C876.845 183.623 877.095 183.562 877.301 183.439C877.506 183.313 877.662 183.127 877.768 182.882C877.878 182.637 877.934 182.335 877.937 181.977V174.818ZM886.556 181.788V177.364H888.355V185H886.61V183.643H886.531C886.358 184.07 886.075 184.42 885.681 184.692C885.289 184.964 884.807 185.099 884.234 185.099C883.733 185.099 883.291 184.988 882.906 184.766C882.525 184.541 882.227 184.214 882.012 183.787C881.796 183.356 881.688 182.836 881.688 182.226V177.364H883.488V181.947C883.488 182.431 883.621 182.816 883.886 183.101C884.151 183.386 884.499 183.528 884.93 183.528C885.195 183.528 885.452 183.464 885.7 183.335C885.949 183.205 886.153 183.013 886.312 182.758C886.474 182.499 886.556 182.176 886.556 181.788ZM892.403 185.154C891.92 185.154 891.484 185.068 891.096 184.896C890.711 184.72 890.406 184.461 890.181 184.12C889.959 183.779 889.848 183.358 889.848 182.857C889.848 182.426 889.928 182.07 890.087 181.788C890.246 181.507 890.463 181.281 890.738 181.112C891.013 180.943 891.323 180.816 891.668 180.729C892.016 180.64 892.375 180.575 892.746 180.536C893.194 180.489 893.557 180.448 893.835 180.411C894.114 180.371 894.316 180.312 894.442 180.232C894.571 180.149 894.636 180.022 894.636 179.849V179.82C894.636 179.445 894.525 179.155 894.303 178.95C894.08 178.744 893.761 178.641 893.343 178.641C892.902 178.641 892.553 178.737 892.294 178.93C892.039 179.122 891.866 179.349 891.777 179.611L890.097 179.372C890.229 178.908 890.448 178.52 890.753 178.209C891.058 177.894 891.431 177.659 891.871 177.503C892.312 177.344 892.799 177.264 893.333 177.264C893.701 177.264 894.067 177.307 894.432 177.393C894.796 177.48 895.129 177.622 895.431 177.821C895.733 178.017 895.975 178.283 896.157 178.621C896.343 178.96 896.435 179.382 896.435 179.889V185H894.705V183.951H894.646C894.536 184.163 894.382 184.362 894.183 184.548C893.988 184.73 893.741 184.877 893.442 184.99C893.147 185.099 892.801 185.154 892.403 185.154ZM892.871 183.832C893.232 183.832 893.545 183.76 893.81 183.618C894.076 183.472 894.279 183.28 894.422 183.041C894.568 182.803 894.641 182.542 894.641 182.261V181.361C894.584 181.407 894.488 181.45 894.352 181.49C894.22 181.53 894.071 181.565 893.905 181.594C893.739 181.624 893.575 181.651 893.413 181.674C893.25 181.697 893.109 181.717 892.99 181.734C892.722 181.77 892.481 181.83 892.269 181.913C892.057 181.996 891.89 182.112 891.767 182.261C891.644 182.406 891.583 182.595 891.583 182.827C891.583 183.159 891.704 183.409 891.946 183.578C892.188 183.747 892.496 183.832 892.871 183.832ZM900.045 180.526V185H898.245V177.364H899.965V178.661H900.055C900.23 178.234 900.51 177.894 900.895 177.642C901.283 177.39 901.762 177.264 902.332 177.264C902.859 177.264 903.318 177.377 903.709 177.602C904.103 177.828 904.408 178.154 904.624 178.582C904.842 179.009 904.95 179.528 904.947 180.138V185H903.147V180.416C903.147 179.906 903.014 179.506 902.749 179.218C902.487 178.93 902.125 178.786 901.661 178.786C901.346 178.786 901.066 178.855 900.82 178.994C900.578 179.13 900.388 179.327 900.249 179.586C900.113 179.844 900.045 180.158 900.045 180.526ZM909.61 185.134C909.01 185.134 908.473 184.98 907.999 184.672C907.525 184.364 907.151 183.916 906.876 183.33C906.601 182.743 906.463 182.03 906.463 181.192C906.463 180.343 906.602 179.627 906.881 179.044C907.162 178.457 907.542 178.015 908.019 177.717C908.496 177.415 909.028 177.264 909.615 177.264C910.063 177.264 910.43 177.34 910.719 177.493C911.007 177.642 911.236 177.823 911.405 178.035C911.574 178.244 911.705 178.441 911.798 178.626H911.872V174.818H913.677V185H911.907V183.797H911.798C911.705 183.982 911.571 184.18 911.395 184.388C911.219 184.594 910.987 184.77 910.699 184.915C910.411 185.061 910.048 185.134 909.61 185.134ZM910.112 183.658C910.493 183.658 910.818 183.555 911.087 183.349C911.355 183.141 911.559 182.851 911.698 182.479C911.837 182.108 911.907 181.676 911.907 181.182C911.907 180.688 911.837 180.259 911.698 179.894C911.562 179.53 911.36 179.246 911.092 179.044C910.826 178.842 910.5 178.741 910.112 178.741C909.711 178.741 909.376 178.845 909.108 179.054C908.839 179.263 908.637 179.551 908.501 179.919C908.366 180.287 908.298 180.708 908.298 181.182C908.298 181.659 908.366 182.085 908.501 182.46C908.641 182.831 908.844 183.124 909.113 183.339C909.385 183.552 909.718 183.658 910.112 183.658ZM917.792 185.154C917.308 185.154 916.872 185.068 916.485 184.896C916.1 184.72 915.795 184.461 915.57 184.12C915.348 183.779 915.237 183.358 915.237 182.857C915.237 182.426 915.316 182.07 915.475 181.788C915.634 181.507 915.852 181.281 916.127 181.112C916.402 180.943 916.712 180.816 917.056 180.729C917.404 180.64 917.764 180.575 918.135 180.536C918.583 180.489 918.945 180.448 919.224 180.411C919.502 180.371 919.704 180.312 919.83 180.232C919.96 180.149 920.024 180.022 920.024 179.849V179.82C920.024 179.445 919.913 179.155 919.691 178.95C919.469 178.744 919.149 178.641 918.732 178.641C918.291 178.641 917.941 178.737 917.683 178.93C917.427 179.122 917.255 179.349 917.166 179.611L915.485 179.372C915.618 178.908 915.837 178.52 916.142 178.209C916.446 177.894 916.819 177.659 917.26 177.503C917.701 177.344 918.188 177.264 918.722 177.264C919.09 177.264 919.456 177.307 919.82 177.393C920.185 177.48 920.518 177.622 920.82 177.821C921.121 178.017 921.363 178.283 921.546 178.621C921.731 178.96 921.824 179.382 921.824 179.889V185H920.094V183.951H920.034C919.925 184.163 919.771 184.362 919.572 184.548C919.376 184.73 919.129 184.877 918.831 184.99C918.536 185.099 918.19 185.154 917.792 185.154ZM918.259 183.832C918.621 183.832 918.934 183.76 919.199 183.618C919.464 183.472 919.668 183.28 919.811 183.041C919.956 182.803 920.029 182.542 920.029 182.261V181.361C919.973 181.407 919.877 181.45 919.741 181.49C919.608 181.53 919.459 181.565 919.294 181.594C919.128 181.624 918.964 181.651 918.801 181.674C918.639 181.697 918.498 181.717 918.379 181.734C918.11 181.77 917.87 181.83 917.658 181.913C917.446 181.996 917.278 182.112 917.156 182.261C917.033 182.406 916.972 182.595 916.972 182.827C916.972 183.159 917.093 183.409 917.335 183.578C917.577 183.747 917.885 183.832 918.259 183.832ZM935.553 174.818V185H933.912L929.115 178.065H929.03V185H927.186V174.818H928.836L933.629 181.759H933.719V174.818H935.553ZM940.814 185.149C940.069 185.149 939.422 184.985 938.875 184.657C938.328 184.329 937.904 183.87 937.603 183.28C937.304 182.69 937.155 182 937.155 181.212C937.155 180.423 937.304 179.732 937.603 179.138C937.904 178.545 938.328 178.085 938.875 177.756C939.422 177.428 940.069 177.264 940.814 177.264C941.56 177.264 942.206 177.428 942.753 177.756C943.3 178.085 943.723 178.545 944.021 179.138C944.323 179.732 944.473 180.423 944.473 181.212C944.473 182 944.323 182.69 944.021 183.28C943.723 183.87 943.3 184.329 942.753 184.657C942.206 184.985 941.56 185.149 940.814 185.149ZM940.824 183.707C941.229 183.707 941.567 183.596 941.838 183.374C942.11 183.149 942.312 182.847 942.445 182.469C942.581 182.092 942.649 181.671 942.649 181.207C942.649 180.739 942.581 180.317 942.445 179.939C942.312 179.558 942.11 179.254 941.838 179.029C941.567 178.804 941.229 178.691 940.824 178.691C940.41 178.691 940.065 178.804 939.79 179.029C939.518 179.254 939.315 179.558 939.179 179.939C939.046 180.317 938.98 180.739 938.98 181.207C938.98 181.671 939.046 182.092 939.179 182.469C939.315 182.847 939.518 183.149 939.79 183.374C940.065 183.596 940.41 183.707 940.824 183.707ZM947.11 185.109C946.808 185.109 946.549 185.003 946.334 184.791C946.119 184.579 946.012 184.321 946.016 184.016C946.012 183.717 946.119 183.462 946.334 183.25C946.549 183.038 946.808 182.932 947.11 182.932C947.401 182.932 947.655 183.038 947.87 183.25C948.089 183.462 948.2 183.717 948.203 184.016C948.2 184.218 948.147 184.402 948.044 184.567C947.945 184.733 947.812 184.866 947.646 184.965C947.484 185.061 947.305 185.109 947.11 185.109ZM953.016 183.111V181.644L957.336 174.818H958.559V176.906H957.813L954.905 181.515V181.594H960.936V183.111H953.016ZM957.873 185V182.663L957.893 182.007V174.818H959.633V185H957.873ZM962.897 185L967.227 176.429V176.359H962.201V174.818H969.136V176.394L964.811 185H962.897Z" fill="#475467"/>
</g>
<rect x="-121.5" y="93.5" width="1172" height="251.003" rx="8.5" stroke="black" stroke-opacity="0.03"/>
</g>
<rect x="-121.5" y="93.5" width="1172" height="251.003" rx="8.5" stroke="black" stroke-opacity="0.03"/>
</g>
<path d="M945 97.6667C946.473 97.6667 947.667 96.4728 947.667 95C947.667 93.5272 946.473 92.3333 945 92.3333C943.527 92.3333 942.333 93.5272 942.333 95C942.333 96.4728 943.527 97.6667 945 97.6667ZM945 67L942.113 72L947.887 72L945 67ZM945.5 95L945.5 71.5L944.5 71.5L944.5 95L945.5 95Z" fill="black"/>
<path d="M914.108 44.2898H911.983C911.922 43.9413 911.811 43.6326 911.648 43.3636C911.485 43.0909 911.282 42.8598 911.04 42.6705C910.797 42.4811 910.521 42.339 910.21 42.2443C909.903 42.1458 909.572 42.0966 909.216 42.0966C908.583 42.0966 908.023 42.2557 907.534 42.5739C907.045 42.8883 906.663 43.3504 906.386 43.9602C906.11 44.5663 905.972 45.3068 905.972 46.1818C905.972 47.072 906.11 47.822 906.386 48.4318C906.667 49.0379 907.049 49.4962 907.534 49.8068C908.023 50.1136 908.581 50.267 909.21 50.267C909.559 50.267 909.884 50.2216 910.188 50.1307C910.494 50.036 910.769 49.8977 911.011 49.7159C911.258 49.5341 911.464 49.3106 911.631 49.0455C911.801 48.7803 911.919 48.4773 911.983 48.1364L914.108 48.1477C914.028 48.7008 913.856 49.2197 913.591 49.7045C913.33 50.1894 912.987 50.6174 912.562 50.9886C912.138 51.3561 911.642 51.6439 911.074 51.8523C910.506 52.0568 909.875 52.1591 909.182 52.1591C908.159 52.1591 907.246 51.9223 906.443 51.4489C905.64 50.9754 905.008 50.2917 904.545 49.3977C904.083 48.5038 903.852 47.4318 903.852 46.1818C903.852 44.928 904.085 43.8561 904.551 42.9659C905.017 42.072 905.652 41.3883 906.455 40.9148C907.258 40.4413 908.167 40.2045 909.182 40.2045C909.83 40.2045 910.432 40.2955 910.989 40.4773C911.545 40.6591 912.042 40.9261 912.477 41.2784C912.913 41.6269 913.271 42.0549 913.551 42.5625C913.835 43.0663 914.021 43.642 914.108 44.2898ZM919.754 52.1705C918.902 52.1705 918.163 51.983 917.538 51.608C916.913 51.233 916.429 50.7083 916.084 50.0341C915.743 49.3598 915.572 48.572 915.572 47.6705C915.572 46.7689 915.743 45.9792 916.084 45.3011C916.429 44.6231 916.913 44.0966 917.538 43.7216C918.163 43.3466 918.902 43.1591 919.754 43.1591C920.607 43.1591 921.345 43.3466 921.97 43.7216C922.595 44.0966 923.078 44.6231 923.419 45.3011C923.764 45.9792 923.936 46.7689 923.936 47.6705C923.936 48.572 923.764 49.3598 923.419 50.0341C923.078 50.7083 922.595 51.233 921.97 51.608C921.345 51.983 920.607 52.1705 919.754 52.1705ZM919.766 50.5227C920.228 50.5227 920.614 50.3958 920.925 50.142C921.235 49.8845 921.466 49.5398 921.618 49.108C921.773 48.6761 921.851 48.1951 921.851 47.6648C921.851 47.1307 921.773 46.6477 921.618 46.2159C921.466 45.7803 921.235 45.4337 920.925 45.1761C920.614 44.9186 920.228 44.7898 919.766 44.7898C919.292 44.7898 918.898 44.9186 918.584 45.1761C918.273 45.4337 918.04 45.7803 917.885 46.2159C917.733 46.6477 917.658 47.1307 917.658 47.6648C917.658 48.1951 917.733 48.6761 917.885 49.108C918.04 49.5398 918.273 49.8845 918.584 50.142C918.898 50.3958 919.292 50.5227 919.766 50.5227ZM927.739 40.3636V52H925.682V40.3636H927.739ZM933.661 52.1705C932.808 52.1705 932.07 51.983 931.445 51.608C930.82 51.233 930.335 50.7083 929.99 50.0341C929.649 49.3598 929.479 48.572 929.479 47.6705C929.479 46.7689 929.649 45.9792 929.99 45.3011C930.335 44.6231 930.82 44.0966 931.445 43.7216C932.07 43.3466 932.808 43.1591 933.661 43.1591C934.513 43.1591 935.251 43.3466 935.876 43.7216C936.501 44.0966 936.984 44.6231 937.325 45.3011C937.67 45.9792 937.842 46.7689 937.842 47.6705C937.842 48.572 937.67 49.3598 937.325 50.0341C936.984 50.7083 936.501 51.233 935.876 51.608C935.251 51.983 934.513 52.1705 933.661 52.1705ZM933.672 50.5227C934.134 50.5227 934.52 50.3958 934.831 50.142C935.142 49.8845 935.373 49.5398 935.524 49.108C935.679 48.6761 935.757 48.1951 935.757 47.6648C935.757 47.1307 935.679 46.6477 935.524 46.2159C935.373 45.7803 935.142 45.4337 934.831 45.1761C934.52 44.9186 934.134 44.7898 933.672 44.7898C933.198 44.7898 932.804 44.9186 932.49 45.1761C932.179 45.4337 931.946 45.7803 931.791 46.2159C931.64 46.6477 931.564 47.1307 931.564 47.6648C931.564 48.1951 931.64 48.6761 931.791 49.108C931.946 49.5398 932.179 49.8845 932.49 50.142C932.804 50.3958 933.198 50.5227 933.672 50.5227ZM945.151 48.3295V43.2727H947.207V52H945.213V50.4489H945.122C944.925 50.9375 944.601 51.3371 944.151 51.6477C943.704 51.9583 943.152 52.1136 942.497 52.1136C941.925 52.1136 941.42 51.9867 940.98 51.733C940.545 51.4754 940.204 51.1023 939.957 50.6136C939.711 50.1212 939.588 49.5265 939.588 48.8295V43.2727H941.645V48.5114C941.645 49.0644 941.796 49.5038 942.099 49.8295C942.402 50.1553 942.8 50.3182 943.293 50.3182C943.596 50.3182 943.889 50.2443 944.173 50.0966C944.457 49.9489 944.69 49.7292 944.872 49.4375C945.058 49.142 945.151 48.7727 945.151 48.3295ZM949.322 52V43.2727H951.288V44.7557H951.391C951.572 44.2557 951.874 43.8655 952.294 43.5852C952.714 43.3011 953.216 43.1591 953.8 43.1591C954.391 43.1591 954.889 43.303 955.294 43.5909C955.703 43.875 955.991 44.2633 956.158 44.7557H956.249C956.442 44.2708 956.768 43.8845 957.226 43.5966C957.688 43.3049 958.235 43.1591 958.868 43.1591C959.671 43.1591 960.326 43.4129 960.834 43.9205C961.341 44.428 961.595 45.1686 961.595 46.142V52H959.533V46.4602C959.533 45.9186 959.389 45.5227 959.101 45.2727C958.813 45.0189 958.461 44.892 958.044 44.892C957.548 44.892 957.16 45.0473 956.879 45.358C956.603 45.6648 956.464 46.0644 956.464 46.5568V52H954.447V46.375C954.447 45.9242 954.311 45.5644 954.038 45.2955C953.769 45.0265 953.417 44.892 952.982 44.892C952.686 44.892 952.417 44.9678 952.175 45.1193C951.932 45.267 951.739 45.4773 951.595 45.75C951.451 46.0189 951.379 46.3333 951.379 46.6932V52H949.322ZM965.739 46.8864V52H963.682V43.2727H965.648V44.7557H965.75C965.951 44.267 966.271 43.8788 966.71 43.5909C967.153 43.303 967.701 43.1591 968.352 43.1591C968.955 43.1591 969.479 43.2879 969.926 43.5455C970.377 43.803 970.725 44.1761 970.972 44.6648C971.222 45.1534 971.345 45.7462 971.341 46.4432V52H969.284V46.7614C969.284 46.178 969.133 45.7216 968.83 45.392C968.53 45.0625 968.116 44.8977 967.585 44.8977C967.225 44.8977 966.905 44.9773 966.625 45.1364C966.348 45.2917 966.131 45.517 965.972 45.8125C965.816 46.108 965.739 46.4659 965.739 46.8864ZM981.639 52.1591C981.082 52.1553 980.539 52.0587 980.009 51.8693C979.478 51.6761 979.001 51.3636 978.577 50.9318C978.152 50.4962 977.815 49.9186 977.565 49.1989C977.315 48.4754 977.192 47.5795 977.196 46.5114C977.196 45.5152 977.302 44.6269 977.514 43.8466C977.726 43.0663 978.031 42.4072 978.429 41.8693C978.827 41.3277 979.306 40.9148 979.866 40.6307C980.431 40.3466 981.062 40.2045 981.759 40.2045C982.49 40.2045 983.137 40.3485 983.702 40.6364C984.27 40.9242 984.728 41.3182 985.077 41.8182C985.425 42.3144 985.641 42.875 985.724 43.5H983.651C983.545 43.053 983.327 42.697 982.997 42.4318C982.671 42.1629 982.259 42.0284 981.759 42.0284C980.952 42.0284 980.33 42.3788 979.895 43.0795C979.463 43.7803 979.245 44.7424 979.241 45.9659H979.321C979.507 45.6326 979.747 45.3466 980.043 45.108C980.338 44.8693 980.671 44.6856 981.043 44.5568C981.418 44.4242 981.813 44.358 982.23 44.358C982.912 44.358 983.524 44.5208 984.065 44.8466C984.611 45.1723 985.043 45.6212 985.361 46.1932C985.679 46.7614 985.836 47.4129 985.832 48.1477C985.836 48.9129 985.662 49.6004 985.31 50.2102C984.957 50.8163 984.467 51.2936 983.838 51.642C983.209 51.9905 982.476 52.1629 981.639 52.1591ZM981.628 50.4545C982.041 50.4545 982.41 50.3542 982.736 50.1534C983.062 49.9527 983.319 49.6818 983.509 49.3409C983.698 49 983.791 48.6174 983.787 48.1932C983.791 47.7765 983.7 47.3996 983.514 47.0625C983.332 46.7254 983.08 46.4583 982.759 46.2614C982.437 46.0644 982.069 45.9659 981.656 45.9659C981.349 45.9659 981.063 46.0246 980.798 46.142C980.533 46.2595 980.302 46.4223 980.105 46.6307C979.908 46.8352 979.753 47.0739 979.639 47.3466C979.529 47.6155 979.473 47.9034 979.469 48.2102C979.473 48.6155 979.567 48.9886 979.753 49.3295C979.938 49.6705 980.194 49.9432 980.52 50.1477C980.846 50.3523 981.215 50.4545 981.628 50.4545Z" fill="#344054"/>
</g>
<defs>
<filter id="filter0_ddd_7284_23749" x="-182" y="20" width="1243" height="333.004" filterUnits="userSpaceOnUse" color-interpolation-filters="sRGB">
<feFlood flood-opacity="0" result="BackgroundImageFix"/>
<feColorMatrix in="SourceAlpha" type="matrix" values="0 0 0 0 0 0 0 0 0 0 0 0 0 0 0 0 0 0 127 0" result="hardAlpha"/>
<feOffset dx="-3" dy="-5"/>
<feGaussianBlur stdDeviation="6.5"/>
<feColorMatrix type="matrix" values="0 0 0 0 0.729412 0 0 0 0 0.92549 0 0 0 0 0.992157 0 0 0 0.03 0"/>
<feBlend mode="normal" in2="BackgroundImageFix" result="effect1_dropShadow_7284_23749"/>
<feColorMatrix in="SourceAlpha" type="matrix" values="0 0 0 0 0 0 0 0 0 0 0 0 0 0 0 0 0 0 127 0" result="hardAlpha"/>
<feOffset dx="-13" dy="-19"/>
<feGaussianBlur stdDeviation="11.5"/>
<feColorMatrix type="matrix" values="0 0 0 0 0.729412 0 0 0 0 0.92549 0 0 0 0 0.992157 0 0 0 0.03 0"/>
<feBlend mode="normal" in2="effect1_dropShadow_7284_23749" result="effect2_dropShadow_7284_23749"/>
<feColorMatrix in="SourceAlpha" type="matrix" values="0 0 0 0 0 0 0 0 0 0 0 0 0 0 0 0 0 0 127 0" result="hardAlpha"/>
<feOffset dx="-29" dy="-42"/>
<feGaussianBlur stdDeviation="15.5"/>
<feColorMatrix type="matrix" values="0 0 0 0 0.729412 0 0 0 0 0.92549 0 0 0 0 0.992157 0 0 0 0.02 0"/>
<feBlend mode="normal" in2="effect2_dropShadow_7284_23749" result="effect3_dropShadow_7284_23749"/>
<feBlend mode="normal" in="SourceGraphic" in2="effect3_dropShadow_7284_23749" result="shape"/>
</filter>
<clipPath id="clip0_7284_23749">
<rect width="1091" height="200" fill="white" transform="translate(0 0.75293)"/>
</clipPath>
<clipPath id="clip1_7284_23749">
<rect x="-121" y="94" width="1171" height="250.003" rx="8" fill="white"/>
</clipPath>
<clipPath id="clip2_7284_23749">
<rect x="-121" y="94" width="1171" height="250.003" rx="8" fill="white"/>
</clipPath>
</defs>
</svg>
