<svg width="95" height="79" viewBox="0 0 95 79" fill="none" xmlns="http://www.w3.org/2000/svg">
<path d="M94.5041 39.4114C94.5041 34.2432 91.8006 29.5696 87.4363 26.2124C87.581 25.5298 87.6551 24.8341 87.6572 24.1363C87.6572 17.2453 80.6513 11.6441 71.9315 11.4851C69.2811 4.81489 61.4006 0 52.0535 0C44.6147 0 38.0859 3.07446 34.3841 7.69499C33.4501 7.5672 32.5086 7.50227 31.5659 7.50063C22.6782 7.50063 15.4692 13.1725 15.4692 20.1695C15.4684 21.3543 15.6777 22.5299 16.0876 23.6416C10.4245 26.6188 6.6875 31.6899 6.6875 37.4501C6.6875 42.9983 10.1507 47.9016 15.4692 50.9142V51.0909C15.4692 57.8847 22.2542 63.4594 30.7885 63.7421C35.4885 68.3361 42.6976 71.2781 50.7813 71.2781C56.0892 71.3239 61.3163 69.9775 65.9416 67.3731C66.6691 67.4547 67.4005 67.496 68.1326 67.4968C77.0202 67.4968 84.2293 61.825 84.2293 54.8279V54.7042C90.4489 51.3471 94.5041 45.7547 94.5041 39.4114Z" fill="#2BA4A6"/>
<path d="M5.9899 76.6143C5.9899 77.7717 4.64702 78.7081 2.99494 78.7081C1.34285 78.7081 0 77.7717 0 76.6143C0 75.457 1.34285 74.5205 2.99494 74.5205C4.64702 74.5205 5.9899 75.457 5.9899 76.6143Z" fill="#2BA4A6"/>
<path d="M26.7333 71.6138C26.7333 74.9621 22.8372 77.6744 18.0311 77.6744C13.2251 77.6744 9.35547 74.9798 9.35547 71.6138C9.35547 68.2478 13.2516 65.5532 18.0576 65.5532C22.8637 65.5532 26.7333 68.292 26.7333 71.6138Z" fill="#2BA4A6"/>
<path opacity="0.7" d="M94.5041 39.4114C94.5041 34.2432 91.8006 29.5696 87.4363 26.2124C87.581 25.5298 87.6551 24.8341 87.6572 24.1363C87.6572 17.2453 80.6513 11.6441 71.9315 11.4851C69.2811 4.81489 61.4006 0 52.0535 0C44.6147 0 38.0859 3.07446 34.3841 7.69499C33.4501 7.5672 32.5086 7.50227 31.5659 7.50063C22.6782 7.50063 15.4692 13.1725 15.4692 20.1695C15.4684 21.3543 15.6777 22.5299 16.0876 23.6416C10.4245 26.6188 6.6875 31.6899 6.6875 37.4501C6.6875 42.9983 10.1507 47.9016 15.4692 50.9142V51.0909C15.4692 57.8847 22.2542 63.4594 30.7885 63.7421C35.4885 68.3361 42.6976 71.2781 50.7813 71.2781C56.0892 71.3239 61.3163 69.9775 65.9416 67.3731C66.6691 67.4547 67.4005 67.496 68.1326 67.4968C77.0202 67.4968 84.2293 61.825 84.2293 54.8279V54.7042C90.4489 51.3471 94.5041 45.7547 94.5041 39.4114Z" fill="white"/>
<path opacity="0.7" d="M5.9899 76.6143C5.9899 77.7717 4.64702 78.7081 2.99494 78.7081C1.34285 78.7081 0 77.7717 0 76.6143C0 75.457 1.34285 74.5205 2.99494 74.5205C4.64702 74.5205 5.9899 75.457 5.9899 76.6143Z" fill="white"/>
<path opacity="0.7" d="M26.7333 71.6138C26.7333 74.9621 22.8372 77.6744 18.0311 77.6744C13.2251 77.6744 9.35547 74.9798 9.35547 71.6138C9.35547 68.2478 13.2516 65.5532 18.0576 65.5532C22.8637 65.5532 26.7333 68.292 26.7333 71.6138Z" fill="white"/>
<path d="M51.0341 12.793C59.6302 12.793 64.9487 16.8304 64.9487 24.013C64.9487 33.7311 55.0716 34.9768 55.0716 42.4774H46.5461C46.5461 32.6091 54.4355 32.026 54.4355 25.8771C54.4355 23.2267 52.7657 21.9634 49.9475 21.9634C46.8023 21.9634 45.1326 23.8186 45.0707 27.6705H36.2891C36.3509 18.244 41.8637 12.793 51.0341 12.793ZM56.1759 52.8758C56.1759 54.3309 55.5979 55.7264 54.569 56.7553C53.5401 57.7841 52.1446 58.3622 50.6896 58.3622C49.2345 58.3622 47.839 57.7841 46.8102 56.7553C45.7813 55.7264 45.2032 54.3309 45.2032 52.8758C45.2032 51.4208 45.7813 50.0253 46.8102 48.9964C47.839 47.9675 49.2345 47.3895 50.6896 47.3895C52.1446 47.3895 53.5401 47.9675 54.569 48.9964C55.5979 50.0253 56.1759 51.4208 56.1759 52.8758Z" fill="#2BA4A6"/>
</svg>
