<svg width="140" height="141" viewBox="0 0 140 141" fill="none" xmlns="http://www.w3.org/2000/svg">
<ellipse opacity="0.1" cx="70" cy="136.3" rx="70" ry="4.2" fill="#119494"/>
<path fill-rule="evenodd" clip-rule="evenodd" d="M9.8 31.3001C9.8 22.0218 17.3216 14.5001 26.6 14.5001C35.8784 14.5001 43.4 22.0218 43.4 31.3001C43.4 35.7868 41.6412 39.8627 38.7755 42.8759C38.5671 43.0671 38.367 43.2672 38.1758 43.4756C35.1625 46.3414 31.0867 48.1001 26.6 48.1001C17.3216 48.1001 9.8 40.5785 9.8 31.3001ZM35.7034 48.6623C32.9832 50.0915 29.8861 50.9001 26.6 50.9001C26.1293 50.9001 25.6624 50.8835 25.2 50.8509V90.0601C25.2 93.9261 28.334 97.0601 32.2 97.0601H35.5988V50.099C35.5988 49.6109 35.6345 49.1312 35.7034 48.6623ZM22.4 50.4491C13.5935 48.5264 7 40.6833 7 31.3001C7 20.4754 15.7752 11.7001 26.6 11.7001C35.9831 11.7001 43.8263 18.2936 45.7489 27.1001H94.6C100.012 27.1001 104.4 31.4877 104.4 36.9001V40.299H107.799C113.211 40.299 117.599 44.6866 117.599 50.099V103.259C117.599 108.671 113.211 113.059 107.799 113.059H45.3988C39.9864 113.059 35.5988 108.671 35.5988 103.259V99.8601H32.2C26.7876 99.8601 22.4 95.4725 22.4 90.0601V50.4491ZM46.1508 29.9001C46.1834 30.3626 46.2 30.8294 46.2 31.3001C46.2 34.5862 45.3913 37.6834 43.9622 40.4035C44.4311 40.3346 44.9108 40.299 45.3988 40.299H101.6V36.9001C101.6 33.0341 98.466 29.9001 94.6 29.9001H46.1508ZM40.1829 45.4304C40.3689 45.2516 40.5514 45.0691 40.7303 44.883C41.969 43.7736 43.6051 43.099 45.3988 43.099H107.799C111.665 43.099 114.799 46.233 114.799 50.099V103.259C114.799 107.125 111.665 110.259 107.799 110.259H45.3988C41.5328 110.259 38.3988 107.125 38.3988 103.259V50.099C38.3988 48.3052 39.0735 46.6691 40.1829 45.4304ZM118.174 25.3283C120.212 25.3283 121.863 26.9796 121.863 29.0167C121.863 31.0537 120.212 32.7051 118.174 32.7051H110.587C108.55 32.7051 106.898 31.0537 106.898 29.0167C106.898 26.9796 108.55 25.3283 110.587 25.3283H118.174ZM119.063 29.0167C119.063 28.526 118.665 28.1283 118.174 28.1283H110.587C110.096 28.1283 109.698 28.526 109.698 29.0167C109.698 29.5073 110.096 29.9051 110.587 29.9051L118.174 29.9051C118.665 29.9051 119.063 29.5073 119.063 29.0167ZM94.1222 66.1834C94.1222 68.8591 91.9532 71.0282 89.2775 71.0282C86.6017 71.0282 84.4327 68.8591 84.4327 66.1834C84.4327 63.5077 86.6017 61.3386 89.2775 61.3386C91.9532 61.3386 94.1222 63.5077 94.1222 66.1834ZM68.8373 80.891H75.5399C77.3229 79.0393 79.8273 77.8872 82.6009 77.8872H96.1265C101.539 77.8872 105.927 82.2753 105.927 87.6883C105.927 89.3122 104.611 90.6286 102.987 90.6286H89.6515C89.8515 91.5163 89.9571 92.4398 89.9571 93.388C89.9571 95.4585 88.2786 97.1371 86.208 97.1371H51.4667C49.3961 97.1371 47.7176 95.4585 47.7176 93.388C47.7176 86.4861 53.3125 80.891 60.2144 80.891H68.8373ZM82.6009 80.6872C81.7051 80.6872 80.8486 80.8555 80.0613 81.1621C83.8361 81.9612 86.9817 84.4643 88.6555 87.8286H102.987C103.065 87.8286 103.127 87.7658 103.127 87.6883C103.127 83.8217 99.993 80.6872 96.1265 80.6872H82.6009ZM96.9222 66.1834C96.9222 70.4056 93.4995 73.8283 89.2775 73.8283C85.0553 73.8283 81.6327 70.4056 81.6327 66.1834C81.6327 61.9613 85.0553 58.5386 89.2775 58.5386C93.4995 58.5386 96.9222 61.9613 96.9222 66.1834ZM78.478 65.9648C78.478 71.3482 74.1138 75.7124 68.7304 75.7124C63.347 75.7124 58.9828 71.3482 58.9828 65.9648C58.9828 60.5813 63.347 56.2171 68.7304 56.2171C74.1138 56.2171 78.478 60.5813 78.478 65.9648ZM16.8 109.189C16.8 111.226 18.4514 112.877 20.4884 112.877H28.0762C30.1132 112.877 31.7646 111.226 31.7646 109.189C31.7646 107.152 30.1132 105.501 28.0762 105.501H20.4884C18.4514 105.501 16.8 107.152 16.8 109.189ZM20.4884 110.077C19.9978 110.077 19.6 109.68 19.6 109.189C19.6 108.698 19.9978 108.301 20.4884 108.301L28.0762 108.301C28.5668 108.301 28.9646 108.698 28.9646 109.189C28.9646 109.68 28.5668 110.077 28.0762 110.077H20.4884ZM23.1 22.2001C23.1 20.2671 24.667 18.7001 26.6 18.7001C28.533 18.7001 30.1 20.2671 30.1 22.2001V30.6001C30.1 32.5331 28.533 34.1001 26.6 34.1001C24.667 34.1001 23.1 32.5331 23.1 30.6001V22.2001ZM26.6 21.5001C26.2134 21.5001 25.9 21.8135 25.9 22.2001V30.6001C25.9 30.9867 26.2134 31.3001 26.6 31.3001C26.9866 31.3001 27.3 30.9867 27.3 30.6001V22.2001C27.3 21.8135 26.9866 21.5001 26.6 21.5001ZM26.6 43.9001C24.667 43.9001 23.1 42.3331 23.1 40.4001C23.1 38.4671 24.667 36.9001 26.6 36.9001C28.533 36.9001 30.1 38.4671 30.1 40.4001C30.1 42.3331 28.533 43.9001 26.6 43.9001ZM25.9 40.4001C25.9 40.7867 26.2134 41.1001 26.6 41.1001C26.9866 41.1001 27.3 40.7867 27.3 40.4001C27.3 40.0135 26.9866 39.7001 26.6 39.7001C26.2134 39.7001 25.9 40.0135 25.9 40.4001Z" fill="#119494"/>
</svg>
