<svg width="81" height="82" viewBox="0 0 81 82" fill="none" xmlns="http://www.w3.org/2000/svg">
<g opacity="0.3">
<path opacity="0.3" d="M48.298 16.8544C46.427 16.8526 44.6332 16.1085 43.3102 14.7855C41.9873 13.4625 41.2432 11.6687 41.2414 9.79774V0H9.70921C7.26679 0 4.92438 0.970275 3.19733 2.69733C1.47027 4.42438 0.5 6.76671 0.5 9.20913V64.7241C0.5 67.1666 1.47027 69.509 3.19733 71.236C4.92438 72.9631 7.26679 73.9333 9.70921 73.9333H47.5588C50.0012 73.9333 52.3436 72.9631 54.0706 71.236C55.7977 69.509 56.768 67.1666 56.768 64.7241V16.8544H48.298Z" fill="#039855"/>
</g>
<path d="M56.7688 16.8544H48.2988C46.4278 16.8526 44.634 16.1085 43.3111 14.7855C41.9881 13.4625 41.244 11.6687 41.2422 9.79773V0L56.7688 16.8544Z" fill="#039855"/>
<path d="M73.7978 57.9873H21.611C17.9092 57.9873 14.9082 60.4496 14.9082 63.4869V76.253C14.9082 79.2904 17.9092 81.7526 21.611 81.7526H73.7978C77.4996 81.7526 80.5005 79.2904 80.5005 76.253V63.4869C80.5005 60.4496 77.4996 57.9873 73.7978 57.9873Z" fill="#039855"/>
<path d="M30.4207 73.0225V75.5104H27.8438V73.0225H30.4207Z" fill="white"/>
<path d="M37.9593 75.5112L35.7931 72.3081L33.928 75.5112H31.0773L34.366 70.2136L30.9746 65.2207H33.928L36.0395 68.3212L37.8601 65.2207H40.6971L37.4528 70.4019L40.9161 75.5112H37.9593Z" fill="white"/>
<path d="M67.1351 75.8828L64.9689 72.6797L63.1038 75.8828H60.2531L63.5418 70.5852L60.1504 65.5923H63.1038L65.2153 68.6927L67.0359 65.5923H69.8728L66.6286 70.7735L70.0919 75.8828H67.1351Z" fill="white"/>
<path d="M58.1228 74.1148C57.8275 74.5873 57.4037 74.966 56.9011 75.2064C56.2892 75.493 55.6189 75.6324 54.9436 75.6137C53.9248 75.6563 52.9208 75.359 52.0895 74.7684C51.7218 74.4924 51.421 74.1372 51.2095 73.7289C50.998 73.3207 50.8811 72.8701 50.8678 72.4105H53.5165C53.5354 72.7572 53.6831 73.0842 53.9306 73.3277C54.177 73.5574 54.5042 73.6804 54.8409 73.6699C54.9781 73.6779 55.1156 73.6588 55.2454 73.6136C55.3751 73.5683 55.4948 73.4979 55.5973 73.4064C55.6885 73.3178 55.7603 73.2112 55.8081 73.0934C55.8558 72.9755 55.8784 72.849 55.8744 72.7219C55.8778 72.6013 55.8568 72.4812 55.8127 72.3689C55.7686 72.2566 55.7023 72.1544 55.6177 72.0683C55.4366 71.885 55.2216 71.7385 54.9847 71.6371C54.736 71.5276 54.3869 71.3941 53.9375 71.2367C53.392 71.0569 52.8593 70.8408 52.3427 70.5899C51.9182 70.3712 51.5539 70.0515 51.2818 69.6591C50.9661 69.1839 50.8102 68.6205 50.8369 68.0506C50.8246 67.486 50.9872 66.9313 51.3024 66.4627C51.6261 66.0048 52.0737 65.6487 52.5926 65.436C53.1907 65.1928 53.8327 65.0762 54.4782 65.0938C55.4581 65.0398 56.4263 65.329 57.216 65.9118C57.5521 66.1852 57.8274 66.5258 58.0242 66.9118C58.2211 67.2978 58.335 67.7206 58.3589 68.1532H55.6657C55.6357 67.8504 55.5056 67.5663 55.2961 67.3456C55.189 67.2431 55.0622 67.1635 54.9233 67.1117C54.7845 67.0599 54.6365 67.037 54.4885 67.0444C54.2318 67.0328 53.9798 67.1156 53.7801 67.2772C53.6879 67.3646 53.6162 67.4712 53.57 67.5895C53.5239 67.7078 53.5045 67.835 53.5131 67.9617C53.5078 68.1917 53.594 68.4144 53.7526 68.581C53.9229 68.7589 54.1279 68.8999 54.355 68.9952C54.5979 69.1013 54.947 69.2381 55.4022 69.4024C55.9574 69.5833 56.4985 69.8052 57.0209 70.0663C57.4475 70.2964 57.8152 70.622 58.0954 71.0177C58.4147 71.5004 58.5729 72.0719 58.5472 72.6501C58.5426 73.168 58.3958 73.6746 58.1228 74.1148Z" fill="white"/>
<path d="M45.5236 73.6051H48.8568V75.5112H43.0391V65.2207H45.5304L45.5236 73.6051Z" fill="white"/>
<path d="M41.1864 51.621H16.0947C13.9216 51.621 12.1523 49.4581 12.1523 46.7956V28.5929C12.1523 25.9339 13.9216 23.771 16.0947 23.771H41.1966C43.3663 23.771 45.1356 25.9339 45.1356 28.5929V46.7956C45.1253 49.4581 43.356 51.621 41.1864 51.621ZM16.0947 26.235C15.0304 26.235 14.1681 27.2925 14.1681 28.5929V46.7956C14.1681 48.096 15.0304 49.1535 16.0947 49.1535H41.1966C42.2575 49.1535 43.1199 48.096 43.1199 46.7956V28.5929C43.1199 27.2925 42.2575 26.235 41.1966 26.235H16.0947Z" fill="#039855"/>
<path d="M44.1199 40.6592H13.1523V43.1266H44.1199V40.6592Z" fill="#039855"/>
<path d="M44.1199 32.1992H13.1523V34.6666H44.1199V32.1992Z" fill="#039855"/>
<path d="M36.1861 25.002H33.7188V50.3845H36.1861V25.002Z" fill="#039855"/>
<path d="M23.5494 25.002H21.082V50.3845H23.5494V25.002Z" fill="#039855"/>
</svg>
